<svg width="408" height="408" xmlns="http://www.w3.org/2000/svg">

 <g>
  <title>background</title>
  <rect fill="none" id="canvas_background" height="402" width="582" y="-1" x="-1"/>
 </g>
 <g>
  <title>Layer 1</title>
  <g stroke="null" id="svg_1">
   <g stroke="null" id="svg_2">
    <path stroke="null" id="svg_3" d="m344.246819,117.495099c3.949755,0 7.181373,-3.198529 7.253186,-7.107843l0,-44.708334c0,-3.980392 -3.231618,-7.178922 -7.253186,-7.178922l-45.170834,0c-3.949755,0 -7.181373,3.198529 -7.181373,7.178922l0,15.566177l-173.789219,0l0,-15.566177c0,-3.909314 -3.231618,-7.107843 -7.181373,-7.178922l-45.170834,0c-3.949755,0 -7.181373,3.198529 -7.253186,7.178922l0,44.708334c0,3.909314 3.231618,7.107843 7.253186,7.107843l15.727206,0l0,172.009806l-15.727206,0c-3.949755,0 -7.181373,3.198529 -7.253186,7.107843l0,44.708334c0,3.909314 3.231618,7.107843 7.253186,7.178922l45.170834,0c3.949755,0 7.181373,-3.198529 7.181373,-7.178922l0,-15.566177l173.789219,0l0,15.566177c0,3.909314 3.231618,7.107843 7.181373,7.178922l45.170834,0c3.949755,0 7.181373,-3.198529 7.253186,-7.178922l0,-44.708334c0,-3.909314 -3.231618,-7.107843 -7.253186,-7.107843l-15.727206,0l0,-172.009806l15.727206,0zm-271.384073,-14.215686l0,-30.563726l30.879902,0l0,30.563726l-30.879902,0zm30.879902,231.004905l-30.879902,0l0,-30.563726l30.879902,0l0,30.563726zm188.151964,-37.671569l0,14.926471l-173.789219,0l0,-14.926471c0,-3.909314 -3.231618,-7.107843 -7.181373,-7.107843l-15.080883,0l0,-172.009806l15.080883,0c3.949755,0 7.181373,-3.198529 7.181373,-7.107843l0,-14.926471l173.789219,0l0,14.926471c0,3.909314 3.231618,7.107843 7.181373,7.107843l15.080883,0l0,172.009806l-15.080883,0c-3.949755,0 -7.181373,3.198529 -7.181373,7.107843zm45.242648,7.107843l0,30.563726l-30.879902,0l0,-30.563726l30.879902,0zm-30.879902,-200.441179l0,-30.563726l30.879902,0l0,30.563726l-30.879902,0z"/>
   </g>
  </g>
  <g id="svg_4"/>
  <g id="svg_5"/>
  <g id="svg_6"/>
  <g id="svg_7"/>
  <g id="svg_8"/>
  <g id="svg_9"/>
  <g id="svg_10"/>
  <g id="svg_11"/>
  <g id="svg_12"/>
  <g id="svg_13"/>
  <g id="svg_14"/>
  <g id="svg_15"/>
  <g id="svg_16"/>
  <g id="svg_17"/>
  <g id="svg_18"/>
 </g>
</svg>