<svg width="209.281" height="209.281" xmlns="http://www.w3.org/2000/svg">

 <g>
  <title>background</title>
  <rect fill="none" id="canvas_background" height="402" width="582" y="-1" x="-1"/>
 </g>
 <g>
  <title>Layer 1</title>
  <path stroke="null" id="svg_1" d="m176.095918,130.524432c2.705719,-7.796761 4.182088,-16.16964 4.182088,-24.884432s-1.476369,-17.087672 -4.182088,-24.884432c-0.066063,-0.234206 -0.144334,-0.46263 -0.23912,-0.682379c-10.436551,-29.163759 -38.195307,-50.073188 -70.717795,-50.073188s-60.281961,20.909429 -70.717795,50.073188c-0.094786,0.220472 -0.173775,0.448173 -0.23912,0.682379c-2.705719,7.796761 -4.182088,16.16964 -4.182088,24.884432s1.476369,17.087672 4.182088,24.884432c0.066063,0.234206 0.144334,0.46263 0.23912,0.682379c10.436551,29.164482 38.195307,50.073188 70.717795,50.073188s60.281243,-20.909429 70.717795,-50.073188c0.094786,-0.219749 0.173057,-0.44745 0.23912,-0.682379zm-70.956915,39.9134c-2.861542,0 -7.475196,-5.213261 -11.331277,-16.859971c-1.861259,-5.620231 -3.351272,-12.081148 -4.437006,-19.109509l31.536566,0c-1.085735,7.028361 -2.575747,13.488555 -4.436288,19.109509c-3.856799,11.646709 -8.470453,16.859971 -11.331995,16.859971zm-17.075186,-46.81237c-0.517735,-5.781429 -0.791322,-11.812967 -0.791322,-17.985463s0.273588,-12.204034 0.791322,-17.985463l34.149653,0c0.517735,5.781429 0.791322,11.812967 0.791322,17.985463s-0.273588,12.204034 -0.791322,17.985463l-34.149653,0zm-47.29336,-17.98474c0,-6.238276 0.882518,-12.272706 2.524764,-17.985463l33.965107,0c-0.503373,5.900701 -0.759009,11.948142 -0.759009,17.985463s0.254918,12.084762 0.759009,17.985463l-33.965107,0c-1.642245,-5.71348 -2.524764,-11.747187 -2.524764,-17.985463zm64.368546,-64.797833c2.861542,0 7.475914,5.213261 11.331995,16.859971c1.860541,5.620231 3.351272,12.081148 4.436288,19.108786l-31.537284,0c1.085735,-7.028361 2.575747,-13.488555 4.437006,-19.108786c3.856799,-11.646709 8.470453,-16.859971 11.331995,-16.859971zm27.877957,46.81237l33.965107,0c1.642245,5.712757 2.524764,11.747187 2.524764,17.985463s-0.882518,12.272706 -2.524764,17.985463l-33.965107,0c0.503373,-5.900701 0.759009,-11.948142 0.759009,-17.985463s-0.255636,-12.084762 -0.759009,-17.985463zm29.75645,-10.84289l-30.992263,0c-1.915833,-13.298443 -5.202478,-25.229236 -9.813259,-33.71705c17.876561,4.878578 32.686928,17.334167 40.805522,33.71705zm-74.464009,-33.717773c-4.610781,8.487814 -7.897426,20.418607 -9.813259,33.717773l-30.992263,0c8.119312,-16.382884 22.928961,-28.838473 40.805522,-33.717773zm-40.805522,91.373756l30.992263,0c1.915833,13.298443 5.202478,25.229236 9.813259,33.717773c-17.876561,-4.8793 -32.68621,-17.334167 -40.805522,-33.717773zm74.464009,33.717773c4.610781,-8.487814 7.897426,-20.418607 9.813259,-33.717773l30.992263,0c-8.118594,16.383607 -22.928961,28.838473 -40.805522,33.717773z"/>
  <g id="svg_2"/>
  <g id="svg_3"/>
  <g id="svg_4"/>
  <g id="svg_5"/>
  <g id="svg_6"/>
  <g id="svg_7"/>
  <g id="svg_8"/>
  <g id="svg_9"/>
  <g id="svg_10"/>
  <g id="svg_11"/>
  <g id="svg_12"/>
  <g id="svg_13"/>
  <g id="svg_14"/>
  <g id="svg_15"/>
  <g id="svg_16"/>
 </g>
</svg>