<svg width="512.001" height="512.001" xmlns="http://www.w3.org/2000/svg">

 <g>
  <title>background</title>
  <rect fill="none" id="canvas_background" height="211.281" width="211.281" y="-1" x="-1"/>
 </g>
 <g>
  <title>Layer 1</title>
  <g stroke="null" id="svg_1">
   <g stroke="null" id="svg_2">
    <path stroke="null" id="svg_3" d="m438.000579,254.30752c0,-7.139698 -4.285905,-13.559554 -11.188123,-16.757605l-27.176859,-12.576452l27.176859,-12.575792c0.000713,-0.00066 0.002852,-0.00132 0.002852,-0.00132c6.900792,-3.196732 11.186697,-9.617248 11.186697,-16.756946c0,-7.138378 -4.286618,-13.558894 -11.188123,-16.756946l-153.427137,-70.99846c-11.200955,-5.178772 -24.573379,-5.178772 -35.776472,0.00066l-153.424285,71.0011c-6.899366,3.195412 -11.185984,9.615268 -11.185984,16.754306c0,7.139698 4.285905,13.559554 11.188123,16.757605l27.176146,12.575792l-27.179711,12.577771c-6.898653,3.196732 -11.184559,9.616588 -11.184559,16.756286s4.285905,13.559554 11.188123,16.756946l27.176146,12.576452l-27.174008,12.575132c-6.898653,3.190134 -11.18741,9.608011 -11.190262,16.748368c-0.002852,7.144317 4.283054,13.568131 11.188123,16.766843l153.424998,70.99978c5.600478,2.589716 11.74204,3.883584 17.886454,3.883584c6.144414,0 12.288828,-1.295188 17.890018,-3.884244l153.424998,-70.99978c6.902218,-3.196732 11.188836,-9.621207 11.185984,-16.765523c-0.002852,-7.140358 -4.291608,-13.558234 -11.188123,-16.746389l-27.176859,-12.576452l27.179711,-12.577771c6.899366,-3.197392 11.185272,-9.617248 11.185272,-16.756946zm-346.30499,-55.799303c-1.667454,-0.772626 -1.91554,-2.128515 -1.91554,-2.867492s0.249512,-2.094866 1.912689,-2.865512l153.420008,-70.997141c3.252925,-1.504344 6.820948,-2.255197 10.388971,-2.255197c3.566597,0 7.133908,0.751512 10.384694,2.254537l153.419295,70.996481c1.666028,0.771966 1.91554,2.127856 1.91554,2.866832s-0.248086,2.094866 -1.91554,2.867492l-153.417156,70.995161c-6.505137,3.007369 -14.27138,3.007369 -20.772953,0.00066l-153.420008,-70.995821zm327.615107,111.601245c1.661038,0.768007 1.909837,2.121258 1.909837,2.860894c0.000713,0.740956 -0.248086,2.099484 -1.912689,2.870131l-153.420008,70.997141c-6.505137,3.007369 -14.27138,3.008029 -20.772953,0.00066l-153.419295,-70.997141c-1.667454,-0.772626 -1.916253,-2.130495 -1.91554,-2.87145c0,-0.738316 0.248086,-2.092226 1.912689,-2.861553l38.43342,-17.785574l107.486967,49.740358c5.600478,2.589716 11.74204,3.883584 17.885741,3.883584c6.144414,0 12.288828,-1.295188 17.890018,-3.884244l107.484115,-49.739698l38.437697,17.786894zm-0.003564,-52.93577l-153.419295,70.997141c-6.505137,3.007369 -14.27138,3.008029 -20.772953,0.00066l-153.419295,-70.996481c-1.667454,-0.771966 -1.91554,-2.127856 -1.91554,-2.866832c0,-0.740296 0.248086,-2.094866 1.912689,-2.866172l38.43342,-17.785574l107.486967,49.740358c5.599765,2.589716 11.742753,3.883584 17.885741,3.883584c6.142988,0 12.288115,-1.294528 17.889306,-3.884904l107.485541,-49.739698l38.430568,17.784255c1.667454,0.772626 1.91554,2.127856 1.91554,2.867492c0.000713,0.738976 -0.248086,2.094866 -1.912689,2.866172z"/>
   </g>
  </g>
  <g id="svg_4"/>
  <g id="svg_5"/>
  <g id="svg_6"/>
  <g id="svg_7"/>
  <g id="svg_8"/>
  <g id="svg_9"/>
  <g id="svg_10"/>
  <g id="svg_11"/>
  <g id="svg_12"/>
  <g id="svg_13"/>
  <g id="svg_14"/>
  <g id="svg_15"/>
  <g id="svg_16"/>
  <g id="svg_17"/>
  <g id="svg_18"/>
 </g>
</svg>