<svg xmlns="http://www.w3.org/2000/svg" width="512.0001220703125" height="512" style=""><rect id="backgroundrect" width="100%" height="100%" x="0" y="0" fill="none" stroke="none"/>

 <g style="">
  <title>background</title>
  <rect fill="none" id="canvas_background" height="402" width="582" y="-1" x="-1"/>
 </g>
 <g style="" class="currentLayer">
  <title>Layer 1</title>
  <path stroke="null" transform="rotate(-0.11437758058309555 254.00099182131711,253.50051879884128) " id="svg_1" d="m428.94194,138.131153l-59.699391,-59.765779c-8.278531,-8.287736 -21.748075,-8.287736 -30.026606,0l-83.376818,83.469527c0,0.00277 0,0.00277 -0.002767,0.00277l-62.256206,62.325429c-0.00276,0.002763 -0.00276,0.002763 -0.00276,0.002763l-93.380165,93.486759c-0.00276,0 -0.00276,0.00277 -0.005526,0.00277c0,0 -0.002767,0.00277 -0.002767,0.00277l-21.128906,21.1524c-8.278531,8.287736 -8.278531,21.772257 0,30.059986l59.699398,59.765779c4.140645,4.142487 9.574901,6.215111 15.011916,6.215111c5.437015,0 10.874038,-2.072625 15.014683,-6.215111l32.243426,-32.279271c2.764117,-2.76719 2.764117,-7.252812 0,-10.020002s-7.244757,-2.76719 -10.008873,0l-32.243419,32.279278c-2.75859,2.764421 -7.250283,2.764421 -10.008866,0l-59.699398,-59.765779c-2.76135,-2.761651 -2.76135,-7.258338 0,-10.019995l16.128623,-16.143787l23.467351,23.493444c1.382062,1.383599 3.192556,2.072625 5.00305,2.072625c1.810501,0 3.623762,-0.689026 5.003057,-2.072625c2.764117,-2.76719 2.764117,-7.252805 0,-10.022765l-23.467358,-23.493444l21.12062,-21.144097l8.284057,8.293269c1.382062,1.383592 3.192556,2.075387 5.00305,2.075387c1.810501,0 3.623762,-0.691796 5.005817,-2.075387c2.761357,-2.76719 2.761357,-7.252805 0,-10.019995l-8.284057,-8.293276l21.12062,-21.144097l23.467351,23.493444c1.382055,1.383599 3.192556,2.075395 5.005817,2.075395c1.810494,0 3.620995,-0.691796 5.00305,-2.075395c2.764117,-2.764421 2.764117,-7.252805 0,-10.017226l-23.467351,-23.496214l21.120613,-21.144104l8.284065,8.293269c1.382055,1.383599 3.192549,2.075395 5.00305,2.075395c1.810494,0 3.623755,-0.691796 5.00305,-2.075395c2.764117,-2.76719 2.764117,-7.252805 0,-10.019995l-8.281291,-8.293269l21.120613,-21.144104l23.456298,23.485149c1.382055,1.383592 3.195316,2.075387 5.005817,2.075387c1.810494,0 3.620995,-0.691796 5.00305,-2.075387c2.764117,-2.76719 2.764117,-7.252805 0,-10.019995l-23.459057,-23.485149l21.120613,-21.144097l8.284057,8.293269c1.382062,1.383592 3.192556,2.075387 5.003057,2.075387c1.813261,0 3.623755,-0.691796 5.005817,-2.075387c2.764117,-2.76719 2.764117,-7.252805 0,-10.019995l-8.284065,-8.293276l21.12062,-21.144097l23.467351,23.493444c1.384822,1.383599 3.195323,2.075395 5.005817,2.075395c1.810501,0 3.623762,-0.691796 5.00305,-2.075395c2.764117,-2.76719 2.764117,-7.252805 0,-10.019995l-23.467351,-23.493444l21.12062,-21.144104l8.284057,8.293269c1.382055,1.383599 3.192556,2.075395 5.00305,2.075395c1.810501,0 3.623762,-0.691796 5.005817,-2.075395c2.76135,-2.76719 2.76135,-7.252805 0,-10.019995l-8.281291,-8.290499l16.114796,-16.132722c2.75859,-2.761658 7.250283,-2.761658 10.008866,0l59.699398,59.765779c2.75859,2.761651 2.75859,7.258338 0,10.019995l-187.877023,188.085927c-2.764117,2.76719 -2.764117,7.252805 0,10.019995s7.244749,2.76719 10.008866,0l187.877023,-188.085927c8.278531,-8.287736 8.278531,-21.772257 0,-30.059993l0,0.000007zm0,0" class="" fill="#ffffff" fill-opacity="1"/><path stroke="null" transform="rotate(-0.11437758058309555 254.00099182131711,253.50051879884128) " d="m428.94194,138.131153 l-59.699391,-59.765779 c-8.278531,-8.287736 -21.748075,-8.287736 -30.026606,0 l-83.376818,83.469527 c0,0.0027700000000000008 0,0.0027700000000000008 -0.002767000000000001,0.0027700000000000008 l-62.256206,62.325429 c-0.0027600000000000007,0.0027630000000000007 -0.0027600000000000007,0.0027630000000000007 -0.0027600000000000007,0.0027630000000000007 l-93.380165,93.486759 c-0.0027600000000000007,0 -0.0027600000000000007,0.0027700000000000008 -0.005526000000000001,0.0027700000000000008 c0,0 -0.002767000000000001,0.0027700000000000008 -0.002767000000000001,0.0027700000000000008 l-21.128906,21.1524 c-8.278531,8.287736 -8.278531,21.772257 0,30.059986 l59.699398,59.765779 c4.140645,4.142487 9.574901,6.215111 15.011916,6.215111 c5.437015,0 10.874038,-2.072625 15.014683,-6.215111 l32.243426,-32.279271 c2.764117,-2.7671900000000003 2.764117,-7.2528120000000005 0,-10.020002 s-7.244757,-2.7671900000000003 -10.008873,0 l-32.243419,32.279278 c-2.75859,2.764421 -7.250283,2.764421 -10.008866,0 l-59.699398,-59.765779 c-2.76135,-2.761651 -2.76135,-7.258338 0,-10.019995 l16.128623,-16.143787 l23.467351,23.493444 c1.3820620000000001,1.383599 3.192556,2.072625 5.00305,2.072625 c1.810501,0 3.623762,-0.6890260000000001 5.003057,-2.072625 c2.764117,-2.7671900000000003 2.764117,-7.252805 0,-10.022765 l-23.467358,-23.493444 l21.12062,-21.144097 l8.284057,8.293269 c1.3820620000000001,1.3835920000000002 3.192556,2.075387 5.00305,2.075387 c1.810501,0 3.623762,-0.6917960000000002 5.005817,-2.075387 c2.7613570000000003,-2.7671900000000003 2.7613570000000003,-7.252805 0,-10.019995 l-8.284057,-8.293276 l21.12062,-21.144097 l23.467351,23.493444 c1.382055,1.383599 3.192556,2.075395 5.005817,2.075395 c1.810494,0 3.620995,-0.6917960000000002 5.00305,-2.075395 c2.764117,-2.764421 2.764117,-7.252805 0,-10.017226 l-23.467351,-23.496214 l21.120613,-21.144104 l8.284065,8.293269 c1.382055,1.383599 3.192549,2.075395 5.00305,2.075395 c1.810494,0 3.623755,-0.6917960000000002 5.00305,-2.075395 c2.764117,-2.7671900000000003 2.764117,-7.252805 0,-10.019995 l-8.281291,-8.293269 l21.120613,-21.144104 l23.456298,23.485149 c1.382055,1.3835920000000002 3.195316,2.075387 5.005817,2.075387 c1.810494,0 3.620995,-0.6917960000000002 5.00305,-2.075387 c2.764117,-2.7671900000000003 2.764117,-7.252805 0,-10.019995 l-23.459057,-23.485149 l21.120613,-21.144097 l8.284057,8.293269 c1.3820620000000001,1.3835920000000002 3.192556,2.075387 5.003057,2.075387 c1.813261,0 3.623755,-0.6917960000000002 5.005817,-2.075387 c2.764117,-2.7671900000000003 2.764117,-7.252805 0,-10.019995 l-8.284065,-8.293276 l21.12062,-21.144097 l23.467351,23.493444 c1.3848220000000002,1.383599 3.195323,2.075395 5.005817,2.075395 c1.810501,0 3.623762,-0.6917960000000002 5.00305,-2.075395 c2.764117,-2.7671900000000003 2.764117,-7.252805 0,-10.019995 l-23.467351,-23.493444 l21.12062,-21.144104 l8.284057,8.293269 c1.382055,1.383599 3.192556,2.075395 5.00305,2.075395 c1.810501,0 3.623762,-0.6917960000000002 5.005817,-2.075395 c2.76135,-2.7671900000000003 2.76135,-7.252805 0,-10.019995 l-8.281291,-8.290499 l16.114796,-16.132722 c2.75859,-2.761658 7.250283,-2.761658 10.008866,0 l59.699398,59.765779 c2.75859,2.761651 2.75859,7.258338 0,10.019995 l-187.877023,188.085927 c-2.764117,2.7671900000000003 -2.764117,7.252805 0,10.019995 s7.244749,2.7671900000000003 10.008866,0 l187.877023,-188.085927 c8.278531,-8.287736 8.278531,-21.772257 0,-30.059993 l0,0.0000070000000000000024 zm0,0 " class="" id="svg_3" fill="#ffffff" fill-opacity="1"/>
  <path id="svg_2" d="m202.42188,412.35938c-2.64063,0 -5.21875,1.07031 -7.07813,2.92968c-1.86328,1.85938 -2.92187,4.44141 -2.92187,7.07032c0,2.63281 1.05859,5.21093 2.92187,7.07031c1.85938,1.86328 4.4375,2.92969 7.07813,2.92969c2.63281,0 5.21093,-1.06641 7.07031,-2.92969c1.86328,-1.85938 2.93359,-4.4375 2.93359,-7.07031c0,-2.62891 -1.07031,-5.21094 -2.93359,-7.07032c-1.85938,-1.85937 -4.4375,-2.92968 -7.07031,-2.92968zm0,0" class="" fill="#ffffff" fill-opacity="1"/><path d="m202.42188,412.35938 c-2.6406300000000003,0 -5.21875,1.07031 -7.07813,2.9296800000000003 c-1.86328,1.85938 -2.92187,4.44141 -2.92187,7.07032 c0,2.63281 1.05859,5.21093 2.92187,7.07031 c1.85938,1.86328 4.4375,2.92969 7.07813,2.92969 c2.63281,0 5.21093,-1.06641 7.07031,-2.92969 c1.86328,-1.85938 2.93359,-4.4375 2.93359,-7.07031 c0,-2.6289100000000003 -1.07031,-5.21094 -2.93359,-7.07032 c-1.85938,-1.8593700000000002 -4.4375,-2.9296800000000003 -7.07031,-2.9296800000000003 zm0,0 " class="" id="svg_4" fill="#ffffff" fill-opacity="1"/>
 </g>
</svg>