<?xml version="1.0" standalone="no"?>
<!DOCTYPE svg PUBLIC "-//W3C//DTD SVG 1.1//EN" "http://www.w3.org/Graphics/SVG/1.1/DTD/svg11.dtd" >
<svg xmlns="http://www.w3.org/2000/svg">
<metadata>Generated by IcoMoon</metadata>
<defs>
<font id="icomoon" horiz-adv-x="1024">
<font-face units-per-em="1024" ascent="960" descent="-64" />
<missing-glyph horiz-adv-x="1024" />
<glyph unicode="&#x20;" horiz-adv-x="512" d="" />
<glyph unicode="&#xe900;" glyph-name="arrows_couple" d="M194.207 536.381l42.373-42.372-48.426-48.428h248.183v-60.533h-248.183l48.426-48.424-42.373-42.372-121.065 121.062 121.065 121.066zM787.412 494.010l42.372 42.372 121.066-121.066-121.066-121.062-42.372 42.372 48.424 48.424h-248.181v60.533h248.181l-48.424 48.428z" />
<glyph unicode="&#xe901;" glyph-name="agreement" d="M213.271 761.968h290.27v-78.14h-167.465c-24.663 0-44.657-19.994-44.657-44.657v-457.74h-78.149v580.538zM202.107 114.446c-30.829 0-55.821 24.993-55.821 55.819v602.867c0 30.829 24.992 55.821 55.821 55.821h312.596c30.83 0 55.823-24.992 55.823-55.821v-89.305h100.476c24.664 0 44.657-19.994 44.657-44.657v-44.657c0-24.662 19.994-44.656 44.657-44.656h44.654c24.664 0 44.657-19.994 44.657-44.657v-446.566c0-24.664-19.994-44.657-44.657-44.657h-468.894c-24.663 0-44.657 19.994-44.657 44.657v55.812h-89.313zM782.643 80.961v401.913h-22.327c-61.659 0-111.642 49.982-111.642 111.64v22.328h-290.27v-535.881h424.239zM470.045 449.371c-18.498 0-33.492-14.994-33.492-33.492s14.994-33.492 33.492-33.492h200.956c18.498 0 33.492 14.994 33.492 33.492s-14.994 33.492-33.492 33.492h-200.956zM436.553 304.244c0 18.498 14.994 33.496 33.492 33.496h200.956c18.498 0 33.492-14.998 33.492-33.496 0-18.494-14.994-33.492-33.492-33.492h-200.956c-18.498 0-33.492 14.998-33.492 33.492zM470.045 226.106c-18.498 0-33.492-14.994-33.492-33.492s14.994-33.492 33.492-33.492h200.956c18.498 0 33.492 14.994 33.492 33.492s-14.994 33.492-33.492 33.492h-200.956z" />
<glyph unicode="&#xe902;" glyph-name="arrow_down" d="M777.048 524.108c13.418-15.097 12.058-38.213-3.035-51.632l-246.857-219.429c-13.857-12.317-34.739-12.317-48.596 0l-246.856 219.429c-15.096 13.418-16.456 36.535-3.037 51.632 13.419 15.093 36.534 16.453 51.63 3.035l222.561-197.833 222.559 197.833c15.097 13.418 38.213 12.058 51.632-3.035z" />
<glyph unicode="&#xe903;" glyph-name="arrow_field_down" d="M498.812 325.086l-125.056 127.323c-17.179 17.492-5.014 47.4 19.284 47.4h250.112c24.294 0 36.462-29.908 19.28-47.4l-125.056-127.323c-10.65-10.843-27.915-10.843-38.565 0z" />
<glyph unicode="&#xe904;" glyph-name="arrow_field_top" d="M537.366 491.676l125.056-127.323c17.181-17.492 5.014-47.4-19.284-47.4h-250.112c-24.294 0-36.461 29.908-19.28 47.4l125.056 127.323c10.65 10.843 27.915 10.843 38.565 0z" />
<glyph unicode="&#xe905;" glyph-name="arrow_left_big" d="M846.051 450.859h-591.668l141.181 141.188c12.368 12.361 12.368 32.413 0 44.772-12.368 12.368-32.421 12.368-44.771 0l-195.231-195.235c-12.368-12.361-12.368-32.413 0-44.771l195.231-195.244c6.182-6.188 14.285-9.275 22.386-9.275s16.201 3.087 22.385 9.275c12.368 12.361 12.368 32.413 0 44.771l-141.181 141.195h591.668c17.485 0 31.664 14.179 31.664 31.664s-14.175 31.66-31.664 31.66z" />
<glyph unicode="&#xe906;" glyph-name="arrow_left_start" d="M630.517 274.866c13.147-15.334 36.235-17.112 51.569-3.968s17.112 36.231 3.968 51.569l-89.315 104.199 89.315 104.199c13.144 15.334 11.366 38.422-3.968 51.567s-38.422 11.369-51.569-3.967l-109.714-127.999c-11.736-13.696-11.736-33.905 0-47.601l109.714-128zM329.143 280.381c0-20.198 16.374-36.571 36.571-36.571s36.571 16.373 36.571 36.571v274.286c0 20.197-16.373 36.571-36.571 36.571s-36.571-16.373-36.571-36.571v-274.286z" />
<glyph unicode="&#xe907;" glyph-name="arrow_right_start" d="M694.857 572.953c0 20.198-16.373 36.571-36.571 36.571s-36.571-16.374-36.571-36.571v-274.286c0-20.198 16.373-36.571 36.571-36.571s36.571 16.373 36.571 36.571v274.286zM393.483 578.467c-13.144 15.335-36.233 17.111-51.568 3.967-15.335-13.146-17.111-36.234-3.967-51.568l89.313-104.199-89.313-104.199c-13.145-15.334-11.369-38.422 3.967-51.569 15.335-13.144 38.425-11.366 51.568 3.968l109.714 128c11.739 13.696 11.739 33.905 0 47.601l-109.714 128z" />
<glyph unicode="&#xe908;" glyph-name="arrow_top" d="M228.234 293.152c-13.145 15.338-11.369 38.426 3.967 51.569l255.999 219.429c13.696 11.738 33.905 11.738 47.601 0l256-219.429c15.334-13.144 17.112-36.231 3.968-51.569-13.144-15.334-36.231-17.112-51.569-3.964l-232.199 199.025-232.199-199.025c-15.335-13.147-38.423-11.37-51.568 3.964z" />
<glyph unicode="&#xe909;" glyph-name="bargaining" d="M367.217 625.199l109.883 109.883-54.21 54.208-109.882-109.883 54.209-54.208zM249.854 647.83c-17.439 17.439-17.439 45.715 0 63.154l141.46 141.46c17.441 17.44 45.714 17.44 63.155 0l85.786-85.785c17.437-17.439 17.437-45.715 0-63.154l-6.605-6.602 141.33-141.33 6.601 6.597c17.441 17.441 45.714 17.441 63.155 0l85.786-85.786c17.437-17.437 17.437-45.714 0-63.152l-141.462-141.462c-17.441-17.441-45.714-17.441-63.155 0l-85.786 85.786c-17.437 17.441-17.437 45.714 0 63.155l4.495 4.491-141.33 141.33-4.491-4.491c-17.441-17.437-45.715-17.437-63.154 0l-85.785 85.787zM585.49 479.059l35.639 35.635-129.342 129.344-35.639-35.637 129.342-129.341zM603.275 389.134l54.21-54.206 109.883 109.883-54.21 54.21-109.883-109.886zM443.717 414.602c12.621 13.52 11.889 34.717-1.631 47.338-13.524 12.621-34.717 11.889-47.338-1.635l-312.598-334.925c-12.621-13.52-11.89-34.717 1.632-47.338s34.716-11.889 47.337 1.635l312.597 334.925zM497.382 169.522c0 18.498 14.994 33.492 33.492 33.492h290.267c18.498 0 33.492-14.994 33.492-33.492s-14.994-33.492-33.492-33.492h-290.267c-18.498 0-33.492 14.994-33.492 33.492zM441.56 91.366c-18.498 0-33.492-14.998-33.492-33.492 0-18.498 14.994-33.496 33.492-33.496h468.897c18.498 0 33.492 14.998 33.492 33.496 0 18.494-14.994 33.492-33.492 33.492h-468.897z" />
<glyph unicode="&#xe90a;" glyph-name="build" d="M814.716 820.811c-5.427 5.426-11.856 8.142-19.284 8.142h-548.573c-7.434 0-13.86-2.715-19.289-8.142-5.426-5.429-8.142-11.856-8.142-19.284v-713.141c0-7.435 2.715-13.861 8.142-19.291 5.436-5.431 11.862-8.141 19.289-8.141h548.573c7.428 0 13.861 2.71 19.284 8.141 5.42 5.431 8.148 11.856 8.148 19.291v713.141c-0.004 7.427-2.717 13.854-8.148 19.284zM768 115.806h-164.568v96c0 3.719-1.36 6.934-4.063 9.648-2.725 2.71-5.928 4.067-9.648 4.067h-137.15c-3.712 0-6.927-1.357-9.64-4.067-2.714-2.714-4.070-5.928-4.070-9.648v-96h-164.575v658.293h493.714v-658.293zM342.846 225.52h27.425c3.716 0 6.93 1.349 9.644 4.070s4.074 5.925 4.074 9.648v27.429c0 3.708-1.36 6.919-4.074 9.637-2.714 2.714-5.928 4.070-9.644 4.070h-27.425c-3.713 0-6.927-1.357-9.641-4.070-2.716-2.717-4.071-5.928-4.071-9.637v-27.429c0-3.723 1.355-6.927 4.071-9.648 2.715-2.714 5.928-4.070 9.641-4.070zM370.271 335.238h-27.425c-3.713 0-6.926 1.357-9.641 4.070-2.716 2.721-4.071 5.925-4.071 9.648v27.429c0 3.712 1.355 6.93 4.071 9.637 2.714 2.714 5.928 4.070 9.641 4.070h27.425c3.716 0 6.93-1.357 9.644-4.070 2.714-2.706 4.074-5.925 4.074-9.637v-27.429c0-3.723-1.36-6.927-4.074-9.648-2.714-2.714-5.928-4.070-9.644-4.070zM452.575 335.238h27.429c3.712 0 6.927 1.357 9.64 4.070 2.714 2.721 4.070 5.925 4.070 9.648v27.429c0 3.712-1.364 6.927-4.070 9.637-2.717 2.714-5.932 4.070-9.64 4.070h-27.429c-3.716 0-6.93-1.357-9.644-4.070-2.71-2.71-4.070-5.925-4.070-9.637v-27.429c0-3.723 1.36-6.927 4.070-9.648 2.714-2.714 5.928-4.070 9.644-4.070zM370.271 444.953h-27.425c-3.713 0-6.926 1.353-9.641 4.070-2.716 2.714-4.071 5.928-4.071 9.64v27.429c0 3.716 1.355 6.93 4.071 9.644 2.714 2.714 5.928 4.070 9.641 4.070h27.425c3.716 0 6.93-1.357 9.644-4.070s4.074-5.928 4.074-9.644v-27.429c0-3.712-1.36-6.927-4.074-9.64-2.714-2.717-5.928-4.070-9.644-4.070zM672.011 225.52h27.432c3.719 0 6.927 1.349 9.648 4.070 2.717 2.721 4.063 5.925 4.063 9.648v27.429c0 3.708-1.357 6.919-4.063 9.637-2.721 2.714-5.928 4.070-9.648 4.070h-27.432c-3.708 0-6.923-1.357-9.637-4.070-2.717-2.717-4.070-5.928-4.070-9.637v-27.429c0-3.723 1.353-6.927 4.070-9.648 2.706-2.714 5.928-4.070 9.637-4.070zM589.718 335.238h-27.432c-3.708 0-6.927 1.357-9.648 4.070-2.706 2.721-4.070 5.925-4.070 9.648v27.429c0 3.712 1.368 6.927 4.070 9.637 2.714 2.714 5.939 4.070 9.648 4.070h27.432c3.719 0 6.927-1.357 9.648-4.070 2.703-2.71 4.056-5.925 4.056-9.637v-27.429c0-3.723-1.353-6.927-4.056-9.648-2.725-2.714-5.928-4.070-9.648-4.070zM452.575 444.953h27.429c3.712 0 6.927 1.353 9.64 4.070 2.714 2.714 4.070 5.928 4.070 9.64v27.429c0 3.716-1.364 6.923-4.070 9.644-2.717 2.714-5.932 4.070-9.64 4.070h-27.429c-3.716 0-6.93-1.357-9.644-4.070-2.71-2.714-4.070-5.928-4.070-9.644v-27.429c0-3.712 1.36-6.927 4.070-9.64 2.714-2.717 5.928-4.070 9.644-4.070zM370.271 554.667h-27.425c-3.713 0-6.926 1.357-9.641 4.070s-4.071 5.928-4.071 9.64v27.427c0 3.713 1.355 6.929 4.071 9.641 2.714 2.715 5.928 4.074 9.641 4.074h27.425c3.716 0 6.93-1.359 9.644-4.074 2.714-2.706 4.074-5.928 4.074-9.641v-27.427c0-3.719-1.36-6.927-4.074-9.64s-5.928-4.070-9.644-4.070zM672.011 335.238h27.432c3.719 0 6.927 1.357 9.648 4.070 2.717 2.721 4.063 5.925 4.063 9.648v27.429c0 3.712-1.357 6.927-4.063 9.637-2.721 2.714-5.928 4.070-9.648 4.070h-27.432c-3.708 0-6.923-1.357-9.637-4.070-2.717-2.706-4.070-5.925-4.070-9.637v-27.429c0-3.723 1.353-6.927 4.070-9.648 2.706-2.714 5.928-4.070 9.637-4.070zM589.718 444.953h-27.432c-3.708 0-6.927 1.353-9.648 4.070-2.706 2.714-4.070 5.928-4.070 9.64v27.429c0 3.716 1.368 6.93 4.070 9.644 2.714 2.714 5.939 4.070 9.648 4.070h27.432c3.719 0 6.927-1.357 9.648-4.070 2.703-2.721 4.056-5.928 4.056-9.644v-27.429c0-3.712-1.353-6.927-4.056-9.64-2.725-2.717-5.928-4.070-9.648-4.070zM452.575 554.667h27.429c3.712 0 6.927 1.357 9.64 4.070s4.070 5.921 4.070 9.64v27.427c0 3.713-1.364 6.935-4.070 9.641-2.717 2.715-5.932 4.074-9.64 4.074h-27.429c-3.716 0-6.93-1.359-9.644-4.074-2.71-2.713-4.070-5.928-4.070-9.641v-27.427c0-3.712 1.36-6.927 4.070-9.64 2.714-2.714 5.928-4.070 9.644-4.070zM370.271 664.384h-27.425c-3.713 0-6.926 1.357-9.641 4.071-2.716 2.713-4.071 5.928-4.071 9.643v27.426c0 3.715 1.355 6.927 4.071 9.643 2.714 2.713 5.928 4.071 9.641 4.071h27.425c3.716 0 6.93-1.359 9.644-4.071 2.714-2.715 4.074-5.927 4.074-9.643v-27.425c0-3.715-1.36-6.931-4.074-9.643-2.714-2.714-5.928-4.073-9.644-4.073zM672.011 444.953h27.432c3.719 0 6.927 1.353 9.648 4.070 2.717 2.714 4.063 5.928 4.063 9.64v27.429c0 3.716-1.357 6.923-4.063 9.644-2.721 2.714-5.928 4.070-9.648 4.070h-27.432c-3.708 0-6.923-1.357-9.637-4.070-2.717-2.714-4.070-5.928-4.070-9.644v-27.429c0-3.712 1.353-6.927 4.070-9.64 2.706-2.717 5.928-4.070 9.637-4.070zM589.718 554.667h-27.432c-3.708 0-6.927 1.357-9.648 4.070-2.706 2.714-4.070 5.928-4.070 9.64v27.427c0 3.713 1.368 6.929 4.070 9.641 2.725 2.715 5.939 4.074 9.648 4.074h27.432c3.719 0 6.927-1.359 9.648-4.074 2.703-2.706 4.056-5.928 4.056-9.641v-27.427c0-3.719-1.353-6.927-4.056-9.64-2.725-2.714-5.928-4.070-9.648-4.070zM452.575 664.384h27.429c3.712 0 6.927 1.359 9.64 4.073 2.714 2.713 4.070 5.928 4.070 9.643v27.425c0 3.715-1.364 6.927-4.070 9.643-2.717 2.713-5.932 4.071-9.64 4.071h-27.429c-3.716 0-6.93-1.359-9.644-4.071-2.71-2.715-4.070-5.927-4.070-9.643v-27.426c0-3.715 1.36-6.931 4.070-9.643 2.714-2.714 5.928-4.071 9.644-4.071zM699.443 554.667h-27.432c-3.708 0-6.93 1.357-9.637 4.070-2.717 2.714-4.070 5.928-4.070 9.64v27.427c0 3.713 1.353 6.929 4.070 9.641 2.714 2.715 5.928 4.074 9.637 4.074h27.432c3.719 0 6.927-1.359 9.648-4.074 2.706-2.706 4.063-5.928 4.063-9.641v-27.427c0-3.719-1.346-6.927-4.063-9.64-2.721-2.714-5.928-4.070-9.648-4.070zM562.286 664.384h27.432c3.719 0 6.923 1.359 9.648 4.073 2.703 2.713 4.056 5.928 4.056 9.643v27.425c0 3.715-1.353 6.927-4.056 9.643-2.721 2.713-5.928 4.071-9.648 4.071h-27.432c-3.708 0-6.934-1.359-9.648-4.071-2.703-2.715-4.070-5.927-4.070-9.643v-27.426c0-3.715 1.364-6.931 4.070-9.643 2.721-2.714 5.939-4.071 9.648-4.071zM699.443 664.384h-27.432c-3.708 0-6.93 1.357-9.637 4.071-2.717 2.713-4.070 5.928-4.070 9.643v27.426c0 3.715 1.353 6.927 4.070 9.643 2.714 2.713 5.928 4.071 9.637 4.071h27.432c3.719 0 6.927-1.359 9.648-4.071 2.706-2.715 4.063-5.927 4.063-9.643v-27.425c0-3.715-1.346-6.931-4.063-9.643-2.721-2.714-5.928-4.073-9.648-4.073z" />
<glyph unicode="&#xe90b;" glyph-name="burger_menu_big" d="M255.473 609.286h549.625c19.917 0 36.045 16.4 36.045 36.686 0 20.235-16.128 36.695-36.045 36.695h-549.625c-19.917 0-36.044-16.46-36.044-36.695 0-20.295 16.128-36.686 36.044-36.686zM805.098 457.976h-549.625c-19.917 0-36.044-16.468-36.044-36.692 0-20.304 16.128-36.696 36.044-36.696h549.625c19.917 0 36.045 16.399 36.045 36.696 0 20.224-16.128 36.692-36.045 36.692zM805.098 233.288h-549.625c-19.917 0-36.044-16.468-36.044-36.696 0-20.304 16.128-36.696 36.044-36.696h549.625c19.917 0 36.045 16.417 36.045 36.696 0 20.228-16.128 36.696-36.045 36.696z" />
<glyph unicode="&#xe90c;" glyph-name="burger_menu_small" d="M256 646.096h512v-73.143h-512v73.143zM256 463.238h512v-73.143h-512v73.143zM768 280.381h-512v-73.143h512v73.143z" />
<glyph unicode="&#xe90d;" glyph-name="calendar" d="M206.104 35.115h611.79c13.041 0 23.248 13.316 23.248 30.332v676.945c0 17.016-10.207 30.333-23.248 30.333h-115.098v25.894c0 17.016-10.207 30.333-23.248 30.333s-23.248-13.317-23.248-30.333v-25.894h-284.632v25.894c0 17.016-10.206 30.333-23.247 30.333s-23.247-13.317-23.247-30.333v-25.894h-119.070c-13.041 0-23.247-13.317-23.247-30.333v-677.688c0-16.274 10.773-29.59 23.247-29.59zM229.351 712.059h95.823v-16.276c0-17.016 10.206-30.333 23.247-30.333s23.247 13.317 23.247 30.333v16.276h284.632v-16.276c0-17.016 10.207-30.333 23.248-30.333s23.248 13.317 23.248 30.333v16.276h92.42v-78.422h-565.865v78.422zM229.351 572.971h565.298v-477.93h-565.298v477.93zM679.559 433.901h-334.527c-13.041 0-23.247-13.319-23.247-30.336s10.206-30.332 23.247-30.332h334.527c13.041 0 23.248 13.316 23.248 30.332s-10.207 30.336-23.248 30.336zM345.033 287.399h167.263c13.041 0 23.248-13.316 23.248-30.332s-10.207-30.336-23.248-30.336h-167.263c-13.041 0-23.247 13.319-23.247 30.336s10.206 30.332 23.247 30.332z" />
<glyph unicode="&#xe90e;" glyph-name="check" d="M867.975 672.929c12.987-12.984 12.987-34.034 0-47.018l-423.139-423.142c-12.983-12.983-34.033-12.983-47.020 0l-241.793 241.796c-12.984 12.983-12.984 34.033 0 47.020 12.984 12.983 34.034 12.983 47.018 0l218.287-218.288 399.631 399.632c12.983 12.984 34.033 12.984 47.016 0z" />
<glyph unicode="&#xe90f;" glyph-name="close_fill" d="M512 134.096c161.584 0 292.571 130.988 292.571 292.571s-130.988 292.571-292.571 292.571c-161.583 0-292.571-130.989-292.571-292.571s130.989-292.571 292.571-292.571zM622.325 574.94l43.099-43.101-107.747-107.747 107.772-107.772-43.099-43.099-107.772 107.772-107.754-107.75-43.099 43.099 107.753 107.75-107.728 107.728 43.099 43.099 107.728-107.728 107.747 107.749z" />
<glyph unicode="&#xe910;" glyph-name="close" d="M710.74 538.246l-51.719 51.722-129.291-129.293-129.273 129.271-51.719-51.718 129.269-129.273-129.305-129.306 51.719-51.719 129.309 129.306 129.328-129.328 51.719 51.719-129.328 129.328 129.291 129.291z" />
<glyph unicode="&#xe911;" glyph-name="contract" d="M763.396 605.669v-491.223h-513.554v647.522h358.147v-44.657c0-61.658 49.982-111.642 111.642-111.642h43.765zM227.514 47.462h558.209c24.664 0 44.657 19.994 44.657 44.654v535.882c0 24.663-19.994 44.657-44.657 44.657h-66.092c-24.664 0-44.657 19.994-44.657 44.657v66.985c0 24.663-19.994 44.657-44.657 44.657h-402.802c-24.663 0-44.657-19.994-44.657-44.657v-692.181c0-24.66 19.994-44.654 44.657-44.654zM497.441 270.021c12.72 13.425 12.149 34.626-1.28 47.345-13.429 12.723-34.629 12.149-47.349-1.276l-60.299-63.649-25.043 26.434c-12.721 13.429-33.92 14-47.348 1.28-13.428-12.723-14.001-33.92-1.28-47.349l49.358-52.1c6.324-6.678 15.116-10.459 24.314-10.459s17.989 3.781 24.313 10.459l84.615 89.315zM305.663 605.684c0 18.497 14.995 33.492 33.492 33.492h200.957c18.494 0 33.492-14.995 33.492-33.492s-14.998-33.492-33.492-33.492h-200.957c-18.497 0-33.492 14.994-33.492 33.492zM339.155 527.509c-18.497 0-33.492-14.998-33.492-33.496 0-18.494 14.995-33.492 33.492-33.492h312.599c18.494 0 33.492 14.998 33.492 33.492 0 18.498-14.998 33.496-33.492 33.496h-312.599z" />
<glyph unicode="&#xe912;" glyph-name="deal_progress" d="M650.467 773.914c12.592 12.591 12.592 33.005 0 45.596s-33.006 12.591-45.594 0l-106.167-106.167-52.432 52.431c-12.592 12.591-33.006 12.591-45.597 0s-12.592-33.005 0-45.596l75.231-75.229c12.592-12.591 33.006-12.591 45.594 0l128.965 128.965zM101.054 517.262h85.976v-279.424h-85.976v279.424zM79.56 581.744c-23.742 0-42.988-19.247-42.988-42.989v-322.41c0-23.742 19.246-42.99 42.988-42.99h128.964c19.689 0 36.286 13.239 41.379 31.298l159.668-159.671c14.109-14.106 33.243-22.034 53.197-22.034h71.856c19.953 0 39.088 7.929 53.197 22.034l128.965 128.965c3.185 3.185 6.027 6.587 8.521 10.156h43.432c4.773-18.542 21.603-32.241 41.633-32.241h128.965c23.742 0 42.99 19.248 42.99 42.99v343.903c0 23.742-19.248 42.989-42.99 42.989h-128.965c-23.742 0-42.986-19.247-42.986-42.989v-10.693h-515.873v10.693c0 23.742-19.246 42.989-42.988 42.989h-128.964zM276.156 269.589c-7.116 7.117-15.51 12.661-24.643 16.406v177.584h229.563l-40.177-37.307c-40.763-37.855-41.951-101.987-2.615-141.323 39.227-39.23 102.235-41.081 143.696-4.224l22.886 20.341 66.322-66.326c4.198-4.195 4.198-11.001 0-15.195l-27.436-27.436-25.545 25.545c-12.592 12.592-33.006 12.592-45.597 0-12.588-12.588-12.588-33.002 0-45.594l25.549-25.549-18.867-18.867-25.545 25.549c-12.592 12.592-33.006 12.592-45.597 0s-12.592-33.006 0-45.597l20.165-20.165h-65.547c-2.853 0-5.584 1.134-7.6 3.149l-179.012 179.010zM831.868 216.345v300.917h85.976v-300.917h-85.976zM767.386 463.579v-214.992h-31.671c-3.445 11.622-9.757 22.576-18.929 31.751l-86.027 86.027c-13.078 13.078-34.085 13.696-47.909 1.408l-43.71-38.853c-15.945-14.175-40.174-13.462-55.259 1.624-13.495 13.495-13.085 35.493 0.896 48.475l91.063 84.56h191.547zM606.058 341.664l0.911 0.911-21.786-21.826 20.875 20.915z" />
<glyph unicode="&#xe913;" glyph-name="deal" d="M852.714 407.109c-0.563 0.571-1.156 1.108-1.763 1.627l-201.797 171.828c-28.537 24.299-64.852 37.658-102.316 37.658-0.183 0-0.366 0-0.545 0-41.947-0.146-81.39-16.558-111.056-46.224l-27.216-27.216c-11.476-11.48-30.314-11.666-41.999-0.417-5.607 5.391-8.737 12.833-8.813 20.937-0.082 8.507 3.281 16.798 9.222 22.745 0.23 0.229 0.457 0.463 0.68 0.697l59.023 62.994c45.645 48.715 109.169 77.684 175.664 80.432l226.933-185.026c12.84-10.474 31.74-8.55 42.207 4.286 10.47 12.844 8.547 31.741-4.29 42.212l-235.483 191.995c-5.354 4.359-12.047 6.744-18.955 6.744-56.444 0-111.62-15.381-159.627-43.553-48.428 28.524-103.401 43.553-159.803 43.553-7.957 0-15.586-3.158-21.211-8.778l-153.059-152.994c-11.719-11.719-11.725-30.709-0.012-42.428 5.859-5.865 13.535-8.795 21.217-8.795 7.676 0 15.352 2.93 21.205 8.783l143.995 143.924c32.654-1.541 64.512-9.346 94.055-22.893-5.723-5.262-11.275-10.734-16.618-16.436l-58.728-62.684c-17.021-17.232-26.643-41.021-26.408-65.354 0.229-24.346 9.891-46.936 27.199-63.594 17.063-16.417 39.516-25.337 63.207-25.132 23.728 0.212 46.043 9.571 62.822 26.357l27.224 27.216c18.381 18.388 42.832 28.559 68.831 28.654h0.34c23.219 0 45.733-8.287 63.419-23.344l200.708-170.902c9.26-9.984 9.037-25.651-0.677-35.361-4.773-4.776-11.176-7.402-18.030-7.402-6.857 0-13.261 2.626-18.030 7.402l-6.151 6.159c-11.721 11.714-30.716 11.717-42.43 0-11.714-11.714-11.717-30.709 0-42.43l6.159-6.151c1.81-1.814 3.705-3.525 5.65-5.149 0.859-1.159 1.781-2.286 2.827-3.335 9.944-9.944 9.944-26.119 0-36.063-9.936-9.944-26.116-9.944-36.056 0-0.077 0.077-0.161 0.157-0.234 0.234l-9.944 9.874c-11.721 11.71-30.709 11.71-42.423-0.007-11.717-11.714-11.717-30.709 0-42.423l6.853-6.853c5.193-5.193 8.327-12.592 8.591-20.297 0.143-4.202-0.505-12.123-6.44-18.059-9.384-9.392-25.64-8.419-36.22 2.161-0.563 0.563-1.145 1.101-1.752 1.616l-4.502 3.84c-12.251 10.445-30.574 9.351-41.494-2.48-10.928-11.831-10.565-30.175 0.819-41.567 5.003-5.003 7.804-11.553 7.885-18.439 0.077-6.674-2.447-12.913-7.106-17.573-9.944-9.944-26.32-9.739-36.608 0.545l-4.242 4.206c12.251 31.239 5.793 68.187-19.412 93.396v0.004c-11.286 11.279-25.037 19.185-39.94 23.146 3.705 25.768-4.341 52.915-24.123 72.704-14.822 14.822-33.785 23.033-53.204 24.671-1.463 19.302-9.713 38.239-24.795 53.321-14.913 14.914-34.009 23.135-53.543 24.704-1.57 19.536-9.791 38.63-24.703 53.544-33.264 33.262-87.352 33.331-120.703 0.208l-41.924-40.477c-0.123-0.121-0.252-0.245-0.375-0.366-16.102-16.102-24.973-37.577-24.973-60.46 0-22.875 8.871-44.35 24.973-60.449 12.744-12.752 28.553-20.604 45.070-23.603-0.773-22.857 7.523-45.967 24.932-63.375 15.527-15.528 36.246-24.013 58.518-24.013 0.422 0 0.85 0.007 1.272 0.011 2.426-17.829 10.442-35.003 24.082-48.636 16.588-16.589 38.397-24.876 60.264-24.876 1.84 0 3.674 0.084 5.514 0.201 3.176-17.463 11.508-33.521 24.253-46.267 16.962-16.958 39.234-25.435 61.517-25.435 21.749 0 43.498 8.115 60.303 24.287 16.731-16.172 38.385-24.287 60.006-24.287 21.87 0 43.685 8.287 60.266 24.869 13.272 13.275 21.555 30.164 23.951 48.475 21.358 0.033 42.448 7.991 58.419 23.969 14.032 14.032 22.279 32.468 23.771 52.681 21.16 1.101 40.858 9.819 55.888 24.85 17.408 17.408 25.702 40.525 24.931 63.386 17.006 3.061 32.636 11.151 45.071 23.585 33.335 33.335 33.335 87.574 0 120.909v0zM213.549 323.166c-0.123-0.121-0.252-0.245-0.375-0.369-4.769-4.773-11.174-7.398-18.029-7.398s-13.26 2.626-18.029 7.398c-4.775 4.776-7.4 11.176-7.4 18.030 0 6.788 2.572 13.122 7.248 17.88l41.865 40.422c0.129 0.124 0.252 0.245 0.375 0.369 4.775 4.769 11.18 7.398 18.035 7.398 6.849 0 13.254-2.629 18.029-7.398 4.769-4.776 7.4-11.18 7.4-18.037 0-5.694-1.834-11.067-5.191-15.466-0.785-0.72-1.57-1.448-2.332-2.209l-30.773-30.171-10.822-10.448zM282.473 237.011c-10.494-9.684-26.309-10.236-35.356-1.189-9.914 9.915-9.943 26.032-0.088 35.983l19.213 18.838 31.073 29.992c0.129 0.124 0.252 0.245 0.375 0.369 0.809 0.808 1.576 1.631 2.338 2.461 9.99 7.629 24.357 6.908 33.486-2.22 9.879-9.878 9.938-24.177 0.158-34.044l-51.199-50.191zM367.605 163.74c-0.037-0.037-0.077-0.077-0.113-0.113-10.189-10.189-26.566-10.386-36.509-0.446-9.926 9.929-9.738 26.269 0.404 36.465l43.95 43.494c0.044 0.033 0.077 0.077 0.113 0.11 4.776 4.776 11.18 7.402 18.033 7.402 6.85 0 13.257-2.626 18.030-7.402 9.925-9.925 9.944-26.068 0.048-36.016l-43.955-43.494zM475.575 109.216c-0.128-0.121-0.26-0.249-0.38-0.384l-16.154-16.742c-10.536-10.372-27.553-10.317-38.023 0.154-5.175 5.175-8.064 12.112-8.137 19.529-0.077 7.267 2.6 13.981 7.534 18.918l18 18c4.805 4.805 11.037 7.186 17.415 7.186 6.971 0 14.113-2.849 19.738-8.474 10.529-10.529 10.529-27.655 0.007-38.188z" />
<glyph unicode="&#xe914;" glyph-name="dot" d="M621.714 426.667c0-60.594-49.121-109.714-109.714-109.714s-109.714 49.121-109.714 109.714c0 60.594 49.121 109.714 109.714 109.714s109.714-49.121 109.714-109.714z" />
<glyph unicode="&#xe915;" glyph-name="excel" d="M767.547 519.471h-15.865v76.552c0 0.477-0.073 0.958-0.132 1.446-0.026 3.037-0.998 6.021-3.079 8.387l-127.397 145.522c-0.040 0.037-0.077 0.050-0.102 0.090-0.761 0.848-1.646 1.555-2.582 2.164-0.278 0.185-0.556 0.341-0.848 0.505-0.808 0.44-1.671 0.81-2.556 1.076-0.238 0.063-0.453 0.162-0.695 0.224-0.962 0.229-1.96 0.371-2.973 0.371h-313.081c-14.296 0-25.91-11.628-25.91-25.911v-210.421h-15.864c-20.451 0-37.034-16.578-37.034-37.036v-192.581c0-20.44 16.583-37.036 37.034-37.036h15.864v-131.833c0-14.285 11.614-25.911 25.91-25.911h427.527c14.285 0 25.911 11.626 25.911 25.911v131.833h15.865c20.447 0 37.032 16.585 37.032 37.032v192.578c0 20.465-16.574 37.036-37.025 37.036zM298.236 729.899h300.127v-132.564c0-7.158 5.804-12.956 12.954-12.956h114.45v-64.908h-427.531v210.428zM560.724 376.623c-25.457 8.869-42.068 22.949-42.068 45.243 0 26.149 21.822 46.149 57.984 46.149 17.269 0 30.011-3.632 39.095-7.728l-7.728-27.955c-6.133 2.948-17.046 7.274-32.051 7.274s-22.279-6.824-22.279-14.782c0-9.779 8.642-14.095 28.416-21.595 27.048-10.010 39.782-24.101 39.782-45.696 0-25.699-19.781-47.525-61.842-47.525-17.503 0-34.779 4.542-43.418 9.326l7.040 28.643c9.326-4.769 23.651-9.552 38.422-9.552 15.931 0 24.327 6.594 24.327 16.6 0.007 9.541-7.267 15.009-25.68 21.599zM502.085 341.386v-29.111h-95.729v153.256h34.798v-124.145h60.932zM295.199 312.275h-39.557l44.332 77.55-42.747 75.714h39.793l13.406-27.97c4.548-9.322 7.961-16.816 11.602-25.472h0.442c3.648 9.779 6.6 16.6 10.454 25.472l12.962 27.97h39.559l-43.199-74.796 45.478-78.453h-40.009l-13.876 27.743c-5.675 10.672-9.315 18.637-13.636 27.505h-0.452c-3.188-8.869-7.044-16.834-11.823-27.505l-12.727-27.758zM725.767 128.010h-427.531v124.815h427.527v-124.815h0.004zM726.001 312.275l-13.875 27.743c-5.68 10.683-9.318 18.637-13.637 27.505h-0.443c-3.189-8.869-7.058-16.823-11.842-27.505l-12.716-27.743h-39.57l44.332 77.55-42.745 75.714h39.793l13.422-27.97c4.542-9.322 7.947-16.816 11.589-25.472h0.457c3.628 9.779 6.576 16.6 10.448 25.472l12.957 27.97h39.567l-43.198-74.796 45.469-78.453-40.009-0.015z" />
<glyph unicode="&#xe916;" glyph-name="filter_fill" d="M729.556 633.956c-3.533 8.090-9.648 12.135-18.373 12.14h-398.374c-8.714 0-14.837-4.050-18.364-12.14-3.525-8.504-2.074-15.771 4.359-21.786l153.442-153.437v-151.259c0-5.402 1.971-10.064 5.914-14.014l79.671-79.667c3.738-3.942 8.404-5.917 14.007-5.917 2.491 0 5.083 0.523 7.779 1.558 8.097 3.529 12.145 9.648 12.145 18.363v230.938l153.435 153.436c6.437 6.015 7.885 13.28 4.359 21.787z" />
<glyph unicode="&#xe917;" glyph-name="filter" d="M775.314 719.238h-526.629c-17.554 0-29.257-11.703-29.257-29.257s11.703-29.257 29.257-29.257h14.629l160.914-283.794v-242.834l175.543 87.771v155.063l160.914 283.794h14.629c17.554 0 29.257 11.703 29.257 29.257s-11.703 29.257-29.257 29.257zM541.257 391.558v-134.583l-58.514-29.257v163.84l-152.137 269.166h362.789l-152.137-269.166z" />
<glyph unicode="&#xe918;" glyph-name="fls" d="M219.429 652.191v-103.62c0-42.858 34.854-77.714 77.714-77.714h25.905v-181.332h-103.619v-51.811c0-57.132 46.484-103.618 103.619-103.618h310.856c57.136 0 103.621 46.486 103.621 103.618v233.143h25.904c42.862 0 77.714 34.856 77.714 77.714v207.239h-621.714v-103.619zM297.143 522.667c-14.287 0-25.905 11.619-25.905 25.904v51.811h51.809v-77.714h-25.905zM323.047 185.906c-28.574 0-51.809 23.234-51.809 51.807h259.047c0-4.261 0.336-8.43 0.841-12.551 0.102-0.816 0.234-1.62 0.366-2.428v0l0.205-1.273c0.468-2.955 1.061-5.87 1.777-8.748l0.212-0.87c0.234-0.947 0.464-1.891 0.742-2.827 0.998-3.449 2.15-6.832 3.485-10.119 0.037-0.095 0.073-0.19 0.106-0.285 0.037-0.102 0.073-0.208 0.11-0.311 0.080-0.238 0.165-0.479 0.263-0.713 1.543-3.65 3.339-7.172 5.274-10.606 0.091-0.165 0.172-0.34 0.252-0.512 0.088-0.19 0.176-0.38 0.282-0.563h-221.154zM685.714 237.713c0-28.573-23.237-51.807-51.811-51.807s-51.807 23.234-51.807 51.807v51.811h-207.239v310.857h310.857v-362.668zM789.332 548.571c0-14.285-11.615-25.904-25.904-25.904h-25.904v77.714h51.807v-51.811zM271.238 704h518.094v-51.809h-518.094v51.809zM426.679 522.667h129.525v-51.811h-129.525v51.811zM633.918 419.042h-207.239v-51.811h207.239v51.811z" />
<glyph unicode="&#xe919;" glyph-name="free" d="M762.778 505.032h-379.385v38.579c0 70.928 57.68 128.606 128.607 128.606 46.727 0 87.395-25.245 109.883-62.652l0.834 0.628c7.651-10.784 19.562-18.307 33.73-18.307 23.073 0 41.797 18.725 41.797 41.795 0 5.643-1.17 11.035-3.218 15.966l-0.461 0.919c-1.84 4.179-4.473 7.857-7.607 11.159-38.078 56.468-101.731 94.084-174.958 94.084-117.197 0-212.199-95.003-212.199-212.198v-38.579h-38.577c-23.071 0-41.795-18.725-41.795-41.794v-334.369c0-23.069 18.725-41.794 41.795-41.794h501.554c23.069 0 41.794 18.725 41.794 41.794v334.369c0 23.073-18.725 41.794-41.794 41.794zM512 212.461c-46.186 0-83.591 37.409-83.591 83.595 0 46.182 37.405 83.591 83.591 83.591s83.591-37.409 83.591-83.591c0-46.186-37.409-83.595-83.591-83.595z" />
<glyph unicode="&#xe91a;" glyph-name="menu9" d="M361.535 684.756c0-39.242-31.812-71.053-71.053-71.053s-71.054 31.812-71.054 71.053c0 39.242 31.812 71.054 71.054 71.054s71.053-31.812 71.053-71.054zM601.359 684.756c0-39.242-31.813-71.053-71.055-71.053s-71.055 31.812-71.055 71.053c0 39.242 31.813 71.054 71.055 71.054s71.055-31.812 71.055-71.054zM770.088 613.703c39.241 0 71.055 31.812 71.055 71.053s-31.813 71.054-71.055 71.054c-39.241 0-71.051-31.812-71.051-71.054s31.81-71.053 71.051-71.053zM361.535 444.934c0-39.241-31.812-71.055-71.053-71.055s-71.054 31.813-71.054 71.055c0 39.241 31.812 71.055 71.054 71.055s71.053-31.813 71.053-71.055zM530.304 373.88c39.241 0 71.055 31.813 71.055 71.055s-31.813 71.055-71.055 71.055c-39.241 0-71.055-31.813-71.055-71.055s31.813-71.055 71.055-71.055zM841.143 444.934c0-39.241-31.813-71.055-71.055-71.055s-71.051 31.813-71.051 71.055c0 39.241 31.81 71.055 71.051 71.055s71.055-31.813 71.055-71.055zM290.482 134.077c39.242 0 71.053 31.813 71.053 71.055s-31.812 71.055-71.053 71.055c-39.242 0-71.054-31.813-71.054-71.055s31.812-71.055 71.054-71.055zM601.359 205.132c0-39.241-31.813-71.055-71.055-71.055s-71.055 31.813-71.055 71.055c0 39.241 31.813 71.055 71.055 71.055s71.055-31.813 71.055-71.055zM770.088 134.077c39.241 0 71.055 31.813 71.055 71.055s-31.813 71.055-71.055 71.055c-39.241 0-71.051-31.813-71.051-71.055s31.81-71.055 71.051-71.055z" />
<glyph unicode="&#xe91b;" glyph-name="monitor" d="M790.243 668.34c-9.549 9.548-21.021 14.327-34.436 14.327h-487.617c-13.409 0-24.885-4.779-34.44-14.327-9.549-9.551-14.322-21.026-14.322-34.437v-331.583c0-13.414 4.773-24.887 14.322-34.443 9.555-9.545 21.031-14.318 34.44-14.318h165.792c0-7.717-1.627-15.649-4.879-23.771-3.248-8.126-6.499-15.236-9.75-21.328-3.248-6.1-4.875-10.562-4.875-13.407 0-5.281 1.931-9.863 5.793-13.711 3.858-3.866 8.43-5.804 13.711-5.804h156.039c5.281 0 9.856 1.935 13.714 5.804 3.866 3.847 5.793 8.43 5.793 13.711 0 2.637-1.627 7.058-4.879 13.253-3.251 6.192-6.502 13.414-9.75 21.636-3.251 8.229-4.879 16.102-4.879 23.618h165.793c13.407 0 24.883 4.773 34.428 14.318 9.552 9.556 14.329 21.029 14.329 34.443v331.583c0.004 13.41-4.776 24.885-14.329 34.437zM765.561 380.342c0-2.644-0.965-4.926-2.893-6.857-1.935-1.927-4.22-2.889-6.861-2.889h-487.617c-2.64 0-4.926 0.962-6.856 2.889-1.929 1.938-2.895 4.213-2.895 6.857v253.561c0 2.642 0.963 4.926 2.895 6.856 1.931 1.927 4.217 2.895 6.856 2.895h487.624c2.637 0 4.926-0.965 6.853-2.895s2.893-4.215 2.893-6.856v-253.561z" />
<glyph unicode="&#xe91c;" glyph-name="notification_active" d="M811.604 440.732c97.104 0 175.824 78.72 175.824 175.825s-78.72 175.824-175.824 175.824c-97.104 0-175.824-78.719-175.824-175.824s78.72-175.825 175.824-175.825zM115.101 616.557l450.348-0.003c0-17.068 1.737-33.729 5.047-49.819h-407.143l270.107-238.727c3.679-3.255 14.149-3.255 17.832 0l161.785 142.991c9.893-13.469 21.124-25.896 33.496-37.083l-161.715-143.013c-24.444-21.617-60.518-21.617-84.966 0l-276.398 244.436v-350.566h637.764v190.782c16.252-3.379 33.093-5.153 50.348-5.153v-193.931c0-22.572-19.149-41.52-41.958-41.52h-654.545c-22.809 0-41.958 18.948-41.958 41.52v398.569c0 22.57 19.149 41.518 41.958 41.518z" />
<glyph unicode="&#xe91d;" glyph-name="notification" d="M187.844 646.096c-22.592 0-41.558-18.767-41.558-41.122v-394.772c0-22.356 18.966-41.125 41.558-41.125h648.31c22.594 0 41.56 18.768 41.56 41.125v394.772c0 22.355-18.966 41.122-41.56 41.122h-648.31zM235.636 596.749h552.727l-267.531-236.451c-3.646-3.226-14.018-3.226-17.664 0l-267.532 236.451zM196.156 565.649l273.765-242.107c24.214-21.413 59.944-21.413 84.158 0l273.766 242.107v-347.227h-631.69v347.227z" />
<glyph unicode="&#xe91e;" glyph-name="pag_arrow_left" d="M572.372 289.188c-15.338-13.147-38.426-11.37-51.569 3.964l-109.714 128c-11.739 13.696-11.739 33.905 0 47.601l109.714 128c13.144 15.335 36.231 17.111 51.569 3.967 15.334-13.145 17.112-36.231 3.964-51.569l-89.311-104.199 89.311-104.199c13.147-15.334 11.37-38.422-3.964-51.566z" />
<glyph unicode="&#xe91f;" glyph-name="pag_arrow_right" d="M415.056 582.433c15.338 13.145 38.426 11.369 51.569-3.967l109.714-127.999c11.739-13.696 11.739-33.905 0-47.601l-109.714-128c-13.144-15.334-36.231-17.112-51.569-3.968-15.334 13.144-17.112 36.231-3.964 51.569l89.311 104.199-89.311 104.199c-13.147 15.334-11.37 38.422 3.964 51.567z" />
<glyph unicode="&#xe920;" glyph-name="plus" d="M493.67 682.667c-21.881 0-39.618-17.738-39.618-39.619v-158.467h-158.434c-21.881 0-39.619-17.737-39.619-39.618s17.738-39.618 39.619-39.618h158.434v-158.49c0-21.881 17.737-39.618 39.618-39.618s39.618 17.737 39.618 39.618v158.49h158.523c21.881 0 39.618 17.737 39.618 39.618s-17.737 39.618-39.618 39.618h-158.523v158.467c0 21.881-17.737 39.619-39.618 39.619z" />
<glyph unicode="&#xe921;" glyph-name="project" d="M720.896 534.381l-98.911 98.91-222.547-222.546 98.911-98.911 222.547 222.547zM770.352 583.837l1.596 1.596 1.547 100.456-100.454-1.546-1.6-1.597 98.911-98.909zM630.265 740.479c8.566 8.569 20.134 13.465 32.252 13.651l133.939 2.060c26.31 0.405 47.743-21.028 47.341-47.338l-2.062-133.942c-0.187-12.115-5.081-23.683-13.651-32.252l-123.982-123.982-32.719-196.311c-10.911-65.465-91.256-91.214-138.184-44.283l-199.702 199.691c-0.279 0.279-0.553 0.561-0.823 0.844l-66.985 66.987c-46.93 46.927-21.182 127.273 44.283 138.184l196.317 32.72 123.975 123.971zM421.207 531.422l-99.735-16.624c-9.353-1.557-13.031-13.037-6.327-19.738l34.849-34.851 71.212 71.214zM547.808 262.382l34.848-34.844c6.702-6.705 18.181-3.026 19.738 6.324l16.621 99.727-71.207-71.207zM292.29 336.566c-13.657 13.655-35.798 13.655-49.455 0-13.657-13.658-13.657-35.798 0-49.456l131.882-131.881c13.655-13.658 35.798-13.658 49.452 0 13.658 13.658 13.658 35.798 0 49.456l-131.879 131.881zM193.378 221.171c13.657 13.655 35.798 13.655 49.455 0l65.94-65.942c13.657-13.655 13.657-35.798 0-49.456-13.657-13.655-35.798-13.655-49.455 0l-65.94 65.942c-13.657 13.658-13.657 35.798 0 49.456z" />
<glyph unicode="&#xe922;" glyph-name="reload" d="M219.429 426.667c0-160.914 131.657-292.571 292.571-292.571s292.571 131.657 292.571 292.571c0 160.914-131.657 292.571-292.571 292.571v-58.514c128.731 0 234.057-105.326 234.057-234.057s-105.326-234.057-234.057-234.057c-128.731 0-234.057 105.326-234.057 234.057 0 55.589 23.406 119.954 58.514 163.84v-76.069h58.514v175.543h-175.543v-58.514h73.143c-43.886-55.589-73.143-131.657-73.143-204.8z" />
<glyph unicode="&#xe923;" glyph-name="rent" d="M668.734 478.891h156.734c28.891 0 52.246-23.406 52.246-52.246v-365.714h-731.429v104.492h104.49v574.693c0 28.839 23.353 52.245 52.245 52.245h313.468c28.891 0 52.246-23.406 52.246-52.245v-261.225zM355.265 165.423h208.98v522.448h-208.98v-522.448zM668.734 165.423h104.492v208.98h-104.492v-208.98zM407.501 635.664h104.488v-104.49h-104.488v104.49zM511.989 478.913h-104.488v-104.488h104.488v104.488zM407.501 322.201h104.488v-104.492h-104.488v104.492z" />
<glyph unicode="&#xe924;" glyph-name="search_big" d="M841.713 126.167l-174.084 181.051c44.76 53.208 69.285 120.155 69.285 189.85 0 162.834-132.48 295.314-295.314 295.314s-295.314-132.48-295.314-295.314c0-162.834 132.48-295.314 295.314-295.314 61.129 0 119.384 18.439 169.19 53.438l175.404-182.426c7.329-7.614 17.192-11.813 27.758-11.813 10.002 0 19.493 3.814 26.693 10.748 15.305 14.727 15.792 39.146 1.068 54.466zM441.6 715.343c120.36 0 218.277-97.916 218.277-218.276s-97.916-218.277-218.277-218.277c-120.36 0-218.276 97.916-218.276 218.277s97.916 218.276 218.276 218.276z" />
<glyph unicode="&#xe925;" glyph-name="search_small" d="M778.229 283.314l-134.579 134.583c8.777 26.328 14.629 52.659 14.629 81.916 0 119.952-99.474 219.425-219.425 219.425-119.952 0-219.425-99.472-219.425-219.425 0-119.951 99.472-219.425 219.425-219.425 29.257 0 55.589 5.851 78.991 14.629l134.583-134.579c17.554-17.554 40.96-26.331 61.436-26.331 23.406 0 43.886 8.777 61.44 26.331 38.034 32.183 38.034 90.693 2.926 122.876zM277.942 499.814c0 87.77 73.141 160.912 160.912 160.912 87.768 0 160.911-73.141 160.911-160.912 0-87.768-73.143-160.911-160.911-160.911-87.77 0-160.912 73.143-160.912 160.911zM737.269 201.398c-11.703-11.703-29.257-11.703-40.956 0l-125.806 122.876c14.629 11.703 29.257 26.331 40.96 40.96l125.802-125.806c11.703-8.777 11.703-26.328 0-38.031z" />
<glyph unicode="&#xe926;" glyph-name="sell" d="M720.98 182.055v156.734h52.246c20.268 0 38.711 11.758 47.331 30.095 8.624 18.392 5.8 40.071-7.208 55.589l-261.226 313.469c-19.851 23.824-60.394 23.824-80.245 0l-261.226-313.469c-13.009-15.568-15.778-37.252-7.21-55.589 8.62-18.337 27.063-30.095 47.334-30.095h52.245v-156.734h-156.735v-104.488h731.429v104.488h-156.734zM616.488 182.055h-208.976v156.734h208.976v-156.734zM362.318 443.281l149.682 179.617 149.683-179.617h-299.365z" />
<glyph unicode="&#xe927;" glyph-name="settings" d="M737.28 561.25c14.629-20.48 23.406-43.886 29.257-67.291l38.034-20.48v-93.623l-38.034-17.554c-8.777-23.406-17.554-46.811-29.257-67.291l14.629-40.96-67.291-67.291-40.96 14.629c-20.48-14.629-43.886-23.406-67.291-29.257l-17.554-38.034h-93.623l-17.554 38.034c-23.406 8.777-46.811 17.554-67.291 29.257l-40.96-14.629-67.291 67.291 14.629 40.96c-14.629 20.48-23.406 43.886-29.257 67.291l-38.034 17.554v93.623l38.034 17.554c8.777 23.406 17.554 46.811 29.257 67.291l-14.629 40.96 67.291 67.291 38.034-14.629c20.48 14.629 43.886 23.406 67.291 29.257l20.48 38.034h93.623l17.554-35.109c23.406-8.777 46.811-17.554 67.291-29.257l40.96 14.629 67.291-67.291-14.629-40.96zM716.8 400.336l29.257 14.629v23.406l-29.257 14.629-5.851 17.554c-2.926 26.331-14.629 49.737-29.257 73.143l-8.777 11.703 11.703 32.183-14.629 14.629-32.183-11.703-11.703 8.777c-23.406 14.629-46.811 23.406-73.143 29.257l-14.629 2.926-14.629 29.257h-23.406l-14.629-29.257-14.629-5.851c-26.331-2.926-49.737-14.629-73.143-29.257l-11.703-8.777-32.183 11.703-14.629-14.629 8.777-32.183-8.777-11.703c-14.629-23.406-23.406-46.811-29.257-73.143l-2.926-14.629-29.257-14.629v-23.406l29.257-14.629 5.851-17.554c2.926-26.331 14.629-49.737 29.257-73.143l8.777-11.703-11.703-32.183 14.629-14.629 32.183 11.703 11.703-8.777c23.406-14.629 46.811-23.406 73.143-29.257l14.629-2.926 14.629-29.257h23.406l14.629 29.257 17.554 5.851c26.331 2.926 49.737 14.629 73.143 29.257l11.703 8.777 32.183-11.703 14.629 14.629-11.703 32.183 8.777 11.703c14.629 23.406 23.406 46.811 29.257 73.143l2.926 14.629zM394.964 426.638c0 64.366 52.663 117.029 117.029 117.029s117.029-52.663 117.029-117.029c0-64.366-52.663-117.029-117.029-117.029s-117.029 52.663-117.029 117.029zM453.478 426.638c0-32.183 26.331-58.514 58.514-58.514s58.514 26.331 58.514 58.514c0 32.183-26.331 58.514-58.514 58.514s-58.514-26.331-58.514-58.514z" />
<glyph unicode="&#xe928;" glyph-name="submenu" d="M580.963 684.756c0-39.242-31.81-71.053-71.051-71.053s-71.055 31.812-71.055 71.053c0 39.242 31.813 71.054 71.055 71.054s71.051-31.812 71.051-71.054zM580.963 444.934c0-39.241-31.81-71.055-71.051-71.055s-71.055 31.813-71.055 71.055c0 39.241 31.813 71.055 71.055 71.055s71.051-31.813 71.051-71.055zM509.912 134.077c39.241 0 71.051 31.813 71.051 71.055s-31.81 71.055-71.051 71.055c-39.241 0-71.055-31.813-71.055-71.055s31.813-71.055 71.055-71.055z" />
<glyph unicode="&#xe929;" glyph-name="user" d="M604.211 466.899c-25.944-17.335-56.441-26.587-87.643-26.587-41.819 0.059-81.909 16.695-111.481 46.267s-46.209 69.665-46.266 111.483c0 31.2 9.252 61.699 26.587 87.64 17.331 25.942 41.969 46.161 70.795 58.1 28.822 11.939 60.54 15.063 91.143 8.977 30.599-6.087 58.708-21.111 80.768-43.173s37.087-50.169 43.173-80.769c6.085-30.6 2.962-62.317-8.978-91.143-11.937-28.826-32.157-53.46-58.097-70.795zM578.088 690.163c-18.209 12.167-39.618 18.661-61.52 18.661v-0.063c-29.352-0.033-57.49-11.705-78.252-32.457-20.758-20.752-32.439-48.889-32.483-78.242 0.004-21.9 6.502-43.307 18.673-61.516 12.171-18.205 29.469-32.395 49.704-40.773s42.5-10.565 63.978-6.29c21.478 4.275 41.209 14.822 56.693 30.31s26.028 35.218 30.299 56.7c4.272 21.48 2.077 43.745-6.305 63.977s-22.576 37.526-40.788 49.693zM516.571 364.898c-137.904 0-250.093-112.19-250.093-250.094h-47.049c-0.105 39.036 7.533 77.707 22.473 113.77 14.94 36.067 36.884 68.809 64.564 96.336 41.556 41.552 94.499 69.851 152.139 81.317 57.637 11.461 117.383 5.577 171.677-16.911s100.699-60.573 133.35-109.436c32.651-48.859 50.077-106.309 50.081-165.076h-47.049c0 137.904-112.19 250.094-250.094 250.094z" />
<glyph unicode="&#xe92a;" glyph-name="users" d="M360.821 755.81h25.077c67.533 0 122.525-54.813 122.525-122.344v-116.435c0-20.239-8.598-39.047-23.468-52.304v-95.653c25.26-12.72 96.015-50.695 161.931-104.792 17.2-13.97 27.048-34.929 27.048-57.139v-79.711c0-9.852-7.881-17.733-17.733-17.733h-565.325c-9.852 0-17.733 7.881-17.733 17.733v79.711c0 22.389 9.852 43.169 26.69 57.139 65.919 54.096 136.674 91.893 161.931 104.792v95.653c-14.867 13.257-23.466 32.245-23.466 52.304v116.255c0 67.531 54.992 122.523 122.523 122.523zM624.318 237.055c-70.576 58.039-147.244 96.731-161.931 103.896-7.881 3.763-12.899 11.824-12.72 20.601v112.132c0 5.914 2.867 11.465 7.881 14.691 9.852 6.448 15.587 17.196 15.587 28.837v116.255c0 48.006-39.051 87.056-87.058 87.056h-25.077c-48.006 0-87.056-39.050-87.056-87.056v-116.435c0-11.641 5.911-22.389 15.584-28.837 4.837-3.226 7.882-8.777 7.882-14.691v-112.132c0-8.777-5.016-16.658-12.897-20.601-14.689-7.164-91.176-45.857-161.931-103.896-8.777-7.164-13.972-18.092-13.972-29.733v-61.798h529.678v61.978c0 11.461-5.014 22.389-13.97 29.733zM805.047 316.766c21.317-10.924 74.339-39.943 123.597-80.428 14.153-11.641 22.213-28.837 22.213-47.287v-61.623c0-9.849-7.881-17.733-17.733-17.733s-17.733 7.885-17.733 17.733v61.623c0 7.702-3.405 15.045-9.315 19.88-54.276 44.423-113.031 74.16-124.314 79.715-7.347 3.58-12.182 11.282-12.182 19.522v86.7c0 5.91 2.867 11.465 7.881 14.687 6.448 4.301 10.211 11.286 10.211 18.988v89.743c0 34.929-28.482 63.232-63.232 63.232h-19.346c-34.929 0-63.232-28.482-63.232-63.232v-89.743c0-7.702 3.763-14.687 10.211-18.988 4.835-3.222 7.881-8.777 7.881-14.687v-70.755c0-9.852-7.881-17.733-17.733-17.733s-17.733 7.881-17.733 17.733v62.336c-11.465 10.928-18.092 25.973-18.092 42.094v89.743c0 54.455 44.244 98.7 98.699 98.7h19.346c54.455 0 98.699-44.245 98.699-98.7v-89.743c0-16.121-6.627-31.166-18.092-42.094v-69.683z" />
<glyph unicode="&#xe92b;" glyph-name="view" horiz-adv-x="1061" d="M468.462 609.524h-134.132c-2.866 0-5.187-2.322-5.187-5.187v-134.132c0-2.867 2.322-5.189 5.187-5.189h134.132c2.867 0 5.189 2.322 5.189 5.189v134.132c0 2.866-2.322 5.187-5.189 5.187zM726.228 609.524h-134.133c-2.864 0-5.186-2.322-5.186-5.187v-134.132c0-2.867 2.322-5.189 5.186-5.189h134.133c2.867 0 5.186 2.322 5.186 5.189v134.132c0 2.866-2.319 5.187-5.186 5.187zM334.33 351.747h134.132c2.867 0 5.189-2.322 5.189-5.186v-134.133c0-2.867-2.322-5.186-5.189-5.186h-134.132c-2.866 0-5.187 2.319-5.187 5.186v134.133c0 2.864 2.322 5.186 5.187 5.186zM726.228 351.747h-134.133c-2.864 0-5.186-2.322-5.186-5.186v-134.133c0-2.867 2.322-5.186 5.186-5.186h134.133c2.867 0 5.186 2.319 5.186 5.186v134.133c0 2.864-2.319 5.186-5.186 5.186z" />
</font>
</defs>
</svg>
