<?xml version="1.0" encoding="utf-8"?>
<!-- Generator: Adobe Illustrator 16.0.3, SVG Export Plug-In . SVG Version: 6.00 Build 0)  -->
<!DOCTYPE svg PUBLIC "-//W3C//DTD SVG 1.1//EN" "http://www.w3.org/Graphics/SVG/1.1/DTD/svg11.dtd">
<svg version="1.1" id="Layer_2" xmlns="http://www.w3.org/2000/svg" xmlns:xlink="http://www.w3.org/1999/xlink" x="0px" y="0px"
     width="64px" height="64px" viewBox="0 0 64 64" enable-background="new 0 0 64 64" xml:space="preserve">
<path fill="#A1ADB8" d="M58,37H6c-1.1,0-2,0.9-2,2v7c0,1.1,0.9,2,2,2h52c1.1,0,2-0.9,2-2v-7C60,37.9,59.1,37,58,37z M57,44
	c0,0.5-0.5,1-1,1H8c-0.5,0-1-0.5-1-1v-3c0-0.5,0.5-1,1-1h48c0.5,0,1,0.5,1,1V44z"/>
    <path fill="#A1ADB8" d="M58,50H6c-1.1,0-2,0.9-2,2v7c0,1.1,0.9,2,2,2h52c1.1,0,2-0.9,2-2v-7C60,50.9,59.1,50,58,50z M57,57
	c0,0.5-0.5,1-1,1H8c-0.5,0-1-0.5-1-1v-3c0-0.5,0.5-1,1-1h48c0.5,0,1,0.5,1,1V57z"/>
    <path fill="#A1ADB8" d="M58,2H6C4.9,2,4,2.9,4,4v29c0,1.1,0.9,2,2,2h52c1.1,0,2-0.9,2-2V4C60,2.9,59.1,2,58,2z M57,31
	c0,0.5-0.5,1-1,1H8c-0.5,0-1-0.5-1-1V6c0-0.5,0.5-1,1-1h48c0.5,0,1,0.5,1,1V31z"/>
    <rect x="14" y="8" fill="#A1ADB8" width="36" height="3"/>
    <rect x="14" y="20" fill="#A1ADB8" width="36" height="3"/>
    <rect x="14" y="14" fill="#A1ADB8" width="23" height="3"/>
    <rect x="14" y="26" fill="#A1ADB8" width="23" height="3"/>
</svg>
