<?xml version="1.0" encoding="utf-8"?>
<!-- Generator: Adobe Illustrator 16.0.3, SVG Export Plug-In . SVG Version: 6.00 Build 0)  -->
<!DOCTYPE svg PUBLIC "-//W3C//DTD SVG 1.1//EN" "http://www.w3.org/Graphics/SVG/1.1/DTD/svg11.dtd">
<svg version="1.1" xmlns="http://www.w3.org/2000/svg" xmlns:xlink="http://www.w3.org/1999/xlink" x="0px" y="0px" width="64px"
	 height="64px" viewBox="0 0 64 64" enable-background="new 0 0 64 64" xml:space="preserve">
<g id="Layer_3" display="none">
	<image display="inline" overflow="visible" width="64" height="64" xlink:href="2641C2ED.jpg" >
	</image>
</g>
	<g id="Layer_2">
	<path fill="#A1ADB8" d="M58,2H6C4.9,2,4,2.9,4,4v12c0,1.1,0.9,2,2,2h52c1.1,0,2-0.9,2-2V4C60,2.9,59.1,2,58,2z M57,14
		c0,0.5-0.5,1-1,1H8c-0.5,0-1-0.5-1-1V6c0-0.5,0.5-1,1-1h48c0.5,0,1,0.5,1,1V14z"/>
		<g>
		<path fill="#A1ADB8" d="M15.3,13h-1.9v-0.9h0c-0.4,0.7-1.1,1.1-1.9,1.1c-0.6,0-1.1-0.2-1.5-0.5c-0.4-0.4-0.5-0.8-0.5-1.4
			c0-1.3,0.7-2,2.2-2.2l1.8-0.2c0-0.7-0.4-1.1-1.2-1.1c-0.8,0-1.5,0.2-2.2,0.7V6.9c0.3-0.1,0.7-0.3,1.1-0.4s0.9-0.2,1.3-0.2
			c1.9,0,2.8,0.9,2.8,2.8V13z M13.4,10.4V9.9l-1.2,0.2c-0.7,0.1-1,0.4-1,0.9c0,0.2,0.1,0.4,0.2,0.6c0.2,0.1,0.4,0.2,0.6,0.2
			c0.4,0,0.7-0.1,0.9-0.4C13.2,11.1,13.4,10.8,13.4,10.4z"/>
	</g>
		<g>
		<path fill="#A1ADB8" d="M42.6,45h-2.9v-1.4h0c-0.7,1.1-1.7,1.7-3,1.7c-1,0-1.7-0.3-2.3-0.8s-0.8-1.3-0.8-2.2
			c0-1.9,1.1-3.1,3.4-3.4l2.7-0.4c0-1.1-0.6-1.6-1.8-1.6c-1.2,0-2.3,0.4-3.4,1.1v-2.3c0.4-0.2,1-0.4,1.8-0.6s1.4-0.3,2-0.3
			c2.9,0,4.3,1.4,4.3,4.3V45z M39.7,40.9v-0.7l-1.8,0.2c-1,0.1-1.5,0.6-1.5,1.4c0,0.4,0.1,0.6,0.4,0.9s0.6,0.3,1,0.3
			c0.6,0,1.1-0.2,1.4-0.6S39.7,41.5,39.7,40.9z"/>
	</g>
		<path fill="#A1ADB8" d="M40.5,25c-8,0-14.5,6.5-14.5,14.5c0,3.1,1,6,2.6,8.3L16.7,59.7c-1,1-1,2.6,0,3.5c0.5,0.5,1.1,0.7,1.8,0.7
		s1.3-0.2,1.8-0.7l11.9-11.9c2.4,1.7,5.2,2.6,8.3,2.6c8,0,14.5-6.5,14.5-14.5C55,31.5,48.5,25,40.5,25z M40.5,50
		C34.7,50,30,45.3,30,39.5C30,33.7,34.7,29,40.5,29C46.3,29,51,33.7,51,39.5C51,45.3,46.3,50,40.5,50z"/>
		<path fill="#A1ADB8" d="M58,20H6c-1.1,0-2,0.9-2,2v35c0,1.1,0.9,2,2,2h15.5l3-3H8c-0.5,0-1-0.5-1-1V24c0-0.5,0.5-1,1-1h48
		c0.5,0,1,0.5,1,1v31c0,0.5-0.5,1-1,1H31.5l-3,3H58c1.1,0,2-0.9,2-2V22C60,20.9,59.1,20,58,20z"/>
		<g>
		<path opacity="0.5" fill="#A1ADB8" d="M30.5,57l-5,5H58c1.1,0,2-0.9,2-2v-3H30.5z"/>
			<path opacity="0.5" fill="#A1ADB8" d="M18.7,61.7l4.7-4.7H4v3c0,1.1,0.9,2,2,2h12.5C18.6,61.9,18.6,61.8,18.7,61.7z"/>
	</g>
</g>
</svg>
