<?xml version="1.0" encoding="utf-8"?>
<!-- Generator: Adobe Illustrator 16.0.3, SVG Export Plug-In . SVG Version: 6.00 Build 0)  -->
<!DOCTYPE svg PUBLIC "-//W3C//DTD SVG 1.1//EN" "http://www.w3.org/Graphics/SVG/1.1/DTD/svg11.dtd">
<svg version="1.1" xmlns="http://www.w3.org/2000/svg" xmlns:xlink="http://www.w3.org/1999/xlink" x="0px" y="0px" width="64px"
     height="64px" viewBox="0 0 64 64" enable-background="new 0 0 64 64" xml:space="preserve">
<g id="Layer_1">
</g>
    <g id="Layer_2">
	<path fill="#A1ADB8" d="M49,20c0,1.1-0.9,2-2,2H17c-1.1,0-2-0.9-2-2V8c0-1.1,0.9-2,2-2h30c1.1,0,2,0.9,2,2V20z"/>
        <path opacity="0.7" fill="#A1ADB8" d="M49,38c0,1.1-0.9,2-2,2H17c-1.1,0-2-0.9-2-2V26c0-1.1,0.9-2,2-2h30c1.1,0,2,0.9,2,2V38z"/>
        <path opacity="0.4" fill="#A1ADB8" d="M49,56c0,1.1-0.9,2-2,2H17c-1.1,0-2-0.9-2-2V44c0-1.1,0.9-2,2-2h30c1.1,0,2,0.9,2,2V56z"/>
</g>
</svg>
