<svg xmlns="http://www.w3.org/2000/svg" width="1000" height="1000">
    <path d="M16 476.8V8.5H51 85.9V441.8 875.1H519.2 952.4V910 945H484.2 16ZM16 476.8V8.5H51 85.9V441.8 875.1H519.2 952.4V910 945H484.2 16ZM273 315.7C216.6 305.6 174.3 260.5 169.5 205.2 164.5 147.3 209 90.9 269.1 79.5 289.8 75.5 298.2 75.5 318.5 79.7 361.9 88.5 396.1 118 411.2 159.7 433.9 222.1 395.3 292.4 327.7 312.3 313.1 316.6 287.2 318.2 273 315.7ZM231 520.4C222.5 516.7 211 505.1 207.4 496.5 203.2 486.3 203.8 467.5 208.7 457.8 216 443.5 233.9 432.2 249.3 432.3 273.3 432.3 295.7 455.3 295.6 479.9 295.6 488 287.2 506.1 280.5 512.1 269 522.7 245.4 526.7 231 520.4ZM221.7 833.6C191.5 825.4 162 801 148.8 773 138.6 751.4 136 738.4 137.3 715.4 138.7 692.9 144.1 675.7 155.1 659.1 188.7 608.4 252.9 591.9 306.4 620 374.6 655.8 388.7 748.5 334.1 802.8 318.6 818.2 300.8 828.7 281.8 833.7 266.3 837.7 236.9 837.7 221.7 833.6ZM473.3 837.1C457.6 832.1 448.6 826.4 437.7 814.5 412.9 787.6 409.3 747.1 429 716.6 444.4 692.8 468.4 679.8 496.9 679.8 506 679.9 516.9 681.3 522.3 683.3 557.9 696 579.7 729.2 577 766.6 573.3 817.4 521.6 852.6 473.3 837.1ZM490 542.3C443.8 531.4 416.4 482.6 431.4 438 444.4 399.6 483.7 375.8 521.6 383.5 548.1 389 570.2 406.1 581.3 429.8 586.3 440.3 587 444.5 587 463 587 481.5 586.3 485.7 581.3 496.2 564.9 531.2 526.2 550.8 490 542.3ZM750.4 838.9C737 835.6 717.5 824.1 709.4 814.8 705.3 810.1 698.9 800 695.3 792.4 689.5 780.3 688.7 776.5 688.8 760.7 688.9 737 694.4 722.6 710.2 705.6 735.6 678.1 773.9 671.6 806.7 689 865.2 720.2 862.8 804.6 802.6 833.1 788 840.1 765 842.6 750.4 838.9ZM756.1 573.9C744.3 571.2 729.2 557.7 724.6 545.6 709.5 506.2 753.5 468.7 789.8 490.1 816.1 505.5 820 542.2 797.5 562.5 785 573.9 772 577.4 756.1 573.9ZM781.9 380.2C779.6 379.7 772.4 378.2 766 377 759.6 375.7 746.3 370.8 736.5 366.1 722.1 359.3 715.2 354.2 701.4 340.4 681.4 320.3 670.8 300.9 665.5 275 661.3 254.5 661.3 245.6 665.5 225.1 670.8 199.2 681.4 179.8 701.3 160 729 132.3 757.4 120.3 795.7 120 820.1 119.8 833.6 122.9 856.5 133.8 888 148.8 911.6 175.5 923.6 209.7 929 225.4 929.9 230.8 929.9 250.1 929.9 269.3 929 274.7 923.6 290.4 915.7 312.9 905.4 328.7 887.7 345.2 873.1 358.8 847.8 372.5 828.8 377 817.4 379.7 788.4 381.7 781.9 380.2Z"></path>
</svg>