<?xml version="1.0" encoding="utf-8"?>
<!-- Generator: Adobe Illustrator 21.1.0, SVG Export Plug-In . SVG Version: 6.00 Build 0)  -->
<svg version="1.1" id="Layer_3" xmlns="http://www.w3.org/2000/svg" xmlns:xlink="http://www.w3.org/1999/xlink" x="0px" y="0px"
	 width="64px" height="64px" viewBox="0 0 64 64" style="enable-background:new 0 0 64 64;" xml:space="preserve">
<style type="text/css">
	.st0{opacity:0.5;fill:#A1ADB8;}
	.st1{fill:#A1ADB8;}
</style>
	<g>
	<path class="st0" d="M33,46v5h29c1.1,0,2-0.9,2-2v-3H33z"/>
		<path class="st0" d="M31,46H0v3c0,1.1,0.9,2,2,2h29V46z"/>
</g>
	<path class="st1" d="M2,15c-1.1,0-2,0.9-2,2v29c0,1.1,0.9,2,2,2h29V15H2z M6,27h14v2H6V27z M6,35h14v2H6V35z M25,41H6v-2h19V41z
	 M25,33H6v-2h19V33z M25,25H6v-2h19V25z"/>
	<path class="st1" d="M62,15H33v33h29c1.1,0,2-0.9,2-2V17C64,15.9,63.1,15,62,15z M58,41H39v-2h19V41z M58,37H44v-2h14V37z M58,33H39
	v-2h19V33z M58,29H44v-2h14V29z M58,25H39v-2h19V25z"/>
</svg>
