<svg version="1.1" id="Layer_3" xmlns="http://www.w3.org/2000/svg" xmlns:xlink="http://www.w3.org/1999/xlink" x="0px" y="0px"
	 width="64px" height="64px" viewBox="0 0 64 64" enable-background="new 0 0 64 64" xml:space="preserve">
<g>
	<path fill="# 000000" d="M59,15H5c-1.1,0-2,0.9-2,2v29c0,1.1,0.9,2,2,2h54c1.1,0,2-0.9,2-2V17C61,15.9,60.1,15,59,15z M30.7,35.6
		c-1,1.1-2.4,1.6-4,1.6c-1.6,0-2.9-0.5-3.9-1.6c-1-1-1.5-2.4-1.5-4.1c0-1.8,0.5-3.2,1.5-4.3c1-1.1,2.4-1.6,4.1-1.6
		c1.6,0,2.9,0.5,3.9,1.6c1,1,1.5,2.4,1.5,4.1C32.2,33.1,31.7,34.5,30.7,35.6z M40.2,37L37,32c-0.1-0.1,0,5,0,5h-3V26h3v5v-1
		c0,1,0,0.5,0,1l3-5h3l-3.9,5.2l4.2,5.8H40.2z"/>
		<path fill="# 000000" d="M26.8,27.8c-0.9,0-1.6,0.3-2.1,1c-0.5,0.7-0.8,1.5-0.8,2.6c0,1.1,0.3,2,0.8,2.6c0.5,0.6,1.2,1,2,1
		c0.9,0,1.6-0.3,2.1-0.9c0.5-0.6,0.8-1.5,0.8-2.6c0-1.2-0.2-2.1-0.7-2.7C28.3,28.1,27.6,27.8,26.8,27.8z"/>
</g>
</svg>