<svg version="1.1" id="Layer_2" xmlns="http://www.w3.org/2000/svg" xmlns:xlink="http://www.w3.org/1999/xlink" x="0px" y="0px"
	 width="64px" height="64px" viewBox="0 0 64 64" enable-background="new 0 0 64 64" xml:space="preserve">
<path fill="#000000" d="M16,12c0,1.1-0.9,2-2,2h-1c-1.1,0-2-0.9-2-2V4c0-1.1,0.9-2,2-2h1c1.1,0,2,0.9,2,2V12z"/>
	<path fill="#000000" d="M53,12c0,1.1-0.9,2-2,2h-1c-1.1,0-2-0.9-2-2V4c0-1.1,0.9-2,2-2h1c1.1,0,2,0.9,2,2V12z"/>
	<path fill="#000000" d="M60,8h-5v4c0,2.2-1.8,4-4,4h-1c-2.2,0-4-1.8-4-4V8H18v4c0,2.2-1.8,4-4,4h-1c-2.2,0-4-1.8-4-4V8H4
	c-1.1,0-2,0.9-2,2v49c0,1.1,0.9,2,2,2h56c1.1,0,2-0.9,2-2V10C62,8.9,61.1,8,60,8z M59,57c0,0.5-0.5,1-1,1H6c-0.5,0-1-0.5-1-1V21
	c0-0.5,0.5-1,1-1h52c0.5,0,1,0.5,1,1V57z"/>
	<rect x="49" y="24" fill="#000000" width="6" height="6"/>
	<rect x="49" y="32" fill="#000000" width="6" height="6"/>
	<rect x="49" y="40" fill="#000000" width="6" height="6"/>
	<rect x="41" y="24" fill="#000000" width="6" height="6"/>
	<rect x="41" y="32" fill="#000000" width="6" height="6"/>
	<rect x="41" y="40" fill="#000000" width="6" height="6"/>
	<rect x="41" y="48" fill="#000000" width="6" height="6"/>
	<rect x="33" y="24" fill="#000000" width="6" height="6"/>
	<rect x="33" y="32" fill="#000000" width="6" height="6"/>
	<rect x="33" y="40" fill="#000000" width="6" height="6"/>
	<rect x="33" y="48" fill="#000000" width="6" height="6"/>
	<rect x="25" y="24" fill="#000000" width="6" height="6"/>
	<rect x="25" y="32" fill="#000000" width="6" height="6"/>
	<rect x="25" y="40" fill="#000000" width="6" height="6"/>
	<rect x="25" y="48" fill="#000000" width="6" height="6"/>
	<rect x="17" y="24" fill="#000000" width="6" height="6"/>
	<rect x="17" y="32" fill="#000000" width="6" height="6"/>
	<rect x="17" y="40" fill="#000000" width="6" height="6"/>
	<rect x="17" y="48" fill="#000000" width="6" height="6"/>
	<rect x="9" y="32" fill="#000000" width="6" height="6"/>
	<rect x="9" y="40" fill="#000000" width="6" height="6"/>
	<rect x="9" y="48" fill="#000000" width="6" height="6"/>
</svg>