<svg version="1.1" id="Layer_1" xmlns="http://www.w3.org/2000/svg" xmlns:xlink="http://www.w3.org/1999/xlink" x="0px" y="0px"
     width="64px" height="64px" viewBox="0 0 64 64" enable-background="new 0 0 64 64" xml:space="preserve">
<rect x="46" y="39" fill="#000000" width="12" height="19"/>
    <rect x="32" y="34" fill="#000000" width="12" height="24"/>
    <rect x="18" y="21" fill="#000000" width="12" height="37"/>
    <rect x="4" y="8" fill="#000000" width="12" height="50"/>
    <path fill="#000000" d="M37.6,17.2c0.3,0.9,0.6,1.5,0.9,2.1L36.1,22l3.9,3.9l2.4-2.4c0.9,0.3,1.5,0.6,2.1,0.9l0.3,3.6h5.4v-3.6
	c0.9-0.3,1.5-0.6,2.1-0.9l2.7,2.4l3.9-3.9l-2.4-2.4c0.3-0.9,0.6-1.5,0.9-2.1l3.6-0.3v-5.4l-3.6-0.3c-0.3-0.6-0.6-1.2-0.9-1.8L58.9,7
	L55,3.1l-2.7,2.4c-0.6-0.3-1.2-0.6-1.8-0.9L50.2,1h-5.4l-0.3,3.6c-0.6,0.3-1.2,0.6-1.8,0.9L40,3.1L36.1,7l2.4,2.7
	c-0.3,0.6-0.6,1.2-0.9,1.8L34,11.8v5.4H37.6z M43,14.5c0-2.4,2.1-4.5,4.5-4.5s4.5,2.1,4.5,4.5S49.9,19,47.5,19S43,16.9,43,14.5z"/>
</svg>
