<svg xmlns="http://www.w3.org/2000/svg" viewBox="0 0 1000 1000" width="1000" height="1000">
    <path d="m33.32399,539.017361q-39.06047,-7.68058 -29.76036,-43.01126q9.30011,-32.25844 50.22061,-24.57786l91.14111,18.4334l-48.36059,61.44465l-63.24077,-12.28893zm890.95086,21.50563q13.02016,-9.2167 30.69038,-8.44864t28.83035,11.52087q29.76036,24.57786 -1.86003,49.15572l-234.36285,173.58115q-11.16014,9.2167 -27.90034,9.2167q-13.02016,0 -26.04032,-7.68059l-265.98324,-168.97279l-50.22061,-10.75282l46.50056,-61.44465l33.48041,6.14446q11.16014,3.07224 14.88018,6.14447l245.523,156.68387l206.46251,-155.14775zm-455.70555,-168.9728l-325.50397,422.43199q-11.16014,16.89728 -35.34043,16.89728q-11.16014,0 -22.32027,-6.14446q-14.88018,-7.68059 -18.60023,-22.27369t5.58007,-25.34592l347.82424,-451.6182q7.44009,-12.28893 26.04031,-15.36117q16.74021,-4.60835 33.48041,4.60835l228.78279,119.81708l210.18256,-250.38697q9.30012,-12.28893 26.04032,-14.5931t31.62039,6.91252q35.34043,18.4334 11.16013,47.61961l-234.36286,278.03705q-22.32027,27.6501 -57.6607,9.2167l-226.92276,-119.81707z" />
</svg>