<?xml version="1.0" encoding="utf-8"?>
<!-- Generator: Adobe Illustrator 16.0.3, SVG Export Plug-In . SVG Version: 6.00 Build 0)  -->
<!DOCTYPE svg PUBLIC "-//W3C//DTD SVG 1.1//EN" "http://www.w3.org/Graphics/SVG/1.1/DTD/svg11.dtd">
<svg version="1.1" id="Layer_1" xmlns="http://www.w3.org/2000/svg" xmlns:xlink="http://www.w3.org/1999/xlink" x="0px" y="0px"
     width="64px" height="64px" viewBox="0 0 64 64" enable-background="new 0 0 64 64" xml:space="preserve">
<path fill="#A1ADB8" d="M31.2,32.6L19.3,7.1C10.2,11.7,4,21.1,4,32c0,15.5,12.5,28,28,28c7.4,0,14.1-2.9,19.1-7.5L31.2,32.6z"/>
    <path opacity="0.7" fill="#A1ADB8" d="M52.5,12.9L33.4,32l19.1,19.1c4.7-5,7.5-11.7,7.5-19.1C60,24.6,57.1,17.9,52.5,12.9z"/>
    <path opacity="0.3" fill="#A1ADB8" d="M21.1,6.2l11.2,24.1l18.8-18.8C46.1,6.9,39.4,4,32,4C28.1,4,24.5,4.8,21.1,6.2z"/>
</svg>
