<?xml version="1.0" encoding="utf-8"?>
<!-- Generator: Adobe Illustrator 16.0.3, SVG Export Plug-In . SVG Version: 6.00 Build 0)  -->
<!DOCTYPE svg PUBLIC "-//W3C//DTD SVG 1.1//EN" "http://www.w3.org/Graphics/SVG/1.1/DTD/svg11.dtd">
<svg version="1.1" id="Layer_2" xmlns="http://www.w3.org/2000/svg" xmlns:xlink="http://www.w3.org/1999/xlink" x="0px" y="0px"
     width="64px" height="64px" viewBox="0 0 64 64" enable-background="new 0 0 64 64" xml:space="preserve">
<path fill="#A1ADB8" d="M54,22H24c-1.1,0-2,0.9-2,2v30c0,1.1,0.9,2,2,2h30c1.1,0,2-0.9,2-2V24C56,22.9,55.1,22,54,22z M53,52
	c0,0.5-0.5,1-1,1H26c-0.5,0-1-0.5-1-1V26c0-0.5,0.5-1,1-1h26c0.5,0,1,0.5,1,1V52z"/>
    <path fill="#A1ADB8" d="M21,37H10c-0.5,0-1-0.5-1-1V10c0-0.5,0.5-1,1-1h26c0.5,0,1,0.5,1,1v11h3V8c0-1.1-0.9-2-2-2H8
	C6.9,6,6,6.9,6,8v30c0,1.1,0.9,2,2,2h13V37z"/>
    <polygon fill="#A1ADB8" points="28,38 34,44 50,28 50,35 34,50 28,45 "/>
</svg>
