<svg version="1.1" id="Layer_1" xmlns="http://www.w3.org/2000/svg" xmlns:xlink="http://www.w3.org/1999/xlink" x="0px" y="0px"
     width="64px" height="64px" viewBox="0 0 64 64" enable-background="new 0 0 64 64" xml:space="preserve">
    <path fill="#000000" d="M32,4c-5,0-9.7,1.3-13.7,3.6l4.9,8.7c2.6-1.5,5.6-2.3,8.8-2.3c9.9,0,18,8.1,18,18h10
	C60,16.5,47.5,4,32,4z"/>
    <path fill="#000000" d="M49.9,34c-1,9-8.6,16-17.9,16c-9.9,0-18-8.1-18-18c0-6.2,3.1-11.7,7.9-14.9L17,8.4C9.2,13.3,4,22.1,4,32
	c0,15.5,12.5,28,28,28c14.8,0,26.9-11.5,27.9-26H49.9z"/>
</svg>