<?xml version="1.0" encoding="utf-8"?>
<!-- Generator: Adobe Illustrator 16.0.3, SVG Export Plug-In . SVG Version: 6.00 Build 0)  -->
<!DOCTYPE svg PUBLIC "-//W3C//DTD SVG 1.1//EN" "http://www.w3.org/Graphics/SVG/1.1/DTD/svg11.dtd">
<svg version="1.1" id="Layer_1" xmlns="http://www.w3.org/2000/svg" xmlns:xlink="http://www.w3.org/1999/xlink" x="0px" y="0px"
	 width="64px" height="64px" viewBox="0 0 64 64" enable-background="new 0 0 64 64" xml:space="preserve">
<polygon fill="#A1ADB8" points="34,34 30,30 47,17 "/>
	<circle fill="#A1ADB8" cx="32" cy="32" r="4"/>
	<circle fill="#FFFFFF" cx="32" cy="32" r="1"/>
	<path fill="#A1ADB8" d="M8,32C8,18.7,18.7,8,32,8c6.3,0,12,2.4,16.2,6.3l2.8-2.8C46.1,6.9,39.4,4,32,4C16.5,4,4,16.5,4,32
	c0,8.9,4.2,16.9,10.7,22l2.5-3.1C11.6,46.5,8,39.7,8,32z"/>
	<path opacity="0.5" fill="#A1ADB8" d="M52.5,12.9l-2.8,2.8C53.6,20,56,25.7,56,32c0,7.7-3.6,14.5-9.2,18.9l2.5,3.1
	C55.8,48.9,60,40.9,60,32C60,24.6,57.1,17.9,52.5,12.9z"/>
</svg>
