<?xml version="1.0" encoding="utf-8"?>
<!-- Generator: Adobe Illustrator 16.0.3, SVG Export Plug-In . SVG Version: 6.00 Build 0)  -->
<!DOCTYPE svg PUBLIC "-//W3C//DTD SVG 1.1//EN" "http://www.w3.org/Graphics/SVG/1.1/DTD/svg11.dtd">
<svg version="1.1" xmlns="http://www.w3.org/2000/svg" xmlns:xlink="http://www.w3.org/1999/xlink" x="0px" y="0px" width="64px"
	 height="64px" viewBox="0 0 64 64" enable-background="new 0 0 64 64" xml:space="preserve">
<g id="Layer_3" display="none">
	<image display="inline" overflow="visible" width="64" height="64" xlink:href="1BF594C.jpg" >
	</image>
</g>
	<g id="Layer_2">
	<g>
		<path fill="#A1ADB8" d="M50.2,18.2c-0.4-0.4-1-0.4-1.4,0L38.7,28.3C38.3,28.7,37.5,29,37,29h-1c-0.5,0-1-0.5-1-1v-1
			c0-0.5,0.3-1.3,0.7-1.7l10.1-10.1c0.4-0.4,0.4-1,0-1.4l-0.1-0.1c-0.4-0.4-1-0.4-1.4,0L33.7,24.3C33.3,24.7,33,25.5,33,26v1
			c0,0.5-0.3,1.3-0.7,1.7l-3.6,3.6C28.3,32.7,28,33.5,28,34v1c0,0.5,0.5,1,1,1h1c0.5,0,1.3-0.3,1.7-0.7l3.6-3.6
			c0.4-0.4,1.2-0.7,1.7-0.7h1c0.5,0,1.3-0.3,1.7-0.7l10.6-10.6C50.7,19.3,50.7,18.7,50.2,18.2L50.2,18.2z"/>
	</g>
		<path fill="#A1ADB8" d="M59.3,9.8c0.4-0.4,0.3-1.1-0.1-1.5l-3.6-3.6c-0.4-0.4-1-0.4-1.5-0.1l-4.9,4.2c-0.4,0.4-1.1,0.3-1.5-0.1
		l-1.1-1.1c-0.4-0.4-1-0.4-1.4,0l-1.6,1.6c-0.4,0.4-0.4,1,0,1.4l9.6,9.6c0.4,0.4,1,0.4,1.4,0l1.6-1.6c0.4-0.4,0.4-1,0-1.4l-1.1-1.1
		c-0.4-0.4-0.4-1-0.1-1.5L59.3,9.8z"/>
		<path fill="#A1ADB8" d="M40.5,31.3c-0.3,0.3-1,0.7-1.5,0.7h-1.5c-0.5,0-1.3,0.2-1.7,0.6L32,36.3c-0.4,0.4-1.2,0.7-1.7,0.7H28
		c-0.5,0-1-0.5-1-1v-2.3c0-0.5,0.3-1.3,0.7-1.7l3.7-3.8c0.4-0.4,0.6-1.2,0.6-1.7V25c0-0.5,0.4-1.2,0.7-1.5L41,15
		c-3.7-2.2-8.3-4-13-4C14.2,11,3,22.2,3,36c0,10.3,6.2,19.1,15,22.9c3.1,1.3,6.4,2.1,10,2.1c9,0-6-6-1-12c3.2-3.8,7-1,12,3
		c4.2,3.4,10-2.2,10.9-4c2-3.6,3.1-7.7,3.1-12c0-4.7-1.8-9.3-4-13L40.5,31.3z M12.5,41c-1.4,0-2.5-1.1-2.5-2.5s1.1-2.5,2.5-2.5
		s2.5,1.1,2.5,2.5S13.9,41,12.5,41z M14.5,32c-1.9,0-3.5-1.6-3.5-3.5s1.6-3.5,3.5-3.5s3.5,1.6,3.5,3.5S16.4,32,14.5,32z M24.5,26
		C22,26,20,24,20,21.5s2-4.5,4.5-4.5s4.5,2,4.5,4.5S27,26,24.5,26z M42.5,46c-3,0-5.5-2.5-5.5-5.5s2.5-5.5,5.5-5.5s5.5,2.5,5.5,5.5
		S45.5,46,42.5,46z"/>
</g>
</svg>
