<?xml version="1.0" encoding="utf-8"?>
<!-- Generator: Adobe Illustrator 16.0.3, SVG Export Plug-In . SVG Version: 6.00 Build 0)  -->
<!DOCTYPE svg PUBLIC "-//W3C//DTD SVG 1.1//EN" "http://www.w3.org/Graphics/SVG/1.1/DTD/svg11.dtd">
<svg version="1.1" id="Layer_2" xmlns="http://www.w3.org/2000/svg" xmlns:xlink="http://www.w3.org/1999/xlink" x="0px" y="0px"
     width="64px" height="64px" viewBox="0 0 64 64" enable-background="new 0 0 64 64" xml:space="preserve">
<path fill="#A1ADB8" d="M58,5H6C4.9,5,4,5.9,4,7v50c0,1.1,0.9,2,2,2h52c1.1,0,2-0.9,2-2V7C60,5.9,59.1,5,58,5z M57,55
	c0,0.5-0.5,1-1,1H8c-0.5,0-1-0.5-1-1V9c0-0.5,0.5-1,1-1h48c0.5,0,1,0.5,1,1V55z"/>
    <rect x="10" y="11" fill="#A1ADB8" width="13" height="10"/>
    <rect x="10" y="43" fill="#A1ADB8" width="13" height="10"/>
    <rect x="41" y="11" fill="#A1ADB8" width="13" height="10"/>
    <rect x="41" y="43" fill="#A1ADB8" width="13" height="10"/>
    <rect x="25" y="11" fill="#A1ADB8" width="14" height="10"/>
    <rect x="25" y="43" fill="#A1ADB8" width="14" height="10"/>
    <path fill="#A1ADB8" d="M54,27v-2H41v-4h-2v4H25v-4h-2v4H10v2h13v4H10v2h13v4H10v2h13v4h2v-4h14v4h2v-4h13v-2H41v-4h13v-2H41v-4H54z
	 M39,37H25v-4h14V37z M39,31H25v-4h14V31z"/>
</svg>
