<?xml version="1.0" encoding="utf-8"?>
<!-- Generator: Adobe Illustrator 16.0.3, SVG Export Plug-In . SVG Version: 6.00 Build 0)  -->
<!DOCTYPE svg PUBLIC "-//W3C//DTD SVG 1.1//EN" "http://www.w3.org/Graphics/SVG/1.1/DTD/svg11.dtd">
<svg version="1.1" id="Layer_2" xmlns="http://www.w3.org/2000/svg" xmlns:xlink="http://www.w3.org/1999/xlink" x="0px" y="0px"
     width="64px" height="64px" viewBox="0 0 64 64" enable-background="new 0 0 64 64" xml:space="preserve">
<rect x="9" y="16" opacity="0.5" fill="#A1ADB8" width="6" height="6"/>
    <rect x="17" y="16" opacity="0.5" fill="#A1ADB8" width="6" height="6"/>
    <rect x="25" y="16" opacity="0.5" fill="#A1ADB8" width="6" height="6"/>
    <rect x="9" y="24" opacity="0.5" fill="#A1ADB8" width="6" height="6"/>
    <rect x="17" y="24" opacity="0.5" fill="#A1ADB8" width="6" height="6"/>
    <rect x="9" y="32" opacity="0.5" fill="#A1ADB8" width="6" height="6"/>
    <path opacity="0.5" fill="#A1ADB8" d="M23,35.6V32h-6v6h5.4C22.5,37.2,22.8,36.4,23,35.6z"/>
    <path fill="#A1ADB8" d="M22,42c0-0.3,0-0.7,0.1-1H6c-0.5,0-1-0.5-1-1V13c0-0.5,0.5-1,1-1h36c0.5,0,1,0.5,1,1v8c1,0,2,0.1,3,0.2V6
	c0-1.1-0.9-2-2-2H4C2.9,4,2,4.9,2,6v36c0,1.1,0.9,2,2,2h18.1C22,43.3,22,42.7,22,42z"/>
    <path opacity="0.5" fill="#A1ADB8" d="M31,24.8V24h-6v6h0.8C27.2,28,29,26.2,31,24.8z"/>
    <path opacity="0.5" fill="#A1ADB8" d="M39,21.4V16h-6v6h3.6C37.4,21.8,38.2,21.5,39,21.4z"/>
    <path fill="#A1ADB8" d="M43,23c-10.5,0-19,8.5-19,19c0,10.5,8.5,19,19,19c10.5,0,19-8.5,19-19C62,31.5,53.5,23,43,23z M43,58
	c-8.8,0-16-7.2-16-16c0-8.8,7.2-16,16-16c8.8,0,16,7.2,16,16C59,50.8,51.8,58,43,58z"/>
    <path fill="#A1ADB8" d="M43,29c-7.2,0-13,5.8-13,13c0,7.2,5.8,13,13,13c7.2,0,13-5.8,13-13C56,34.8,50.2,29,43,29z M52,44
	c0,0.5-0.5,1-1,1h-9c-0.5,0-1-0.5-1-1v-9c0-0.5,0.5-1,1-1h1c0.5,0,1,0.5,1,1v6c0,0.5,0.5,1,1,1h6c0.5,0,1,0.5,1,1V44z"/>
</svg>
