<?xml version="1.0" encoding="utf-8"?>
<!-- Generator: Adobe Illustrator 21.1.0, SVG Export Plug-In . SVG Version: 6.00 Build 0)  -->
<svg version="1.1" id="Layer_2" xmlns="http://www.w3.org/2000/svg" xmlns:xlink="http://www.w3.org/1999/xlink" x="0px" y="0px"
     width="64px" height="64px" viewBox="0 0 64 64" enable-background="new 0 0 64 64" xml:space="preserve">
<path opacity="0.3" fill="#A1ADB8" d="M3,3v58h58V3H3z M59,51h-6v-6h6V51z M5,13h6v6H5V13z M35,35h-6v-6h6V35z M37,29h6v6h-6V29z
	 M35,37v6h-6v-6H35z M27,35h-6v-6h6V35z M29,27v-6h6v6H29z M29,19v-6h6v6H29z M27,19h-6v-6h6V19z M27,21v6h-6v-6H27z M19,27h-6v-6h6
	V27z M19,29v6h-6v-6H19z M19,37v6h-6v-6H19z M21,37h6v6h-6V37z M27,45v6h-6v-6H27z M29,45h6v6h-6V45z M37,45h6v6h-6V45z M37,43v-6h6
	v6H37z M45,37h6v6h-6V37z M45,35v-6h6v6H45z M45,27v-6h6v6H45z M43,27h-6v-6h6V27z M37,19v-6h6v6H37z M37,11V5h6v6H37z M35,11h-6V5
	h6V11z M27,11h-6V5h6V11z M19,11h-6V5h6V11z M19,13v6h-6v-6H19z M5,21h6v6H5V21z M5,29h6v6H5V29z M5,37h6v6H5V37z M5,45h6v6H5V45z
	 M13,45h6v6h-6V45z M19,53v6h-6v-6H19z M21,53h6v6h-6V53z M29,53h6v6h-6V53z M37,53h6v6h-6V53z M45,53h6v6h-6V53z M45,51v-6h6v6H45z
	 M59,43h-6v-6h6V43z M59,35h-6v-6h6V35z M59,27h-6v-6h6V27z M59,19h-6v-6h6V19z M51,19h-6v-6h6V19z M45,11V5h6v6H45z M11,5v6H5V5H11
	z M5,53h6v6H5V53z M53,59v-6h6v6H53z M59,11h-6V5h6V11z"/>
    <path fill="#A1ADB8" d="M46,38H10V10h36V38z M14,34h28V14H14V34z"/>
    <path fill="#A1ADB8" d="M54,54H26V42h28V54z M30,50h20v-4H30V50z"/>
</svg>
