<?xml version="1.0" encoding="utf-8"?>
<!-- Generator: Adobe Illustrator 21.1.0, SVG Export Plug-In . SVG Version: 6.00 Build 0)  -->
<svg version="1.1" id="Layer_2" xmlns="http://www.w3.org/2000/svg" xmlns:xlink="http://www.w3.org/1999/xlink" x="0px" y="0px"
	 width="64px" height="64px" viewBox="0 0 64 64" style="enable-background:new 0 0 64 64;" xml:space="preserve">
<style type="text/css">
	.st0{fill:#A1ADB8;}
</style>
	<path class="st0" d="M58,2H6C4.9,2,4,2.9,4,4v55c0,1.1,0.9,2,2,2h52c1.1,0,2-0.9,2-2V4C60,2.9,59.1,2,58,2z M24,53H10v-3h14V53z
	 M24,45H10v-3h14V45z M24,37H10v-3h14V37z M24,29H10v-3h14V29z M24,21H10v-3h14V21z M24,13H10v-3h14V13z M57,57c0,0.5-0.5,1-1,1H30
	V5h26c0.5,0,1,0.5,1,1V57z"/>
</svg>
