<?xml version="1.0" encoding="utf-8"?>
<!-- Generator: Adobe Illustrator 16.0.3, SVG Export Plug-In . SVG Version: 6.00 Build 0)  -->
<!DOCTYPE svg PUBLIC "-//W3C//DTD SVG 1.1//EN" "http://www.w3.org/Graphics/SVG/1.1/DTD/svg11.dtd">
<svg version="1.1" id="Layer_2" xmlns="http://www.w3.org/2000/svg" xmlns:xlink="http://www.w3.org/1999/xlink" x="0px" y="0px"
     width="64px" height="64px" viewBox="0 0 64 64" enable-background="new 0 0 64 64" xml:space="preserve">
<path fill="#A1ADB8" d="M17.7,23.3C17.3,23.7,17,24.5,17,25v4c0,0.5,0.3,0.7,0.7,0.3l11.5-10.6c0.4-0.4,0.7-0.2,0.7,0.3v24
	c0,0.5,0.5,1,1,1h2c0.5,0,1-0.5,1-1V19c0-0.5,0.3-0.7,0.7-0.3l11.5,10.6c0.4,0.4,0.7,0.2,0.7-0.3v-4c0-0.5-0.3-1.3-0.7-1.7
	L33.7,10.7C33.3,10.3,32.5,10,32,10l0,0c-0.5,0-1.3,0.3-1.7,0.7L17.7,23.3z"/>
    <path fill="#A1ADB8" d="M50,39v8c0,0.5-0.5,1-1,1H15c-0.5,0-1-0.5-1-1v-8h-4v12c0,0.5,0.5,1,1,1h42c0.5,0,1-0.5,1-1V39H50z"/>
</svg>
