<?xml version="1.0" encoding="utf-8"?>
<!-- Generator: Adobe Illustrator 21.1.0, SVG Export Plug-In . SVG Version: 6.00 Build 0)  -->
<svg version="1.1" id="Layer_2" xmlns="http://www.w3.org/2000/svg" xmlns:xlink="http://www.w3.org/1999/xlink" x="0px" y="0px"
     width="64px" height="64px" viewBox="0 0 64 64" enable-background="new 0 0 64 64" xml:space="preserve">
<path fill="#A1ADB8" d="M60,31c0-1.1-0.9-2-2-2H6c-1.1,0-2,0.9-2,2v7c0,1.1,0.9,2,2,2h52c1.1,0,2-0.9,2-2V31z M58,37
	c0,0.6-0.4,1-1,1H7c-0.6,0-1-0.4-1-1v-5c0-0.6,0.4-1,1-1h50c0.6,0,1,0.4,1,1V37z"/>
    <g>
	<path fill="#A1ADB8" d="M17.4,17.1h-3.3l-0.9-3H8.5l-0.9,3H4.3L9.1,3.8h3.6L17.4,17.1z M12.5,11.8l-1.4-4.5C11,7,10.9,6.6,10.9,6.2
		h-0.1c0,0.4-0.1,0.8-0.2,1.2l-1.4,4.5H12.5z"/>
        <path fill="#A1ADB8" d="M21.3,16L21.3,16l0,1.1h-2.9V3h2.9v6h0C22,7.9,23,7.4,24.4,7.4c1.2,0,2.2,0.4,2.8,1.3c0.7,0.8,1,2,1,3.5
		c0,1.6-0.4,2.9-1.2,3.8c-0.8,1-1.8,1.4-3.1,1.4C22.8,17.3,21.9,16.9,21.3,16z M21.2,12v1c0,0.6,0.2,1.1,0.5,1.5
		c0.4,0.4,0.8,0.6,1.4,0.6c0.7,0,1.2-0.3,1.6-0.8c0.4-0.5,0.6-1.2,0.6-2.2c0-0.8-0.2-1.4-0.5-1.8c-0.3-0.4-0.8-0.7-1.4-0.7
		c-0.6,0-1.1,0.2-1.5,0.7C21.4,10.7,21.2,11.3,21.2,12z"/>
</g>
    <rect x="4" y="24" fill="#A1ADB8" width="24" height="3"/>
    <path fill="#A1ADB8" d="M60,51c0-1.1-0.9-2-2-2H6c-1.1,0-2,0.9-2,2v7c0,1.1,0.9,2,2,2h52c1.1,0,2-0.9,2-2V51z M58,57
	c0,0.6-0.4,1-1,1H7c-0.6,0-1-0.4-1-1v-5c0-0.6,0.4-1,1-1h50c0.6,0,1,0.4,1,1V57z"/>
    <rect x="4" y="44" fill="#A1ADB8" width="24" height="3"/>
</svg>
