<svg xmlns="http://www.w3.org/2000/svg" width="1000" height="1000">
    <path d="M16 476.8V8.5H51 85.9V441.8 875.1H110.3 134.6V758.5 642H203.5 272.4V758.5 875.1H308.4 344.4V687.6 500.1H414.3 484.2V687.6 875.1H520.2 556.2V746.9 618.7H625.1 694V746.9 875.1H730 766V559.4 243.7H835.9 905.8V559.4 875.1H929.1 952.4V910 945H484.2 16ZM16 476.8V8.5H51 85.9V441.8 875.1H110.3 134.6V758.5 642H203.5 272.4V758.5 875.1H308.4 344.4V687.6 500.1H414.3 484.2V687.6 875.1H520.2 556.2V746.9 618.7H625.1 694V746.9 875.1H730 766V559.4 243.7H835.9 905.8V559.4 875.1H929.1 952.4V910 945H484.2 16ZM16 476.8V8.5H51 85.9V441.8 875.1H110.3 134.6V758.5 642H203.5 272.4V758.5 875.1H308.4 344.4V687.6 500.1H414.3 484.2V687.6 875.1H520.2 556.2V746.9 618.7H625.1 694V746.9 875.1H730 766V559.4 243.7H835.9 905.8V559.4 875.1H929.1 952.4V910 945H484.2 16ZM556.2 148.4V31.3H625.1 694V148.4 265.6H625.1 556.2ZM16 476.8V8.5H51 85.9V441.8 875.1H110.3 134.6V758.5 642H203.5 272.4V758.5 875.1H308.4 344.4V687.6 500.1H414.3 484.2V687.6 875.1H520.2 556.2V746.9 618.7H625.1 694V746.9 875.1H730 766V559.4 243.7H835.9 905.8V559.4 875.1H929.1 952.4V910 945H484.2 16ZM16 476.8V8.5H51 85.9V441.8 875.1H110.3 134.6V758.5 642H203.5 272.4V758.5 875.1H308.4 344.4V687.6 500.1H414.3 484.2V687.6 875.1H520.2 556.2V746.9 618.7H625.1 694V746.9 875.1H730 766V559.4 243.7H835.9 905.8V559.4 875.1H929.1 952.4V910 945H484.2 16ZM766 113.4V31.8H835.9 905.8V113.4 195H835.9 766ZM16 476.8V8.5H51 85.9V441.8 875.1H110.3 134.6V758.5 642H203.5 272.4V758.5 875.1H308.4 344.4V687.6 500.1H414.3 484.2V687.6 875.1H520.2 556.2V746.9 618.7H625.1 694V746.9 875.1H730 766V559.4 243.7H835.9 905.8V559.4 875.1H929.1 952.4V910 945H484.2 16ZM16 476.8V8.5H51 85.9V441.8 875.1H110.3 134.6V758.5 642H203.5 272.4V758.5 875.1H308.4 344.4V687.6 500.1H414.3 484.2V687.6 875.1H520.2 556.2V746.9 618.7H625.1 694V746.9 875.1H730 766V559.4 243.7H835.9 905.8V559.4 875.1H929.1 952.4V910 945H484.2 16ZM16 476.8V8.5H51 85.9V441.8 875.1H110.3 134.6V758.5 642H203.5 272.4V758.5 875.1H308.4 344.4V687.6 500.1H414.3 484.2V687.6 875.1H520.2 556.2V746.9 618.7H625.1 694V746.9 875.1H730 766V559.4 243.7H835.9 905.8V559.4 875.1H929.1 952.4V910 945H484.2 16ZM16 476.8V8.5H51 85.9V441.8 875.1H110.3 134.6V758.5 642H203.5 272.4V758.5 875.1H308.4 344.4V687.6 500.1H414.3 484.2V687.6 875.1H520.2 556.2V746.9 618.7H625.1 694V746.9 875.1H730 766V559.4 243.7H835.9 905.8V559.4 875.1H929.1 952.4V910 945H484.2 16ZM766 113.4V31.8H835.9 905.8V113.4 195H835.9 766ZM556.2 148.4V31.8H625.1 694V148.4 264.9H625.1 556.2ZM556.2 441.8V313.6H625.1 694V441.8 570H625.1 556.2ZM344.4 241.6V31.8H414.3 484.2V241.6 451.3H414.3 344.4ZM134.6 312.6V31.8H203.5 272.4V312.6 593.3H203.5 134.6Z"></path>
</svg>