<?xml version="1.0" encoding="utf-8"?>
<!-- Generator: Adobe Illustrator 16.0.3, SVG Export Plug-In . SVG Version: 6.00 Build 0)  -->
<!DOCTYPE svg PUBLIC "-//W3C//DTD SVG 1.1//EN" "http://www.w3.org/Graphics/SVG/1.1/DTD/svg11.dtd">
<svg version="1.1" id="Layer_3" xmlns="http://www.w3.org/2000/svg" xmlns:xlink="http://www.w3.org/1999/xlink" x="0px" y="0px"
     width="64px" height="64px" viewBox="0 0 64 64" enable-background="new 0 0 64 64" xml:space="preserve">
<path fill="#A1ADB8" d="M58,8H16c-1.1,0-2,0.9-2,2v6h36c1.1,0,2,0.9,2,2v28h6c1.1,0,2-0.9,2-2V10C60,8.9,59.1,8,58,8z"/>
    <path fill="#A1ADB8" d="M48,18H6c-1.1,0-2,0.9-2,2v34c0,1.1,0.9,2,2,2h42c1.1,0,2-0.9,2-2V20C50,18.9,49.1,18,48,18z M21.5,27
	c3,0,5.5,2.5,5.5,5.5c0,3-2.5,5.5-5.5,5.5S16,35.5,16,32.5C16,29.5,18.5,27,21.5,27z M7,53l10-10l5,6l-4,4H7z M47,53H20l17-17l10,8
	V53z"/>
</svg>
