<?xml version="1.0" encoding="utf-8"?>
<!-- Generator: Adobe Illustrator 23.0.6, SVG Export Plug-In . SVG Version: 6.00 Build 0)  -->
<svg version="1.1" id="_x30_" xmlns="http://www.w3.org/2000/svg" xmlns:xlink="http://www.w3.org/1999/xlink" x="0px" y="0px"
     width="64px" height="64px" viewBox="0 0 64 64" style="enable-background:new 0 0 64 64;" xml:space="preserve">
<style type="text/css">
	.st0{fill-rule:evenodd;clip-rule:evenodd;fill:#A1ADB8;}
	.st1{opacity:0.5;fill-rule:evenodd;clip-rule:evenodd;fill:#A1ADB8;enable-background:new    ;}
</style>
    <path id="_x32_" class="st0" d="M54,13H29c-1.1,0-2-0.9-2-2s0.9-2,2-2h25c1.1,0,2,0.9,2,2S55.1,13,54,13z M2,59V5c0-1.1,0.9-2,2-2
	h19v58H4C2.9,61,2,60.1,2,59z M10,54h9v-2h-9V54z M10,48h9v-2h-9V48z M10,42h9v-2h-9V42z M10,36h9v-2h-9V36z M10,30h9v-2h-9V30z
	 M10,24h9v-2h-9V24z M10,18h9v-2h-9V18z M10,12h9v-2h-9V12z M6,36h2v-2H6V36z M6,12h2v-2H6V12z M48,31h-7c-1.1,0-2-0.9-2-2
	c0-1.1,0.9-2,2-2h7V31z M31,17c0-1.1,0.9-2,2-2h4v4h-4C31.9,19,31,18.1,31,17z M42,25h-7c-1.1,0-2-0.9-2-2c0-1.1,0.9-2,2-2h7V25z
	 M29,33h25c1.1,0,2,0.9,2,2s-0.9,2-2,2H29c-1.1,0-2-0.9-2-2S27.9,33,29,33z M33,39h4v4h-4c-1.1,0-2-0.9-2-2C31,39.9,31.9,39,33,39z
	 M35,45h7v4h-7c-1.1,0-2-0.9-2-2C33,45.9,33.9,45,35,45z M41,51h7v4h-7c-1.1,0-2-0.9-2-2C39,51.9,39.9,51,41,51z"/>
    <path id="_x31_" class="st1" d="M33,15h7c1.1,0,2,0.9,2,2s-0.9,2-2,2h-7c-1.1,0-2-0.9-2-2S31.9,15,33,15z M31,41c0-1.1,0.9-2,2-2h7
	c1.1,0,2,0.9,2,2c0,1.1-0.9,2-2,2h-7C31.9,43,31,42.1,31,41z M33,47c0-1.1,0.9-2,2-2h12c1.1,0,2,0.9,2,2c0,1.1-0.9,2-2,2H35
	C33.9,49,33,48.1,33,47z M53,55H41c-1.1,0-2-0.9-2-2c0-1.1,0.9-2,2-2h12c1.1,0,2,0.9,2,2C55,54.1,54.1,55,53,55z M35,25
	c-1.1,0-2-0.9-2-2c0-1.1,0.9-2,2-2h12c1.1,0,2,0.9,2,2c0,1.1-0.9,2-2,2H35z M55,29c0,1.1-0.9,2-2,2H41c-1.1,0-2-0.9-2-2
	c0-1.1,0.9-2,2-2h12C54.1,27,55,27.9,55,29z M60,61H23v-2h37V5H23V3h37c1.1,0,2,0.9,2,2v54C62,60.1,61.1,61,60,61z"/>
</svg>
