<svg xmlns="http://www.w3.org/2000/svg" width="1000" height="1000">
    <path d="m15,128l0,744l970,0l0,-744l-970,0zm519,452l0,-159l159,0l0,159l-159,0zm0,-384l159,0l0,157l-159,0l0,-157zm159,609l-159,0l0,-158l159,0l0,158zm225,-384l0,159l-158,0l0,-159l158,0zm-158,-225l158,0l0,157l-158,0l0,-157zm158,451l0,158l-158,0l0,-158l158,0zm-835,-67l0,-159l158,0l0,159l-158,0zm0,-384l158,0l0,157l-158,0l0,-157zm158,609l-158,0l0,-158l158,0l0,158zm225,-384l0,159l-157,0l0,-159l157,0zm-157,-225l157,0l0,157l-157,0l0,-157zm157,451l0,158l-157,0l0,-158l157,0z"></path>
</svg>