<?xml version="1.0" encoding="utf-8"?>
<!-- Generator: Adobe Illustrator 16.0.3, SVG Export Plug-In . SVG Version: 6.00 Build 0)  -->
<!DOCTYPE svg PUBLIC "-//W3C//DTD SVG 1.1//EN" "http://www.w3.org/Graphics/SVG/1.1/DTD/svg11.dtd">
<svg version="1.1" id="Layer_3" xmlns="http://www.w3.org/2000/svg" xmlns:xlink="http://www.w3.org/1999/xlink" x="0px" y="0px"
     width="64px" height="64px" viewBox="0 0 64 64" enable-background="new 0 0 64 64" xml:space="preserve">
<path fill="#A1ADB8" d="M43.2,15.8c-6.4-6.4-16.9-6.4-23.3,0c-6.3,6.3-6.4,16.5-0.3,23l0,0l12,12l11.3-11.3l0,0
	c0.1-0.1,0.3-0.2,0.4-0.3C49.6,32.7,49.6,22.3,43.2,15.8z M31.5,38C25.7,38,21,33.3,21,27.5S25.7,17,31.5,17S42,21.7,42,27.5
	S37.3,38,31.5,38z"/>
    <circle fill="#A1ADB8" cx="31.5" cy="27.5" r="6.5"/>
    <path opacity="0.5" fill="#A1ADB8" d="M41,45.7c-5.3-0.9-13.8-0.9-19.1,0c-5.2,0.9-5.3,2.4-0.3,3.4l0,0l9.8,1.8l9.3-1.7l0,0
	c0.1,0,0.2,0,0.3,0C46.3,48.2,46.3,46.7,41,45.7z"/>
</svg>
