<?xml version="1.0" encoding="utf-8"?>
<!-- Generator: Adobe Illustrator 16.0.3, SVG Export Plug-In . SVG Version: 6.00 Build 0)  -->
<!DOCTYPE svg PUBLIC "-//W3C//DTD SVG 1.1//EN" "http://www.w3.org/Graphics/SVG/1.1/DTD/svg11.dtd">
<svg version="1.1" id="Layer_2" xmlns="http://www.w3.org/2000/svg" xmlns:xlink="http://www.w3.org/1999/xlink" x="0px" y="0px"
	 width="64px" height="64px" viewBox="0 0 64 64" enable-background="new 0 0 64 64" xml:space="preserve">
<path fill="#A1ADB8" d="M58,5H6C4.9,5,4,5.9,4,7v50c0,1.1,0.9,2,2,2h52c1.1,0,2-0.9,2-2V7C60,5.9,59.1,5,58,5z M57,55
	c0,0.5-0.5,1-1,1H8c-0.5,0-1-0.5-1-1V9c0-0.5,0.5-1,1-1h48c0.5,0,1,0.5,1,1V55z"/>
	<g>
	<path fill="#A1ADB8" d="M25.6,37.7V52h-3.1V41.2c-0.2,0.2-0.4,0.3-0.6,0.4s-0.5,0.3-0.7,0.4s-0.5,0.2-0.8,0.3s-0.6,0.1-0.8,0.2
		v-2.6c0.8-0.2,1.6-0.5,2.3-0.9s1.4-0.8,1.9-1.2H25.6z"/>
		<path fill="#A1ADB8" d="M33.2,49.4h5.9V52h-9.3v-1.1c0-0.7,0.1-1.4,0.4-1.9s0.5-1.1,0.9-1.5s0.8-0.9,1.2-1.2s0.8-0.7,1.2-0.9
		c0.4-0.3,0.8-0.6,1.1-0.8s0.6-0.5,0.8-0.8s0.4-0.5,0.5-0.8S36,42.3,36,42c0-0.6-0.2-1.1-0.5-1.4s-0.9-0.5-1.6-0.5
		c-1.2,0-2.4,0.5-3.5,1.4v-2.7c1.2-0.8,2.6-1.2,4.1-1.2c0.7,0,1.3,0.1,1.9,0.3s1,0.5,1.4,0.8s0.7,0.8,0.9,1.3s0.3,1,0.3,1.6
		c0,0.6-0.1,1.2-0.3,1.7s-0.5,1-0.8,1.4s-0.7,0.8-1.1,1.1s-0.9,0.7-1.3,1c-0.3,0.2-0.6,0.4-0.9,0.7s-0.5,0.4-0.8,0.6
		s-0.4,0.4-0.5,0.6S33.2,49.3,33.2,49.4z"/>
		<path fill="#A1ADB8" d="M42.6,51.5v-2.7c0.9,0.7,2,1,3.3,1c0.8,0,1.4-0.2,1.8-0.5s0.7-0.8,0.7-1.4c0-0.6-0.3-1.1-0.8-1.4
		S46.3,46,45.4,46h-1.3v-2.4h1.2c1.8,0,2.7-0.6,2.7-1.8c0-1.1-0.7-1.7-2.1-1.7c-0.9,0-1.8,0.3-2.7,0.9v-2.5c1-0.5,2.1-0.7,3.4-0.7
		c1.4,0,2.5,0.3,3.3,1s1.2,1.5,1.2,2.5c0,1.8-0.9,3-2.8,3.4v0c1,0.1,1.8,0.5,2.3,1.1s0.9,1.3,0.9,2.2c0,1.3-0.5,2.3-1.4,3.1
		s-2.3,1.1-4,1.1C44.7,52.2,43.5,52,42.6,51.5z"/>
</g>
</svg>
