<?xml version="1.0" encoding="utf-8"?>
<!-- Generator: Adobe Illustrator 16.0.3, SVG Export Plug-In . SVG Version: 6.00 Build 0)  -->
<!DOCTYPE svg PUBLIC "-//W3C//DTD SVG 1.1//EN" "http://www.w3.org/Graphics/SVG/1.1/DTD/svg11.dtd">
<svg version="1.1" xmlns="http://www.w3.org/2000/svg" xmlns:xlink="http://www.w3.org/1999/xlink" x="0px" y="0px" width="64px"
	 height="64px" viewBox="0 0 64 64" enable-background="new 0 0 64 64" xml:space="preserve">
<g id="Layer_3">
	<polygon fill="#A1ADB8" points="50,25 28,25 28,29 36.7,38 28,47 28,51 50,51 50,47 33.6,47 42,38 33.6,29 50,29 	"/>
</g>
	<g id="Layer_2">
	<path fill="#A1ADB8" d="M58,5H6C4.9,5,4,5.9,4,7v50c0,1.1,0.9,2,2,2h52c1.1,0,2-0.9,2-2V7C60,5.9,59.1,5,58,5z M57,55
		c0,0.5-0.5,1-1,1H8c-0.5,0-1-0.5-1-1V9c0-0.5,0.5-1,1-1h48c0.5,0,1,0.5,1,1V55z"/>
		<rect x="10" y="39" fill="#A1ADB8" width="11" height="14"/>
		<rect x="10" y="23" fill="#A1ADB8" width="11" height="14"/>
		<rect x="10" y="11" fill="#A1ADB8" width="11" height="10"/>
		<rect x="23" y="11" fill="#A1ADB8" width="14" height="10"/>
		<rect x="39" y="11" fill="#A1ADB8" width="15" height="10"/>
</g>
</svg>
