<svg xmlns="http://www.w3.org/2000/svg" width="1000" height="1000">
    <path d="M232.4 597.4C200.9 591.2 174.4 563.7 168.4 531 158.6 477.7 209.9 427.7 263 438.6 297 445.7 320.6 469.4 327.7 503.8 336.3 545.5 305.6 589.3 262 597.5 249.1 599.9 245.4 599.9 232.4 597.4ZM234.3 237.3C209.3 232.1 183.9 210.7 174.7 187.1 165 161.8 169.2 131.7 185.5 109.9 201.7 88.3 224.1 77.3 251.2 77.6 284.6 77.9 313.3 97.9 325.9 129.7 332.2 145.7 332 170.5 325.3 187.6 318.6 205 297.3 226.4 280.6 232.6 266.2 238 247.1 239.9 234.3 237.3ZM487.9 398.2C441.7 387.3 414.3 338.5 429.3 294 442.3 255.5 481.6 231.8 519.5 239.5 546 244.9 568.1 262 579.2 285.7 584.1 296.2 584.9 300.4 584.9 318.9 584.9 337.4 584.1 341.6 579.2 352.1 562.8 387.2 524.1 406.7 487.9 398.2ZM727.9 276.5C687.6 265.2 660.9 224.7 668.1 185.9 674.4 152.3 697 128 730 119.6 746 115.5 760.1 116.6 778.1 123.3 795.2 129.7 816.4 150.9 823.2 168.5 829.9 185.6 830.1 210.3 823.7 226.3 808.5 264.9 765.9 287.1 727.9 276.5ZM483.9 615.5C448.9 604.3 424.6 568 427.7 531.5 430.1 503.1 448.5 476.7 474.2 464.8 485.9 459.4 489.7 458.7 508.6 458.7 527.7 458.7 531 459.3 542.5 465 558.6 472.9 574 488.3 581.3 503.8 586.3 514.6 587 518.5 587 538.2 587 558.3 586.4 561.6 581 572.6 573.1 588.8 558.3 603.1 541.5 611 525 618.7 500.1 620.7 483.9 615.5ZM473.3 837.1C457.6 832.1 448.6 826.4 437.7 814.5 412.9 787.6 409.3 747.1 429 716.6 444.4 692.8 468.4 679.8 496.9 679.8 506 679.9 516.9 681.3 522.3 683.3 557.9 696 579.7 729.2 577 766.6 573.3 817.4 521.6 852.6 473.3 837.1ZM710.1 834.7C696.8 831.4 677.3 819.9 669.2 810.6 665 805.8 658.7 795.8 655.1 788.2 649.3 776.1 648.5 772.3 648.5 756.4 648.6 732.7 654.2 718.3 669.9 701.3 695.3 673.9 733.7 667.3 766.4 684.8 824.9 716 822.6 800.3 762.4 828.9 747.7 835.8 724.8 838.4 710.1 834.7ZM16 476.8V8.5H51 85.9V441.8 875.1H519.2 952.4V910 945H484.2 16ZM16 476.8V8.5H51 85.9V441.8 875.1H519.2 952.4V910 945H484.2 16ZM224.7 835.3C167.6 814.8 152.1 741.7 196.1 700.4 202 694.9 212.3 687.9 218.9 684.8 229.4 679.9 233.8 679.1 251.2 679.1 268.5 679.1 273 679.9 283.4 684.8 300.3 692.7 315.5 707.6 323.7 724.4 330.1 737.3 330.6 739.9 330.6 759.5 330.6 778.6 330 782 324.6 793.1 316.9 808.7 301.4 824.3 285.8 831.9 269.9 839.7 241.2 841.3 224.7 835.3Z" />
</svg>