<?xml version="1.0" encoding="utf-8"?>
<!-- Generator: Adobe Illustrator 16.0.3, SVG Export Plug-In . SVG Version: 6.00 Build 0)  -->
<!DOCTYPE svg PUBLIC "-//W3C//DTD SVG 1.1//EN" "http://www.w3.org/Graphics/SVG/1.1/DTD/svg11.dtd">
<svg version="1.1" id="Layer_1" xmlns="http://www.w3.org/2000/svg" xmlns:xlink="http://www.w3.org/1999/xlink" x="0px" y="0px"
     width="64px" height="64px" viewBox="0 0 64 64" enable-background="new 0 0 64 64" xml:space="preserve">
<polygon fill="#A1ADB8" points="32,32 32,32 32,32 "/>
    <polygon opacity="0.5" fill="#A1ADB8" points="32,32 32,32 32,32 "/>
    <path fill="#A1ADB8" d="M32,32l9.8-26.2C38.8,4.6,35.5,4,32,4c-3.5,0-6.8,0.6-9.9,1.8L32,32L32,32z"/>
    <path fill="#A1ADB8" d="M59.6,36.6L32,32l0,0l17.8,21.6C54.9,49.4,58.5,43.4,59.6,36.6z"/>
    <polygon fill="#A1ADB8" points="32,32 32,32 32,32 "/>
    <polygon opacity="0.5" fill="#A1ADB8" points="32,32 32,32 32,32 "/>
    <polygon fill="#A1ADB8" points="32,32 32,32 32,32 32,32 "/>
    <polygon opacity="0.5" fill="#A1ADB8" points="32,32 32,32 32,32 32,32 "/>
    <path fill="#A1ADB8" d="M4.4,36.6c1.1,6.8,4.7,12.8,9.8,17L31.9,32L4.4,36.6z"/>
    <path opacity="0.7" fill="#A1ADB8" d="M24.3,52.6c2.4,0.9,5,1.4,7.7,1.4c2.7,0,5.3-0.5,7.7-1.4L32,32L24.3,52.6z"/>
    <path opacity="0.7" fill="#A1ADB8" d="M53.7,28.3C52.8,23,50,18.3,45.9,15l-14,17L53.7,28.3z"/>
    <path opacity="0.9" fill="#A1ADB8" d="M22.5,20.4c-2.7,2.3-4.6,5.5-5.2,9.1L32,32L22.5,20.4z"/>
</svg>
