<svg version="1.1" id="Layer_2" xmlns="http://www.w3.org/2000/svg" xmlns:xlink="http://www.w3.org/1999/xlink" x="0px" y="0px"
     width="64px" height="64px" viewBox="0 0 64 64" enable-background="new 0 0 64 64" xml:space="preserve">
<path fill="#000000" d="M36,18c0,0.5-0.5,1-1,1H14c-0.5,0-1-0.5-1-1v-4c0-0.5,0.5-1,1-1h21c0.5,0,1,0.5,1,1V18z"/>
    <path fill="#000000" d="M51,26c0,0.5-0.5,1-1,1H26c-0.5,0-1-0.5-1-1v-3c0-0.5,0.5-1,1-1h24c0.5,0,1,0.5,1,1V26z"/>
    <path fill="#000000" d="M51,34c0,0.5-0.5,1-1,1H26c-0.5,0-1-0.5-1-1v-3c0-0.5,0.5-1,1-1h24c0.5,0,1,0.5,1,1V34z"/>
    <path fill="#000000" d="M51,42c0,0.5-0.5,1-1,1H26c-0.5,0-1-0.5-1-1v-3c0-0.5,0.5-1,1-1h24c0.5,0,1,0.5,1,1V42z"/>
    <path fill="#000000" d="M51,50c0,0.5-0.5,1-1,1H26c-0.5,0-1-0.5-1-1v-3c0-0.5,0.5-1,1-1h24c0.5,0,1,0.5,1,1V50z"/>
</svg>
