<?xml version="1.0" encoding="utf-8"?>
<!-- Generator: Adobe Illustrator 16.0.3, SVG Export Plug-In . SVG Version: 6.00 Build 0)  -->
<!DOCTYPE svg PUBLIC "-//W3C//DTD SVG 1.1//EN" "http://www.w3.org/Graphics/SVG/1.1/DTD/svg11.dtd">
<svg version="1.1" id="Layer_2" xmlns="http://www.w3.org/2000/svg" xmlns:xlink="http://www.w3.org/1999/xlink" x="0px" y="0px"
     width="64px" height="64px" viewBox="0 0 64 64" enable-background="new 0 0 64 64" xml:space="preserve">
<polygon opacity="0.3" fill="#A1ADB8" points="2,60 62,60 62,35 50,23 40,19 18,40 8,33 2,36 "/>
    <path fill="#A1ADB8" d="M48,4v18.2L40,19L29,29.5V4H17v12h10v44h23V16h10V4H48z M24,7.2L22.5,14H21l2.1-7H20V6h4V7.2z M54,14h-3v-1
	h1V7.6l-1,0.3V6.8l2-0.6V13h1V14z M58,7h-2v2.3l0.4,0C57,9.2,57.6,9.3,58,9.7c0.5,0.4,0.7,1,0.7,1.9c0,0.8-0.2,1.4-0.6,1.8
	c-0.4,0.5-1,0.7-1.8,0.7c-0.6,0-1.4-0.1-1.4-0.3v-1.3c0,0.3,0.8,0.5,1.2,0.5c0.4,0,0.6-0.1,0.8-0.4s0.3-0.5,0.3-0.9
	c0-0.4-0.1-0.7-0.3-1c-0.2-0.2-0.6-0.3-1.1-0.3c-0.2,0,0,0-1,0.1V6h3V7z"/>
</svg>
