<?xml version="1.0" encoding="utf-8"?>
<!-- Generator: Adobe Illustrator 22.1.0, SVG Export Plug-In . SVG Version: 6.00 Build 0)  -->
<svg version="1.1" id="Layer_1" xmlns="http://www.w3.org/2000/svg" xmlns:xlink="http://www.w3.org/1999/xlink" x="0px" y="0px"
     width="64px" height="64px" viewBox="0 0 64 64" style="enable-background:new 0 0 64 64;" xml:space="preserve">
<rect x="4" y="6" style="fill:#A1ADB8;" width="3" height="14"/>
    <rect x="4" y="24" style="fill:#A1ADB8;" width="3" height="14"/>
    <rect x="4" y="42" style="fill:#A1ADB8;" width="3" height="16"/>
    <rect x="57" y="6" style="fill:#A1ADB8;" width="3" height="34"/>
    <rect x="57" y="44" style="fill:#A1ADB8;" width="3" height="14"/>
    <path style="opacity:0.5;fill:#A1ADB8;" d="M55,58c-13,0-20.7-11.3-27.5-21.3C21.6,28.1,16.1,20,9,20V6c14.5,0,22.7,12.1,30,22.8
	C44.4,36.6,49.4,44,55,44V58z"/>
    <path style="opacity:0.5;fill:#A1ADB8;" d="M9,58V42c6.8,0,11.4-3.2,17.2-7.2C33.1,30,41.7,22,55,22v18c-8.3,0-13.6,3.7-19.7,7.9
	C28.5,52.6,20.8,58,9,58z"/>
    <path style="opacity:0.5;fill:#A1ADB8;" d="M9,38V24c7.1,0,11.8-3.3,17.8-7.4C33.9,11.6,42,6,55,6v16c-8.6,0-14,1.7-20.3,6.1
	C28,32.7,20.5,38,9,38z"/>
</svg>
