<?xml version="1.0" encoding="utf-8"?>
<!-- Generator: Adobe Illustrator 16.0.3, SVG Export Plug-In . SVG Version: 6.00 Build 0)  -->
<!DOCTYPE svg PUBLIC "-//W3C//DTD SVG 1.1//EN" "http://www.w3.org/Graphics/SVG/1.1/DTD/svg11.dtd">
<svg version="1.1" id="Layer_2" xmlns="http://www.w3.org/2000/svg" xmlns:xlink="http://www.w3.org/1999/xlink" x="0px" y="0px"
     width="64px" height="64px" viewBox="0 0 64 64" enable-background="new 0 0 64 64" xml:space="preserve">
<path fill="#A1ADB8" d="M58,2H6C4.9,2,4,2.9,4,4v12c0,1.1,0.9,2,2,2h52c1.1,0,2-0.9,2-2V4C60,2.9,59.1,2,58,2z M57,14
	c0,0.5-0.5,1-1,1H8c-0.5,0-1-0.5-1-1V6c0-0.5,0.5-1,1-1h48c0.5,0,1,0.5,1,1V14z"/>
    <path opacity="0.5" fill="#A1ADB8" d="M4,57v3c0,1.1,0.9,2,2,2h52c1.1,0,2-0.9,2-2v-3H4z"/>
    <polygon fill="#A1ADB8" points="46,8 50,12 54,8 "/>
    <rect x="15" y="27" fill="#A1ADB8" width="33" height="3"/>
    <rect x="15" y="43" fill="#A1ADB8" width="33" height="3"/>
    <rect x="15" y="49" fill="#A1ADB8" width="33" height="3"/>
    <path fill="#A1ADB8" d="M58,20H6c-1.1,0-2,0.9-2,2v35c0,1.1,0.9,2,2,2h52c1.1,0,2-0.9,2-2V22C60,20.9,59.1,20,58,20z M8,23h48
	c0.5,0,1,0.5,1,1v8H7v-8C7,23.5,7.5,23,8,23z M48,35v3H15v-3H48z M56,56H8c-0.5,0-1-0.5-1-1V41h50v14C57,55.5,56.5,56,56,56z"/>
</svg>
