<?xml version="1.0" encoding="utf-8"?>
<!-- Generator: Adobe Illustrator 16.0.3, SVG Export Plug-In . SVG Version: 6.00 Build 0)  -->
<!DOCTYPE svg PUBLIC "-//W3C//DTD SVG 1.1//EN" "http://www.w3.org/Graphics/SVG/1.1/DTD/svg11.dtd">
<svg version="1.1" id="Layer_3" xmlns="http://www.w3.org/2000/svg" xmlns:xlink="http://www.w3.org/1999/xlink" x="0px" y="0px"
     width="64px" height="64px" viewBox="0 0 64 64" enable-background="new 0 0 64 64" xml:space="preserve">
<rect x="5" y="36" opacity="0.5" fill="#A1ADB8" width="2" height="3"/>
    <rect x="22" y="36" opacity="0.5" fill="#A1ADB8" width="2" height="3"/>
    <rect x="28" y="36" opacity="0.5" fill="#A1ADB8" width="2" height="3"/>
    <rect x="34" y="36" opacity="0.5" fill="#A1ADB8" width="2" height="3"/>
    <rect x="10" y="36" opacity="0.5" fill="#A1ADB8" width="2" height="3"/>
    <rect x="16" y="36" opacity="0.5" fill="#A1ADB8" width="2" height="3"/>
    <rect x="40" y="36" opacity="0.5" fill="#A1ADB8" width="2" height="3"/>
    <path opacity="0.5" fill="#A1ADB8" d="M54,41c0,1.1-0.9,2-2,2h-5c-1.1,0-2-0.9-2-2V26c0-1.1,0.9-2,2-2h5c1.1,0,2,0.9,2,2V41z"/>
    <rect x="57" y="36" opacity="0.5" fill="#A1ADB8" width="2" height="3"/>
    <path fill="#A1ADB8" d="M54,39c0,1.1-0.9,2-2,2h-5c-1.1,0-2-0.9-2-2V24c0-1.1,0.9-2,2-2h5c1.1,0,2,0.9,2,2V39z"/>
    <path fill="#A1ADB8" d="M60,29h-5v5h5c1.1,0,2-0.9,2-2v-1C62,29.9,61.1,29,60,29z"/>
    <path fill="#A1ADB8" d="M4,29c-1.1,0-2,0.9-2,2v1c0,1.1,0.9,2,2,2h40v-5H4z"/>
</svg>
