<?xml version="1.0" encoding="utf-8"?>
<!-- Generator: Adobe Illustrator 16.0.3, SVG Export Plug-In . SVG Version: 6.00 Build 0)  -->
<!DOCTYPE svg PUBLIC "-//W3C//DTD SVG 1.1//EN" "http://www.w3.org/Graphics/SVG/1.1/DTD/svg11.dtd">
<svg version="1.1" id="Layer_1" xmlns="http://www.w3.org/2000/svg" xmlns:xlink="http://www.w3.org/1999/xlink" x="0px" y="0px"
     width="64px" height="64px" viewBox="0 0 64 64" enable-background="new 0 0 64 64" xml:space="preserve">
<polygon fill="#A1ADB8" points="35.2,26 28.6,26 24.6,21.6 16.3,23 11.1,25 6.8,24 7.2,22 10.9,23 15.8,21 25.4,19.4 29.4,24
	34.8,24 37.8,23 42.9,23 51.7,20.3 56.8,19.1 57.2,21.1 52.2,22.2 48.3,23.5 43,25 38.2,25 "/>
    <polygon fill="#A1ADB8" points="34.1,46 29.5,44.9 24.6,41.9 20.9,41 16.2,41 11.2,43 6.2,44 5.8,42 10.7,41 15.8,39 21.2,39
	25.5,40.1 30.4,43.1 33.9,44 38.6,42.1 42.9,40 53,42 56.8,41 57.2,43 53,44 43.1,42 39.4,43.9 "/>
    <circle fill="#A1ADB8" cx="6.5" cy="42.5" r="2.5"/>
    <circle fill="#A1ADB8" cx="57.5" cy="41.5" r="2.5"/>
    <circle fill="#FFFFFF" cx="6.5" cy="42.5" r="1.5"/>
    <circle fill="#FFFFFF" cx="57.5" cy="41.5" r="1.5"/>
    <circle fill="#A1ADB8" cx="25.5" cy="41.5" r="2.5"/>
    <circle fill="#FFFFFF" cx="25.5" cy="41.5" r="1.5"/>
    <circle fill="#A1ADB8" cx="6.5" cy="22.5" r="2.5"/>
    <circle fill="#FFFFFF" cx="6.5" cy="22.5" r="1.5"/>
    <circle fill="#A1ADB8" cx="57.5" cy="19.5" r="2.5"/>
    <circle fill="#FFFFFF" cx="57.5" cy="19.5" r="1.5"/>
    <circle fill="#A1ADB8" cx="25.5" cy="20.5" r="2.5"/>
    <circle fill="#FFFFFF" cx="25.5" cy="20.5" r="1.5"/>
</svg>
