<svg xmlns="http://www.w3.org/2000/svg" width="1000" height="1000">
    <path d="M484.2 944.9L952.4 944.9 952.4 910 952.4 875 519.1 875 85.9 875 85.9 850.7 85.9 826.3 202.4 826.3 318.9 826.3 318.9 757.4 318.9 688.6 202.4 688.6 85.9 688.6 85.9 652.6 85.9 616.6 273.4 616.6 460.9 616.6 460.9 546.6 460.9 476.7 273.4 476.7 85.9 476.7 85.9 440.7 85.9 404.7 214.1 404.7 342.2 404.7 342.2 335.8 342.2 267 214.1 267 85.9 267 85.9 231 85.9 194.9 401.6 194.9 717.2 194.9 717.2 125 717.2 55.1 401.6 55.1 85.9 55.1 85.9 31.8 85.9 8.5 50.9 8.5 16 8.5 16 476.7 16 944.9ZM484.2 944.9L952.4 944.9 952.4 910 952.4 875 519.1 875 85.9 875 85.9 850.7 85.9 826.3 202.4 826.3 318.9 826.3 318.9 757.4 318.9 688.6 202.4 688.6 85.9 688.6 85.9 652.6 85.9 616.6 273.4 616.6 460.9 616.6 460.9 546.6 460.9 476.7 273.4 476.7 85.9 476.7 85.9 440.7 85.9 404.7 214.1 404.7 342.2 404.7 342.2 335.8 342.2 267 214.1 267 85.9 267 85.9 231 85.9 194.9 401.6 194.9 717.2 194.9 717.2 125 717.2 55.1 401.6 55.1 85.9 55.1 85.9 31.8 85.9 8.5 50.9 8.5 16 8.5 16 476.7 16 944.9ZM414.3 826.3L460.9 826.3 460.9 757.4 460.9 688.6 414.3 688.6 367.7 688.6 367.7 757.4 367.7 826.3ZM484.2 944.9L952.4 944.9 952.4 910 952.4 875 519.1 875 85.9 875 85.9 850.7 85.9 826.3 202.4 826.3 318.9 826.3 318.9 757.4 318.9 688.6 202.4 688.6 85.9 688.6 85.9 652.6 85.9 616.6 273.4 616.6 460.9 616.6 460.9 546.6 460.9 476.7 273.4 476.7 85.9 476.7 85.9 440.7 85.9 404.7 214.1 404.7 342.2 404.7 342.2 335.8 342.2 267 214.1 267 85.9 267 85.9 231 85.9 194.9 401.6 194.9 717.2 194.9 717.2 125 717.2 55.1 401.6 55.1 85.9 55.1 85.9 31.8 85.9 8.5 50.9 8.5 16 8.5 16 476.7 16 944.9ZM613.4 616.6L717.2 616.6 717.2 546.6 717.2 476.7 613.4 476.7 509.6 476.7 509.6 546.6 509.6 616.6ZM601.8 404.7L647.3 404.7 647.3 335.8 647.3 267 601.8 267 556.2 267 556.2 335.8 556.2 404.7ZM449.2 404.7L507.5 404.7 507.5 335.8 507.5 267 449.2 267 391 267 391 335.8 391 404.7ZM484.2 944.9L952.4 944.9 952.4 910 952.4 875 519.1 875 85.9 875 85.9 850.7 85.9 826.3 202.4 826.3 318.9 826.3 318.9 757.4 318.9 688.6 202.4 688.6 85.9 688.6 85.9 652.6 85.9 616.6 273.4 616.6 460.9 616.6 460.9 546.6 460.9 476.7 273.4 476.7 85.9 476.7 85.9 440.7 85.9 404.7 214.1 404.7 342.2 404.7 342.2 335.8 342.2 267 214.1 267 85.9 267 85.9 231 85.9 194.9 401.6 194.9 717.2 194.9 717.2 125 717.2 55.1 401.6 55.1 85.9 55.1 85.9 31.8 85.9 8.5 50.9 8.5 16 8.5 16 476.7 16 944.9ZM484.2 944.9L952.4 944.9 952.4 910 952.4 875 519.1 875 85.9 875 85.9 850.7 85.9 826.3 202.4 826.3 318.9 826.3 318.9 757.4 318.9 688.6 202.4 688.6 85.9 688.6 85.9 652.6 85.9 616.6 273.4 616.6 460.9 616.6 460.9 546.6 460.9 476.7 273.4 476.7 85.9 476.7 85.9 440.7 85.9 404.7 214.1 404.7 342.2 404.7 342.2 335.8 342.2 267 214.1 267 85.9 267 85.9 231 85.9 194.9 401.6 194.9 717.2 194.9 717.2 125 717.2 55.1 401.6 55.1 85.9 55.1 85.9 31.8 85.9 8.5 50.9 8.5 16 8.5 16 476.7 16 944.9ZM847.5 194.9L929.1 194.9 929.1 125 929.1 55.1 847.5 55.1 766 55.1 766 125 766 194.9Z"></path>
</svg>