<svg xmlns="http://www.w3.org/2000/svg" width="1000" height="1000">
    <path d="m244.622955,461.257989c-9.406153,5.960309 -21.634151,4.966924 -30.099688,-0.993385l-112.873831,-79.470786c-13.168614,-8.940463 -16.931075,-26.82139 -9.406153,-40.728778l112.873831,-211.590967c4.703076,-9.933848 15.049844,-15.894157 25.396612,-15.894157l59.258761,0l0,-0.993385c-6.584307,-14.900772 0,-32.781699 14.109229,-39.735393l66.783683,-34.768469c15.990459,-7.947079 34.802764,0.993385 40.446456,18.874312l18.812305,61.589859l132.626751,-62.583244c10.346768,-4.966924 22.574766,-2.980154 31.040303,4.966924l162.726439,152.981262l83.714758,0c8.465537,0 16.931075,4.966924 22.574766,11.920618l101.586448,135.100336c9.406153,12.914003 7.524922,32.781699 -5.643692,43.708932l-103.467678,85.431095l-51.733839,201.657118c-2.821846,8.940463 -8.465537,16.887542 -17.87169,20.861081l-132.626751,56.622935l10.346768,60.596474c1.881231,10.927233 -1.881231,22.847851 -10.346768,29.801545l-122.279983,100.331867c-15.990459,12.914003 -39.505841,5.960309 -46.090148,-14.900772l-31.040303,-100.331867c-4.703076,-14.900772 1.881231,-31.788314 15.990459,-37.748623l39.505841,-17.880927l-223.866431,-350.664841l-40.446456,23.841236zm520.160237,-240.399126l-8.465537,-7.947079l-11.287383,0l19.75292,7.947079zm-607.637455,124.173103l74.308605,52.649395l48.911993,-28.80816c13.168614,-7.947079 30.099688,-2.980154 38.565226,9.933848l258.669195,405.301007c10.346768,16.887542 4.703076,38.742008 -12.227998,46.689087l-47.971378,20.861081l10.346768,31.788314l74.308605,-62.583244l-11.287383,-66.556783c-2.821846,-14.900772 4.703076,-28.80816 17.87169,-34.768469l142.032904,-60.596474l49.852609,-196.690194c1.881231,-5.960309 5.643692,-11.920618 10.346768,-15.894157l88.417834,-72.517092l-73.36799,-98.345097l-80.892912,0c-6.584307,0 -14.109229,-2.980154 -18.812305,-7.947079l-157.082748,-148.014338l-145.795365,69.536937c-15.990459,7.947079 -34.802764,-0.993385 -39.505841,-18.874312l-18.812305,-61.589859l-10.346768,5.960309l7.524922,16.887542c8.465537,19.867696 -5.643692,43.708932 -27.277842,43.708932l-87.477219,0l-90.299065,169.868804zm606.69684,308.942679l-13.168614,4.966924l-3.762461,14.900772l16.931075,-19.867696zm-147.676595,155.961417l-14.109229,10.927233l3.762461,18.874312l10.346768,-29.801545zm-369.661796,-401.327467l-15.049844,-10.927233l-15.049844,8.940463l30.099688,1.98677zm-187.182436,-343.711148l0,124.173103l-59.258761,0l0,-124.173103l0,-61.589859l176.835668,0l0,61.589859l-117.576907,0zm0,870.205102l117.576907,0l0,61.589859l-176.835668,0l0,-61.589859l0,-125.166487l59.258761,0l0,125.166487zm881.356495,-870.205102l-117.576907,0l0,-61.589859l176.835668,0l0,61.589859l0,124.173103l-59.258761,0l0,-124.173103zm0,870.205102l0,-125.166487l59.258761,0l0,125.166487l0,61.589859l-176.835668,0l0,-61.589859l117.576907,0z" />
</svg>