<?xml version="1.0" encoding="utf-8"?>
<!-- Generator: Adobe Illustrator 16.0.3, SVG Export Plug-In . SVG Version: 6.00 Build 0)  -->
<!DOCTYPE svg PUBLIC "-//W3C//DTD SVG 1.1//EN" "http://www.w3.org/Graphics/SVG/1.1/DTD/svg11.dtd">
<svg version="1.1" id="Layer_2" xmlns="http://www.w3.org/2000/svg" xmlns:xlink="http://www.w3.org/1999/xlink" x="0px" y="0px"
     width="64px" height="64px" viewBox="0 0 64 64" enable-background="new 0 0 64 64" xml:space="preserve">
<path fill="#A1ADB8" d="M59,15H5c-1.1,0-2,0.9-2,2v30c0,1.1,0.9,2,2,2h54c1.1,0,2-0.9,2-2V17C61,15.9,60.1,15,59,15z M58,45
	c0,0.5-0.5,1-1,1H7c-0.5,0-1-0.5-1-1V19c0-0.5,0.5-1,1-1h50c0.5,0,1,0.5,1,1V45z"/>
    <path fill="#A1ADB8" d="M55,42c0,0.5-0.5,1-1,1H34c-0.5,0-1-0.5-1-1V22c0-0.5,0.5-1,1-1h20c0.5,0,1,0.5,1,1V42z"/>
</svg>
