<?xml version="1.0" encoding="utf-8"?>
<!-- Generator: Adobe Illustrator 16.0.3, SVG Export Plug-In . SVG Version: 6.00 Build 0)  -->
<!DOCTYPE svg PUBLIC "-//W3C//DTD SVG 1.1//EN" "http://www.w3.org/Graphics/SVG/1.1/DTD/svg11.dtd">
<svg version="1.1" id="Layer_2" xmlns="http://www.w3.org/2000/svg" xmlns:xlink="http://www.w3.org/1999/xlink" x="0px" y="0px"
	 width="64px" height="64px" viewBox="0 0 64 64" enable-background="new 0 0 64 64" xml:space="preserve">
<path fill="#A1ADB8" d="M19,19c0,0.5-0.5,1-1,1H7c-0.5,0-1-0.5-1-1v-8c0-0.5,0.5-1,1-1h11c0.5,0,1,0.5,1,1V19z"/>
	<path opacity="0.5" fill="#A1ADB8" d="M34,19c0,0.5-0.5,1-1,1H22c-0.5,0-1-0.5-1-1v-8c0-0.5,0.5-1,1-1h11c0.5,0,1,0.5,1,1V19z"/>
	<path opacity="0.5" fill="#A1ADB8" d="M49,19c0,0.5-0.5,1-1,1H37c-0.5,0-1-0.5-1-1v-8c0-0.5,0.5-1,1-1h11c0.5,0,1,0.5,1,1V19z"/>
	<rect x="6" y="26" fill="#A1ADB8" width="50" height="3"/>
	<rect x="6" y="38" fill="#A1ADB8" width="50" height="3"/>
	<rect x="6" y="50" fill="#A1ADB8" width="50" height="3"/>
	<rect x="6" y="44" fill="#A1ADB8" width="37" height="3"/>
	<rect x="6" y="32" fill="#A1ADB8" width="37" height="3"/>
</svg>
