<svg xmlns="http://www.w3.org/2000/svg" width="1000" height="1000">
    <path d="m321.517829,805.966068l0,-107.692004q0,-8.051739 -5,-13.084075t-13,-5.032337l-179,0q-7,0 -12,5.032337t-6,13.084075l0,107.692004q0,8.051739 6,13.084075t12,5.032337l179,0q8,0 13,-5.032337t5,-13.084075zm0,-215.384008l0,-108.698471q0,-7.045271 -5,-12.077608t-13,-5.032337l-179,0q-7,0 -12,5.032337t-6,12.077608l0,108.698471q0,7.045271 6,12.077608t12,5.032337l179,0q8,0 13,-5.032337t5,-12.077608zm285,215.384008l0,-107.692004q0,-8.051739 -5,-13.084075t-12,-5.032337l-179,0q-8,0 -13,5.032337t-5,13.084075l0,107.692004q0,8.051739 5,13.084075t13,5.032337l179,0q7,0 12,-5.032337t5,-13.084075zm-285,-431.774483l0,-107.692004q0,-8.051739 -5,-13.084075t-13,-5.032337l-179,0q-7,0 -12,5.032337t-6,13.084075l0,107.692004q0,8.051739 6,13.084075t12,5.032337l179,0q8,0 13,-5.032337t5,-13.084075zm285,216.390475l0,-108.698471q0,-7.045271 -5,-12.077608t-12,-5.032337l-179,0q-8,0 -13,5.032337t-5,12.077608l0,108.698471q0,7.045271 5,12.077608t13,5.032337l179,0q7,0 12,-5.032337t5,-12.077608zm286,215.384008l0,-107.692004q0,-8.051739 -5,-13.084075t-13,-5.032337l-178,0q-8,0 -13,5.032337t-5,13.084075l0,107.692004q0,8.051739 5,13.084075t13,5.032337l178,0q8,0 13,-5.032337t5,-13.084075zm-286,-431.774483l0,-107.692004q0,-8.051739 -5,-13.084075t-12,-5.032337l-179,0q-8,0 -13,5.032337t-5,13.084075l0,107.692004q0,8.051739 5,13.084075t13,5.032337l179,0q7,0 12,-5.032337t5,-13.084075zm286,216.390475l0,-108.698471q0,-7.045271 -5,-12.077608t-13,-5.032337l-178,0q-8,0 -13,5.032337t-5,12.077608l0,108.698471q0,7.045271 5,12.077608t13,5.032337l178,0q8,0 13,-5.032337t5,-12.077608zm0,-216.390475l0,-107.692004q0,-8.051739 -5,-13.084075t-13,-5.032337l-178,0q-8,0 -13,5.032337t-5,13.084075l0,107.692004q0,8.051739 5,13.084075t13,5.032337l178,0q8,0 13,-5.032337t5,-13.084075zm72,-179.151184l0,610.925667q0,37.239291 -27,63.407442t-63,26.168151l-750,0q-36,0 -63,-26.168151t-26,-63.407442l0,-610.925667q0,-37.239291 26,-63.407442t63,-27.174618l750,0q37,0 63,27.174618t27,63.407442z" />
</svg>