<?xml version="1.0" encoding="utf-8"?>
<!-- Generator: Adobe Illustrator 16.0.3, SVG Export Plug-In . SVG Version: 6.00 Build 0)  -->
<!DOCTYPE svg PUBLIC "-//W3C//DTD SVG 1.1//EN" "http://www.w3.org/Graphics/SVG/1.1/DTD/svg11.dtd">
<svg version="1.1" id="Layer_2" xmlns="http://www.w3.org/2000/svg" xmlns:xlink="http://www.w3.org/1999/xlink" x="0px" y="0px"
     width="64px" height="64px" viewBox="0 0 64 64" enable-background="new 0 0 64 64" xml:space="preserve">
<path fill="#A1ADB8" d="M56,22H22V12c0-1.1-0.9-2-2-2H8c-1.1,0-2,0.9-2,2v40c0,1.1,0.9,2,2,2h48c1.1,0,2-0.9,2-2V24
	C58,22.9,57.1,22,56,22z"/>
    <path opacity="0.5" fill="#A1ADB8" d="M40,18c0,1.1-0.9,2-2,2H26c-1.1,0-2-0.9-2-2v-6c0-1.1,0.9-2,2-2h12c1.1,0,2,0.9,2,2V18z"/>
    <path opacity="0.5" fill="#A1ADB8" d="M58,18c0,1.1-0.9,2-2,2H44c-1.1,0-2-0.9-2-2v-6c0-1.1,0.9-2,2-2h12c1.1,0,2,0.9,2,2V18z"/>
</svg>
