<?xml version="1.0" encoding="utf-8"?>
<!-- Generator: Adobe Illustrator 16.0.3, SVG Export Plug-In . SVG Version: 6.00 Build 0)  -->
<!DOCTYPE svg PUBLIC "-//W3C//DTD SVG 1.1//EN" "http://www.w3.org/Graphics/SVG/1.1/DTD/svg11.dtd">
<svg version="1.1" id="Layer_2" xmlns="http://www.w3.org/2000/svg" xmlns:xlink="http://www.w3.org/1999/xlink" x="0px" y="0px"
     width="64px" height="64px" viewBox="0 0 64 64" enable-background="new 0 0 64 64" xml:space="preserve">
<path fill="#A1ADB8" d="M59,15H5c-1.1,0-2,0.9-2,2v30c0,1.1,0.9,2,2,2h54c1.1,0,2-0.9,2-2V17C61,15.9,60.1,15,59,15z M58,45
	c0,0.5-0.5,1-1,1H7c-0.5,0-1-0.5-1-1V19c0-0.5,0.5-1,1-1h50c0.5,0,1,0.5,1,1V45z"/>
    <g>
	<path fill="#A1ADB8" d="M23.8,39h-3.4l-1-3.1h-5l-1,3.1H10l5.1-14h3.7L23.8,39z M18.7,33.5l-1.5-4.7C17,28.4,17,28,16.9,27.5h-0.1
		c0,0.4-0.1,0.8-0.2,1.2l-1.5,4.7H18.7z"/>
</g>
    <path fill="#A1ADB8" d="M31,23c0.5,0,1-0.5,1-1l0,0c0-0.5-0.5-1-1-1h-2c-0.5,0-1,0.2-1,0.5S27.8,22,27.5,22S27,21.8,27,21.5
	S26.5,21,26,21h-2c-0.5,0-1,0.5-1,1l0,0c0,0.5,0.5,1,1,1h1c0.5,0,1,0.5,1,1v16c0,0.5-0.5,1-1,1h-1c-0.5,0-1,0.5-1,1l0,0
	c0,0.5,0.5,1,1,1h2c0.5,0,1-0.2,1-0.5s0.2-0.5,0.5-0.5s0.5,0.2,0.5,0.5s0.5,0.5,1,0.5h2c0.5,0,1-0.5,1-1l0,0c0-0.5-0.5-1-1-1h-1
	c-0.5,0-1-0.5-1-1V24c0-0.5,0.5-1,1-1H31z"/>
</svg>
