<?xml version="1.0" encoding="utf-8"?>
<!-- Generator: Adobe Illustrator 16.0.3, SVG Export Plug-In . SVG Version: 6.00 Build 0)  -->
<!DOCTYPE svg PUBLIC "-//W3C//DTD SVG 1.1//EN" "http://www.w3.org/Graphics/SVG/1.1/DTD/svg11.dtd">
<svg version="1.1" id="Layer_2" xmlns="http://www.w3.org/2000/svg" xmlns:xlink="http://www.w3.org/1999/xlink" x="0px" y="0px"
     width="64px" height="64px" viewBox="0 0 64 64" enable-background="new 0 0 64 64" xml:space="preserve">
<path fill="#A1ADB8" d="M58,5H6C4.9,5,4,5.9,4,7v50c0,1.1,0.9,2,2,2h52c1.1,0,2-0.9,2-2V7C60,5.9,59.1,5,58,5z M57,55
	c0,0.5-0.5,1-1,1H8c-0.5,0-1-0.5-1-1V9c0-0.5,0.5-1,1-1h48c0.5,0,1,0.5,1,1V55z"/>
    <rect x="12" y="30" fill="#A1ADB8" width="36" height="3"/>
    <rect x="12" y="42" fill="#A1ADB8" width="36" height="3"/>
    <rect x="12" y="36" fill="#A1ADB8" width="23" height="3"/>
    <rect x="12" y="48" fill="#A1ADB8" width="23" height="3"/>
    <g>
	<path fill="#A1ADB8" d="M25.9,27h-3.4l-1-3.1h-5l-1,3.1h-3.4l5.1-14h3.7L25.9,27z M20.8,21.5l-1.5-4.7c-0.1-0.4-0.2-0.8-0.2-1.3
		h-0.1c0,0.4-0.1,0.8-0.2,1.2l-1.5,4.7H20.8z"/>
</g>
</svg>
