<?xml version="1.0" encoding="utf-8"?>
<!-- Generator: Adobe Illustrator 16.0.3, SVG Export Plug-In . SVG Version: 6.00 Build 0)  -->
<!DOCTYPE svg PUBLIC "-//W3C//DTD SVG 1.1//EN" "http://www.w3.org/Graphics/SVG/1.1/DTD/svg11.dtd">
<svg version="1.1" id="Layer_2" xmlns="http://www.w3.org/2000/svg" xmlns:xlink="http://www.w3.org/1999/xlink" x="0px" y="0px"
     width="64px" height="64px" viewBox="0 0 64 64" enable-background="new 0 0 64 64" xml:space="preserve">
<path fill="#A1ADB8" d="M58,6H41c-1.1,0-2,0.9-2,2v10c0,1.1,0.9,2,2,2h17c1.1,0,2-0.9,2-2V8C60,6.9,59.1,6,58,6z M57,16
	c0,0.5-0.5,1-1,1H43c-0.5,0-1-0.5-1-1v-6c0-0.5,0.5-1,1-1h13c0.5,0,1,0.5,1,1V16z"/>
    <path fill="#A1ADB8" d="M34,6H6C4.9,6,4,6.9,4,8v27c0,1.1,0.9,2,2,2h28c1.1,0,2-0.9,2-2V8C36,6.9,35.1,6,34,6z M33,33
	c0,0.5-0.5,1-1,1H8c-0.5,0-1-0.5-1-1V10c0-0.5,0.5-1,1-1h24c0.5,0,1,0.5,1,1V33z"/>
    <path fill="#A1ADB8" d="M58,23H41c-1.1,0-2,0.9-2,2v10c0,1.1,0.9,2,2,2h17c1.1,0,2-0.9,2-2V25C60,23.9,59.1,23,58,23z M57,33
	c0,0.5-0.5,1-1,1H43c-0.5,0-1-0.5-1-1v-6c0-0.5,0.5-1,1-1h13c0.5,0,1,0.5,1,1V33z"/>
    <path fill="#A1ADB8" d="M58,40H6c-1.1,0-2,0.9-2,2v15c0,1.1,0.9,2,2,2h52c1.1,0,2-0.9,2-2V42C60,40.9,59.1,40,58,40z M57,55
	c0,0.5-0.5,1-1,1H8c-0.5,0-1-0.5-1-1V44c0-0.5,0.5-1,1-1h48c0.5,0,1,0.5,1,1V55z"/>
</svg>
