<?xml version="1.0" encoding="utf-8"?>
<!-- Generator: Adobe Illustrator 16.0.3, SVG Export Plug-In . SVG Version: 6.00 Build 0)  -->
<!DOCTYPE svg PUBLIC "-//W3C//DTD SVG 1.1//EN" "http://www.w3.org/Graphics/SVG/1.1/DTD/svg11.dtd">
<svg version="1.1" id="Layer_2" xmlns="http://www.w3.org/2000/svg" xmlns:xlink="http://www.w3.org/1999/xlink" x="0px" y="0px"
     width="64px" height="64px" viewBox="0 0 64 64" enable-background="new 0 0 64 64" xml:space="preserve">
<g opacity="0.5">
	<path fill="#A1ADB8" d="M62,52c0,1.1-0.9,2-2,2H4c-1.1,0-2-0.9-2-2V12c0-1.1,0.9-2,2-2h56c1.1,0,2,0.9,2,2V52z"/>
</g>
 <path fill="#A1ADB8" d="M58,38c0,1.1-0.9,2-2,2H44c-1.1,0-2-0.9-2-2V26c0-1.1,0.9-2,2-2h12c1.1,0,2,0.9,2,2V38z"/>
 <path fill="#A1ADB8" d="M22,38c0,1.1-0.9,2-2,2H8c-1.1,0-2-0.9-2-2V26c0-1.1,0.9-2,2-2h12c1.1,0,2,0.9,2,2V38z"/>
 <image overflow="visible" width="64" height="64" xlink:href="C1900F1E.jpg"  transform="matrix(1 0 0 1 -8160 -8160)">
</image>
 <path fill="#A1ADB8" d="M40,38c0,1.1-0.9,2-2,2H26c-1.1,0-2-0.9-2-2V26c0-1.1,0.9-2,2-2h12c1.1,0,2,0.9,2,2V38z"/>
 <image overflow="visible" width="64" height="64" xlink:href="C1900F22.jpg"  transform="matrix(1 0 0 1 -8160 -8160)">
</image>
</svg>
