<?xml version="1.0" encoding="utf-8"?>
<!-- Generator: Adobe Illustrator 16.0.3, SVG Export Plug-In . SVG Version: 6.00 Build 0)  -->
<!DOCTYPE svg PUBLIC "-//W3C//DTD SVG 1.1//EN" "http://www.w3.org/Graphics/SVG/1.1/DTD/svg11.dtd">
<svg version="1.1" id="Layer_2" xmlns="http://www.w3.org/2000/svg" xmlns:xlink="http://www.w3.org/1999/xlink" x="0px" y="0px"
     width="64px" height="64px" viewBox="0 0 64 64" enable-background="new 0 0 64 64" xml:space="preserve">
<rect x="19" y="12" opacity="0.5" fill="#A1ADB8" width="36" height="9"/>
    <path fill="#A1ADB8" d="M14,7v19h14v16h14v16h18V7H14z M57,55H45V42h12V55z M57,39H31V26h26V39z M57,23H17V10h40V23z"/>
    <polygon fill="#A1ADB8" points="7,50 7,36 23,36 23,34 7,34 7,16 5,16 5,52 37,52 37,50 "/>
    <rect x="33" y="28" opacity="0.5" fill="#A1ADB8" width="22" height="9"/>
    <rect x="47" y="44" opacity="0.5" fill="#A1ADB8" width="8" height="9"/>
</svg>
