<?xml version="1.0" encoding="utf-8"?>
<!-- Generator: Adobe Illustrator 16.0.3, SVG Export Plug-In . SVG Version: 6.00 Build 0)  -->
<!DOCTYPE svg PUBLIC "-//W3C//DTD SVG 1.1//EN" "http://www.w3.org/Graphics/SVG/1.1/DTD/svg11.dtd">
<svg version="1.1" id="Layer_2" xmlns="http://www.w3.org/2000/svg" xmlns:xlink="http://www.w3.org/1999/xlink" x="0px" y="0px"
     width="64px" height="64px" viewBox="0 0 64 64" enable-background="new 0 0 64 64" xml:space="preserve">
<path fill="#A1ADB8" d="M58,5H6C4.9,5,4,5.9,4,7v50c0,1.1,0.9,2,2,2h52c1.1,0,2-0.9,2-2V7C60,5.9,59.1,5,58,5z M57,55
	c0,0.5-0.5,1-1,1H8c-0.5,0-1-0.5-1-1V9c0-0.5,0.5-1,1-1h48c0.5,0,1,0.5,1,1V55z"/>
    <path fill="none" d="M9.5,16.6c-0.1-0.1-0.3-0.1-0.5-0.1v0.2C9.2,16.6,9.5,16.6,9.5,16.6z"/>
    <path fill="none" d="M53.9,32.7c-1.2-0.2-4.1-2.2-5.1-2c-0.4,0,0.7,1.2,1,1.3c0.1,0.1-0.7,0-0.7,0.1c0,0,0,0.1,0,0.1
	c0,0.4,1.3-0.4,1.3-0.4c0,0,1.1,0.8,1.1,1.2c-1.8,0.3-1.9,2.9-4.1,1.4c0-1.7-2.4-3-2.8-4.1c1.1,0,1.2-0.6,1.2-1.5
	c-0.4,0.2-1.7,0.3-1.9,0.3c0,0,0-0.1-0.1-0.1c-0.1-0.2-1.2-2.3-1.2-1.3c0.2,0.4,0.6,0.5,0.7,0.5c-1.8,1.7-0.9-2.5-3-2.1
	c0,0.1,0.1,0.3-0.1,0.3c0.2,0.1,0.4,0.3,0.5,0.5c0,0,0.1,0.1,0.1,0.1c0.2,0.2,0.4,0.4,0.8,0.6c0,0.1,0,0.2,0.1,0.3
	c-0.5,0-0.4,1-1.3,0.8c0,0-0.1-0.3-0.2-0.3c0.3,0,0.6-0.1,0.8-0.1c0.1-0.6,0-1-0.2-1.3c0,0-0.1-0.1-0.1-0.1
	c-1.1-0.8-4.5,1.7-4.2,1.7c-3.1,1.6,0.8-3.3-0.4-3.3c0,0-0.1-0.1-0.1-0.1c0,0,2.5-1.4,3.3-1.7c0-0.5-0.4-1.5,0.3-1.5
	c0.1,0,0.1,0.7,0.1,0.7c0.1,0,0.5-0.3,0.5,0c0,0-0.1,0.3-0.1,0.4c-0.1,0-0.6-0.2-0.6,0c0,0,0,0.1,0,0.1c0.2,0,0.1-0.1,0.2,0.1
	c0,0.3,2.5-0.4,2.8-1.3c0,0.1,0.1,0.4,0.3,0.3c0-0.1,0.1-0.3,0.2-0.3c-0.1,0-0.8-0.3-0.8-0.3c0,0,1.8-0.3,2-0.6
	c-2.6,0.2-1.7-2.3-1.9-2c-1,0.9-1.1,2.4-1.1,3.3c-0.3,0-0.7,0.3-1,0.4c-0.2-0.2-0.2-1.3-0.6-1.5c-2.9,0,0-1.9,1.4-3.5
	c-0.1-0.2-0.8,0.2-0.9,0.2c0.2-0.7,0.9-0.4,1.1-0.4c0-0.7,0.6-0.5,1.3-0.6c0.2-0.3,0.2-0.4,0.6-0.3c0,0,0-0.1,0.1-0.1c0,0,0,0,0,0.1
	c0.1,0,0.2,0.1,0.3,0.1c0-0.1,5.9,1.4,1.3,1.4c0.2,0.3,0.8,1.4,1.1,1.4c0,0,0.3-0.2,0.3-0.1c0-0.1-0.6-0.3-0.4-0.4
	c0.1,0,0.1,0,0.1-0.1c0,0,0.8,0.4,0.8,0.3c0.2-0.8,0.2-0.5,1-0.6c0-0.4,0-0.8-0.1-1.1c0.5,0,0.3-0.1,1.3-0.1c0-0.1,0-0.2,0-0.2
	c0,0,0,0,0,0c0,0,0-0.1,0-0.1c0,0,0,0,0,0.1c0,0,0,0,0,0c0,0.1,0,0.2,0,0.2c0,0,0.5-0.1,1.3-0.1c0.1,0.1,0.9,0.2,1.2,0.3
	c0.1-0.1,0-0.2,0.2-0.2c0.1-0.4-0.7-0.6-0.5-0.8c0.8-0.1,1.7,1,2.5,1c0-0.1,0-0.1,0.1-0.1C53.3,17,52.8,16,54.5,16
	c0.1,1.7,0.2,1.8-0.8,2.8c0.1-0.1,0.7-0.2,1.3-0.3v-1.1c-0.2-0.4-0.2-0.8,0-1.3v-6H30.5c0.3,0,0.5,0.1,0.6,0.3
	c-0.6,0-1.3,0.1-1.8,0.1c1.1,0,2,0.2,2.7,0.3c-0.7,0-2.3,0-2.7,0.5c0.4,0.1,1.4-0.1,1.8-0.1c-0.1,0.1-0.4,0-0.4,0.3
	c0.4,0,0.8-0.6,1.1-0.4c0,0,0,0.1,0.1,0.1c0,0.2-0.3,0.5-0.5,0.7c0.2,0,2.8-1.1,2.8-0.5c0,0.4-1.1,0.5-1.4,0.5c0,0.1,0.8,0,0.6,0.1
	c-0.5,0-1.3,1-1.3,1.5c0,0,0.7-0.3,0.7,0c-0.2,0.1-0.3-0.1-0.3,0.2c0.2,0,0.3,0.1,0.5,0.1c0,0.1-0.2,0.1-0.3,0.2
	c0,0.1,0,0.1,0.1,0.2c0,0,0.1,0.1,0.1,0.1c0,0-0.1-0.1-0.1-0.1c-0.1-0.1-0.1-0.2-0.1-0.2c0,0-0.1-0.1-0.4-0.1c0,0-0.1,0.1-0.1,0.1
	c0,0,0,0.2,0,0.2c0.1,0.1,0.6,1,0.6,1.1c-0.1,0-0.8,0.1-0.8,0.1c0,0.2,0.5-0.1,0.5,0.3c0,0-0.1,0.1-0.1,0.1c-0.2,0.2-0.9,0-0.9,0
	c0.2,0.2,0.1,0,0,0.2c0.2,0.1,0.3-0.3,0.5,0c0,0.1,0,0.3,0,0.4c-0.1,0-0.3-0.2-0.4-0.1c0.2,0.2,0.5,0.4,0.5,0.8c-0.6,0-0.5,0-1.2,0
	c1,0.4,0.6,0.2,0.4,0.6c-2,0.4-4.3,1.7-4.3,3.6C24,21.5,25,18,24.9,17.5c-0.1-0.1,0-0.2,0.1-0.2c0-0.2-0.6-0.1-0.7-0.1
	c0.2,0,0.3,0.1,0.3,0.3c-0.2,0-0.2,0.2-0.3,0.2c0.1,0-0.4-0.3-0.4-0.3c0-0.3,0.4,0,0.1-0.4c0.4-0.1,0.5,0.1,0.9,0.1
	c-0.5-0.3-0.7-0.2-1.2-0.5c1.1,0-1.8-2.4-3.1-2.8c-0.3,0.1-0.5,0.2-0.5,0.1c0-0.2,0.2-0.2,0.5-0.1c0.3-0.1,0.5-0.2,0.5-0.2
	c-0.4,0-1.1,0.2-1.4-0.1c0-0.1,0-0.1-0.1-0.2c-0.2-0.2,1.8-0.5,1.8-0.6c0,0,0.1-0.3,0-0.3c0,0,0-0.1,0-0.2c0,0-0.6,0.1-0.6-0.1
	c0-0.2,0.1-0.3,0.3-0.4c-1.3,0.7-1.4,0.8-2.7,1c0,0-0.3,0.3-0.2,0.3c0.1,0,0.8-0.5,0.8,0.1c0-0.1-0.7,1.1-0.7,1
	c-0.9,0.2-1.7,0.3-2.8-0.1c0.3-0.1,0.4-0.2,0.3-0.5c0.7,0.2,0.9,0,1.4-0.1c-0.7-0.1-0.4-0.1-1.1-0.3c0.5-0.2,0.8,0.1,1.2,0.1
	c-0.1-0.1,0.1-0.3,0.2-0.3c-0.5-0.3-0.8-0.4-1.2-0.8c0.3,0.2,0.9,0.3,1.3,0.4c-0.2-0.1-0.5-0.4-0.4-0.4c0.4-0.1,1.1-0.1,1.4-0.3
	c-0.1,0-0.3-0.1-0.4-0.1c-0.1,0-0.1,0-0.1,0c0,0,0.1,0,0.1,0c0.2-0.1,0.4-0.2,0.4-0.2c-0.8,0.3-1.4,0.4-2.3,0.6c0-0.1,0-0.3,0.1-0.4
	c-0.7,0.3-1,0-1.5-0.4c1.2-0.2,1.5-0.6,2.9-0.1c-0.2-0.2-0.5-0.3-0.8-0.3c0.5-0.2,5.4-0.7,5.2,0.1c-0.1,0.2-1.5,0.4-1.7,0.5
	c0.1,0,1,0,0.9,0c-0.1,0.1-0.2,0.1-0.3,0.2c0.6-0.3,1.8-0.2,2.1-0.2C23.5,11.2,23.1,11,23,11c0.8-0.7,1.4,0.4,1.4,0.4
	c0,0,0.1-0.4,0.1-0.5c0,0,0,0-0.1,0c0,0,0,0,0.1,0c0.3,0.1,0.6,0.3,0.9,0.4c0.1-0.1-0.4-0.5-0.4-0.5c0.2,0,1.5,0.3,1.5,0.4
	c0-0.3-0.4-0.4-0.6-0.4c0,0,0-0.1,0-0.1c0-0.2,0.4,0.1,0.4,0.1c0-0.2-0.1-0.2-0.3-0.3c0.3,0,1.9-0.3,3.2-0.4H9v3.6
	c0.1,0,0.3-0.1,0.5-0.1C9.3,13.8,9.1,13.9,9,14v1.3c0.2,0.1,0.3,0.2,0.5,0.3C9.3,15.8,9.1,15.9,9,16v0.2c0.8-0.4,1.5-0.5,1.7-0.4
	c0.4,0,0.4,0.4,0.6,0.6c0.2-0.2-0.2-0.4-0.1-0.7c0.9,0.6,1.4,1.5,1.5,1.8c-0.3,0.1-0.7,0.2-1,0.2c-0.8,0.5-0.4,0.3,0,0
	c-0.9,0.1-1.8-0.1-2.7-0.5c0.3-0.1,0.9,0,1.2-0.1c-0.1,0-0.9-0.2-1.2-0.3v0.8c0.8,0.3,1.6,0.7,2.4,1.1c0.3-0.1,2.2-1.2,2-1.1
	c0.2,0,0.3-0.2,0.3-0.3c0.3,0.5,0.5,0.6,0.7,1.1c-0.1-0.3,0.3-0.8,0.4-0.8c-0.1,0.1-0.3,0.2-0.5,0.2c-0.4-2,1.2-0.9,2,0.6
	c0.1-0.4,0.5-0.9,0.6-1.2c-0.4-0.1-0.8-0.2-1.1-0.4c0.1,0,0.3,0,0.4,0c-0.2-1.1-0.8-0.5,0.6-1.3c-0.4,0.6-0.3,0.4,0,1.1
	c0.1-1.6,0.4-0.5,1-0.3c1.7-0.3,3.2,0.5,3.1,1.6c0.5,0.3,1.2,0.7,1.7,0.9c-0.9,0-0.4,0.3-1.5,0c-0.1,0.1-0.2,0.1-0.2,0.2
	c0.3,0.5,0.6,1.1,0.8,1.5c-0.2,0.1-0.8-0.6-1-0.6c0.1,0.2,0.8,0.7,0.7,0.8c-1.1-0.4-1.9-0.7-2.9-1c2.3-1,0.5-2.7-1-2.4
	c0,0.2-0.1,0.2-0.3,0.1c0.2,1.4,0.5,0.6-0.3,1.9c0.2,0.2,0.9,0.7,1.1,0.8c-0.7-0.2-1.1-0.1-1.6-0.2c0,0,0.4-0.7,0.3-1
	c-0.4,0.2-0.3,0.2-1.2,0.3c0,0.1,0.7,0.3,0.9,0.3c0,0,0,0,0,0c0,0,0,0,0,0c-0.6,0.2-0.7,0.3-1.6,0.4c0.2,0,0.9,0.4,0.8,0.4
	c-2.3,2.2,1.7,2.4,2.4,4.3c0.3-0.5,0.5-4,0.5-4c2.1-1.5,1.5,2.6,3.3,0.7c0.8,1.2,1,1.2,1.7,2c-0.1-0.1-0.7,0.4-0.8,0.4
	c0.2,0,0.9,0,1.1,0c-0.7,0.9-2.2,1.2-3.5,1.6c0.2,0-0.3,0.6-0.3,0.7c0.6-0.4,1.1-0.6,1.7-0.9c0.2,0.2,0.7,0.5,1,0.7
	c-0.4,0.4-0.8,0.8-1.4,1c0-0.1,0.2-0.4,0.4-0.4c-1.2,0-2.3,1.6-2.9,2.1c-0.4,0.9-0.9,2.2-0.9,3.7c-2.7-5.5-5.7,4.5-1.5,1
	c-0.1,0.4-0.3,0.9-0.5,1.3c1.1,0.6,1.8,1.2,2.7,2.1c-0.5,0.1-0.7,0-1.4-0.2c-1.1-1.4-2.5-1-3.9-2c-1.5-1.1-2.2-2.7-3.6-4
	c0.4,0.8,0.9,1.7,1.3,2.4c-0.8-0.9-1.4-2-1.9-3.2V54h46V35.6C54.5,34.5,54.1,32.7,53.9,32.7z M53.9,15.7
	C53.9,15.7,53.9,15.7,53.9,15.7C53.9,15.7,53.9,15.7,53.9,15.7C54.8,15.5,53.6,15.9,53.9,15.7z M52.1,11.7c0.4,0,0.5,0,0.6,0
	C52.7,11.7,52.5,11.7,52.1,11.7C52.1,11.7,52.1,11.7,52.1,11.7C52.1,11.7,52.1,11.7,52.1,11.7z M51.9,11.8c0,0.4-0.5,0-0.6,0
	C51.7,11.4,51.7,11.8,51.9,11.8z M51.3,12.1C51.4,12.1,51.2,12.4,51.3,12.1L51.3,12.1z M51.1,11.3c0,0.3-0.3,0.3,0.2,0.3
	c0,0,0,0.2,0,0.2c-0.4,0-1.2,0.1-1.5,0.3C50.4,11.8,50.4,11.3,51.1,11.3z M51,12c0,0.3-0.4,0.1-0.5,0C50.7,12.1,51.7,11.9,51,12z
	 M53.6,13.9C53.6,14,53.6,14,53.6,13.9c0.1,1.5-3.8,0.3-2.8,3.1c-0.5,0-1.4-0.4-1.4-0.5C49.4,16.3,52.5,12.6,53.6,13.9z M49.2,11.5
	c0,0,0,0.2,0.2,0.2c-0.8,0.7-0.8,0.2-1.3,0.1C48.4,11.8,48.8,11.5,49.2,11.5z M41.7,12c0.4,0,1.8-0.2,2,0.3
	c-0.2,0.1-1.5,0.8-1.8,0.2C42.9,12.2,41.4,12,41.7,12z M40,12.9c0-1.5,0.7,0.1,1-0.2c0.6-0.2,1.2,0.1,2.2,0.9
	c-0.2-0.1-0.8,0.1-1,0.1c0-0.6,0-0.3-0.4-0.6c0,0.3-0.3,0.8-0.6,1.1c-0.1-0.2-0.6-0.2-0.6-0.5c0.1-0.1,0.5,0,0.7-0.2
	c-0.1-0.1-0.6,0.1-0.8,0.1c0.2-0.2,0.6-0.1,0.8-0.3c0,0,0-0.1,0-0.2C40.5,13.1,39.5,12.8,40,12.9z M14.6,11.5c0.1,0.1,1.9,1,2.1,1.2
	c-1,0.4-1,0.4-2.1,0.1c0.1,0,0.5-0.2,0.5-0.2c-0.5,0-0.8-0.1-1-0.5C14.3,11.6,14.8,11.7,14.6,11.5z M15.1,13.6
	C15.6,13.6,15.9,13.5,15.1,13.6L15.1,13.6z M14.2,13.6C15.1,13.3,14.7,13.5,14.2,13.6L14.2,13.6z M14.3,13.7
	C14.3,13.7,15,14.8,14.3,13.7L14.3,13.7z M13.7,12.8C14.1,13.1,14.7,13.7,13.7,12.8L13.7,12.8z M13.1,12.1
	C13.4,12.3,13.6,12.4,13.1,12.1L13.1,12.1z M13.4,13.4c-1.4-0.3-1-0.7-1.2-0.9C12.7,12.9,13.2,12.6,13.4,13.4z M12.5,13.4
	C12.8,13.4,13,13.5,12.5,13.4L12.5,13.4z M11.8,13.4C12.2,13.9,12.1,13.8,11.8,13.4L11.8,13.4z M10.2,12.9
	C11.6,13.1,10.2,12.9,10.2,12.9L10.2,12.9z M10.8,13.5c-0.6,0.4-0.5-0.2-0.5-0.2C10.6,13.5,11,13.1,10.8,13.5z M9.7,13.2
	C9.9,13.7,9.7,13.3,9.7,13.2L9.7,13.2z M10,14C9.5,13.7,9.9,13.9,10,14L10,14z M9.8,15.1c-0.2-0.1,0.6-0.3,0.6-0.3
	c-0.5-0.1-1,0.1-1.5,0c0.6-0.2,1.5,0,2-0.2c-0.3,0-0.2-0.5,0.2-0.5C11.2,14.7,12,15,9.8,15.1z M11.2,15.6
	C11.4,15.5,11.5,15.5,11.2,15.6L11.2,15.6z M12.1,15.5C11.9,15.6,11.4,15.9,12.1,15.5L12.1,15.5z M12,14.7
	C12.3,14.8,12.4,14.8,12,14.7L12,14.7z M12.1,13.9c0,0,0.7,0.5,0.7,0.5c0-0.2,0.2-0.4,0.4-0.3c-0.2-0.3,0.2,0,0.6,0.1
	C13.2,14.4,13.1,15.2,12.1,13.9z M12.9,16.2C13.2,15.4,14.5,15.5,12.9,16.2L12.9,16.2z M13.7,15.1C13.8,15.1,14,15,13.7,15.1
	L13.7,15.1z M14.1,14.8C15,14.8,14.8,14.8,14.1,14.8L14.1,14.8z M14.3,15.6c0.2,0.1,0.6-0.5,1.2-0.1C14.6,16.6,14.7,15.7,14.3,15.6z
	 M15.4,15.1c-0.3-0.4-0.5-0.5-0.5-1c0.9,0.2,2,0.3,3.1,0.6C17.4,15.2,16.5,15.1,15.4,15.1z M18.2,15.5C18,15.2,19.1,16.7,18.2,15.5
	L18.2,15.5z M19.1,18.2c-0.1,0-0.3,0-0.5,0C18.8,18.2,19,18.2,19.1,18.2C19.1,18.2,19.1,18.2,19.1,18.2z M17.5,20.3
	C17.1,20.7,17.2,20.4,17.5,20.3L17.5,20.3z M18.3,20.6C17.6,20.5,18.3,20.3,18.3,20.6L18.3,20.6z M22.3,25C22.3,25,22.3,25,22.3,25
	C22.3,25.4,21.3,24.4,22.3,25C22.3,25,22.3,25,22.3,25z M23.8,24.9c0.6,0,0.6,0.5,0.6,0.9c0-0.1-1.1-0.2-1.2-0.3
	C23.1,24,24.1,24.9,23.8,24.9z M21.5,33.8c-0.1-0.1-1.4,0.1-1.8-0.3C20,33.5,21.4,33.7,21.5,33.8z M16.8,32.8c0-0.4,1.1-0.1,1.2,0
	c1.4,0.3,0.5,0.6,0.5,0.6C18.4,33.4,16.8,32.7,16.8,32.8z M18.9,34C18.3,34.6,18.8,33.1,18.9,34L18.9,34z M23.1,47.5
	c0.3,1.2-0.5,1.8-1.6,1.9c0,0.4,0.3,0.5,0.3,0.4c-0.2,0.3-1.6,1.6-0.5,1.6c-0.6,1.7,0.1,1.4,0.1,2.5c-1.5,0-3.1-2.2-2-2.2
	c0,0,0-0.1,0-0.1c-0.1,0-0.5-0.4-0.5-0.5c0-0.5,0.4-0.1,0.4-0.1c0-0.2-0.2-0.3-0.2-0.5c0.1,0,0.1,0,0.1-0.1c0,0.1,0,0.3,0.2,0.3
	c0-0.4,0.1-0.9,0.2-1.1c-0.4,0.1-0.1,0.5-0.4,0.5c0,0-0.2-0.1-0.2-0.1c0-1.7,1.1-3.8,1.1-5.9c-0.4-2-2.8-3-2.3-5.1
	c-0.3,0,0.9-3.2,2.1-3.7c0,0-0.5,1-0.1,1c0-1.3,5.2,0.3,4.8,2.4c0.3,0.2,0.6-0.6,0.5,0.3c0.4,0,3.5,0.1,3.5,1.5
	C28.8,43,24.6,47.4,23.1,47.5z M35.7,22.2c0.1,0,0.4-0.8,0.6-0.4c0,0.5,0,0.4,0,0.9c0.2,1,2.5,2-0.5,2c0,0,0.6-0.4,0.6-0.4
	c-0.1-0.1-0.5,0-0.5-0.1c0,0,0-0.3,0-0.4c0,0,0,0,0,0c0-0.1,0,0,0,0c0.1,0,0.5-0.1,0.5-0.1C36.4,23.4,35.1,22.2,35.7,22.2z
	 M35.3,22.1C35.3,22.1,35.3,22.1,35.3,22.1C35.4,21.9,35.8,21.9,35.3,22.1C35.3,22.1,35.3,22.1,35.3,22.1z M34.7,24.2
	C34.7,23.2,36.2,22.6,34.7,24.2L34.7,24.2z M31.3,19.5c0-0.3,0.2-0.2,0.5-0.2c-0.1-0.3-0.2-0.2-0.5-0.2c0-1,2.4,0.3,2.5,0.3
	c-0.5,0-0.8,0.5-1.2,0.5C32.1,20,31.6,19.5,31.3,19.5z M49.2,42.5C49.2,49.4,46.4,39.6,49.2,42.5L49.2,42.5z M46.8,41.9
	c-0.7,1.9-1.8,3.2-2.9,5.1c-0.4,2.7-3.8-2.1-3.8-3.5c0-2.2-1-4.2-0.7-6.1c-1.7-0.5-3.1,0.1-4.7-0.3c-1.5-0.3-1.5-3.7-2-3.7
	c0.5-0.9,5.4-7.6,6.9-4.5c-0.8,0,4.8,1.8,5.2,2.2c1.7,1.9,1.3,5.1,4.3,4.7C49.2,38.1,46.8,39.2,46.8,41.9z"/>
    <path fill="#A1ADB8" d="M53.9,15.7C53.6,15.9,54.8,15.5,53.9,15.7L53.9,15.7z"/>
    <path fill="#A1ADB8" d="M51.9,11.8c-0.2,0-0.2-0.4-0.6,0C51.4,11.8,51.9,12.2,51.9,11.8z"/>
    <path fill="#A1ADB8" d="M51.3,12.1C51.2,12.4,51.4,12.1,51.3,12.1L51.3,12.1z"/>
    <path fill="#A1ADB8" d="M51,12c0.7-0.1-0.3,0-0.5,0C50.6,12.1,51,12.3,51,12z"/>
    <path fill="#A1ADB8" d="M51.2,11.5c-0.5,0-0.1,0-0.2-0.3c-0.6,0-0.7,0.6-1.3,0.7c0.3-0.1,1-0.3,1.5-0.3
	C51.2,11.7,51.2,11.5,51.2,11.5z"/>
    <path fill="#A1ADB8" d="M50.8,17c-1-2.8,2.9-1.5,2.9-3c0,0-0.1,0-0.1-0.1c-1.1-1.3-4.2,2.4-4.2,2.5C49.4,16.6,50.3,17,50.8,17z"/>
    <path fill="#A1ADB8" d="M49.4,11.7c-0.2,0-0.1-0.2-0.2-0.2c-0.4,0-0.8,0.2-1.2,0.2C48.7,11.9,48.6,12.5,49.4,11.7z"/>
    <path fill="#A1ADB8" d="M41.9,12.4c0.2,0.6,1.6-0.1,1.8-0.2c-0.1-0.4-1.6-0.3-2-0.3C41.4,12,42.9,12.2,41.9,12.4z"/>
    <path fill="#A1ADB8" d="M41.1,13c0,0.1,0,0.1,0,0.2c-0.1,0.2-0.6,0.1-0.8,0.3c0.2,0,0.7-0.2,0.8-0.1c-0.2,0.2-0.5,0-0.7,0.2
	c0,0.3,0.5,0.3,0.6,0.5c0.3-0.3,0.6-0.8,0.6-1.1c0.5,0.3,0.4,0,0.4,0.6c0.2,0,0.8-0.2,1-0.1c-1-0.8-1.6-1.1-2.2-0.9
	c-0.3,0.3-1-1.2-1,0.2C39.5,12.8,40.5,13.1,41.1,13z"/>
    <path fill="#A1ADB8" d="M35.9,23.8c0,0.1,0,0.4,0,0.4c0,0.1,0.5,0,0.5,0.1c0,0-0.6,0.4-0.6,0.4c3,0,0.7-1,0.5-2c0-0.5,0-0.4,0-0.9
	c-0.2-0.5-0.5,0.4-0.6,0.4c-0.7,0,0.7,1.1,0.7,1.5C36.4,23.7,36,23.8,35.9,23.8z"/>
    <path fill="#A1ADB8" d="M35.9,23.8C35.9,23.8,35.9,23.8,35.9,23.8C35.9,23.8,35.9,23.8,35.9,23.8z"/>
    <path fill="#A1ADB8" d="M35.3,22.1C35.8,21.9,35.4,21.9,35.3,22.1L35.3,22.1z"/>
    <path fill="#A1ADB8" d="M34.7,24.2C36.2,22.6,34.7,23.2,34.7,24.2L34.7,24.2z"/>
    <path fill="#A1ADB8" d="M18,12.4c-0.1,0-0.2,0-0.2,0C17.9,12.4,18,12.5,18,12.4z"/>
    <path fill="#A1ADB8" d="M18.2,11.6c0,0,0.1,0,0.1,0C18.3,11.6,18.2,11.6,18.2,11.6z"/>
    <path fill="#A1ADB8" d="M16.6,11.6c0,0,0.1,0,0.1,0C16.7,11.5,16.7,11.5,16.6,11.6z"/>
    <path fill="#A1ADB8" d="M21.7,11.4c0-0.1-0.8,0-0.9,0c0.2,0,1.6-0.2,1.7-0.5c0.2-0.7-4.8-0.2-5.2-0.1c0.3-0.1,0.6,0,0.8,0.3
	c-1.4-0.5-1.7-0.1-2.9,0.1c0.5,0.4,0.8,0.7,1.5,0.4c0,0,0.1-0.1,0.1,0c0,0-0.1,0-0.1,0c-0.1,0.1-0.2,0.3-0.1,0.4
	c0.8-0.2,1.5-0.3,2.3-0.6c0,0-0.3,0.2-0.4,0.2c0.1,0,0.3,0.1,0.4,0.1c-0.3,0.2-1,0.2-1.4,0.3c0,0,0.2,0.3,0.4,0.4c0.1,0,0.2,0,0.2,0
	c0,0.1-0.1,0-0.2,0c-0.4-0.1-1-0.2-1.3-0.4c0.3,0.4,0.7,0.5,1.2,0.8c-0.1,0-0.3,0.2-0.2,0.3c-0.4,0.1-0.7-0.3-1.2-0.1
	c0.7,0.2,0.4,0.2,1.1,0.3c-0.5,0.1-0.7,0.3-1.4,0.1c0.1,0.3,0,0.5-0.3,0.5c1.1,0.4,1.8,0.3,2.8,0.1c0,0.1,0.7-1.1,0.7-1
	c0-0.5-0.7-0.1-0.8-0.1c-0.1,0,0.2-0.3,0.2-0.3c1.3-0.2,1.4-0.3,2.7-1c0.1,0,0.1-0.1,0.2-0.1C21.6,11.5,21.6,11.4,21.7,11.4z"/>
    <path fill="#A1ADB8" d="M9.1,17.2c0.8,0.4,1.8,0.5,2.7,0.5c0,0,0,0,0,0c0,0,0,0,0,0c0.3,0,0.7-0.1,1-0.2c-0.1-0.3-0.6-1.2-1.5-1.8
	c-0.1,0.3,0.3,0.5,0.1,0.7c-0.2-0.2-0.3-0.6-0.6-0.6c-0.2,0-0.9,0-1.7,0.4v0.2c0.2,0,0.4,0,0.5,0.1c0,0-0.3,0-0.5,0.1v0.1
	c0.4,0.1,1.1,0.3,1.2,0.3C10,17.3,9.4,17.2,9.1,17.2z"/>
    <path fill="#A1ADB8" d="M11.8,17.7L11.8,17.7C11.3,18,10.9,18.2,11.8,17.7z"/>
    <path fill="#A1ADB8" d="M11.8,17.7L11.8,17.7C11.8,17.7,11.8,17.7,11.8,17.7C11.8,17.7,11.8,17.7,11.8,17.7z"/>
    <path fill="#A1ADB8" d="M11.2,15.6C11.5,15.5,11.4,15.5,11.2,15.6L11.2,15.6z"/>
    <path fill="#A1ADB8" d="M12.1,15.5C11.4,15.9,11.9,15.6,12.1,15.5L12.1,15.5z"/>
    <path fill="#A1ADB8" d="M12,14.7C12.4,14.8,12.3,14.8,12,14.7L12,14.7z"/>
    <path fill="#A1ADB8" d="M12.9,16.2C14.5,15.5,13.2,15.4,12.9,16.2L12.9,16.2z"/>
    <path fill="#A1ADB8" d="M13.7,15.1C14,15,13.8,15.1,13.7,15.1L13.7,15.1z"/>
    <path fill="#A1ADB8" d="M14.3,13.7C15,14.8,14.3,13.7,14.3,13.7L14.3,13.7z"/>
    <path fill="#A1ADB8" d="M14.2,13.6C14.7,13.5,15.1,13.3,14.2,13.6L14.2,13.6z"/>
    <path fill="#A1ADB8" d="M14.1,14.8C14.8,14.8,15,14.8,14.1,14.8L14.1,14.8z"/>
    <path fill="#A1ADB8" d="M14.3,15.6c0.4,0.1,0.3,1,1.2-0.1C14.9,15.1,14.5,15.6,14.3,15.6z"/>
    <path fill="#A1ADB8" d="M15.4,15.1c1.1,0.1,1.9,0.1,2.6-0.5c-1.1-0.3-2.2-0.4-3.1-0.6C15,14.6,15.2,14.7,15.4,15.1z"/>
    <path fill="#A1ADB8" d="M15.1,13.6C15.9,13.5,15.6,13.6,15.1,13.6L15.1,13.6z"/>
    <path fill="#A1ADB8" d="M18.2,15.5C19.1,16.7,18,15.2,18.2,15.5L18.2,15.5z"/>
    <path fill="#A1ADB8" d="M15.1,12.6c0,0-0.5,0.2-0.5,0.2c1.1,0.3,1.1,0.3,2.1-0.1c-0.2-0.2-2.1-1.1-2.1-1.2c0.2,0.2-0.3,0.2-0.5,0.7
	C14.3,12.5,14.6,12.6,15.1,12.6z"/>
    <path fill="#A1ADB8" d="M13.7,12.8C14.7,13.7,14.1,13.1,13.7,12.8L13.7,12.8z"/>
    <path fill="#A1ADB8" d="M13.2,14.1c0,0.1,0.1,0.1,0.2,0.2C13.3,14.2,13.2,14.1,13.2,14.1z"/>
    <path fill="#A1ADB8" d="M13.2,14.1c0.1,0,0.1,0.1,0.2,0.2C13.3,14.2,13.2,14.2,13.2,14.1c-0.1,0-0.3,0.1-0.4,0.3
	c0.1-0.1-0.7-0.5-0.7-0.5c1,1.3,1.1,0.5,1.7,0.2C13.4,14.1,13,13.8,13.2,14.1z"/>
    <path fill="#A1ADB8" d="M12.5,13.4C13,13.5,12.8,13.4,12.5,13.4L12.5,13.4z"/>
    <path fill="#A1ADB8" d="M13.1,12.1C13.6,12.4,13.4,12.3,13.1,12.1L13.1,12.1z"/>
    <path fill="#A1ADB8" d="M13.4,13.4c-0.1-0.8-0.6-0.5-1.2-0.9C12.3,12.7,11.9,13.1,13.4,13.4z"/>
    <path fill="#A1ADB8" d="M11.8,13.4C12.1,13.8,12.2,13.9,11.8,13.4L11.8,13.4z"/>
    <path fill="#A1ADB8" d="M11.2,14.1c-0.4,0.1-0.5,0.6-0.2,0.5c-0.5,0.2-1.4,0-2,0.2c0.5,0.2,1-0.1,1.5,0c0,0-0.9,0.2-0.6,0.3
	C12,15,11.2,14.7,11.2,14.1z"/>
    <path fill="#A1ADB8" d="M10.2,12.9C10.2,12.9,11.6,13.1,10.2,12.9L10.2,12.9z"/>
    <path fill="#A1ADB8" d="M10.8,13.5c0.2-0.4-0.2,0-0.5-0.2C10.3,13.3,10.2,13.9,10.8,13.5z"/>
    <path fill="#A1ADB8" d="M10,14C9.9,13.9,9.5,13.7,10,14L10,14z"/>
    <path fill="#A1ADB8" d="M9.7,13.2C9.7,13.3,9.9,13.7,9.7,13.2L9.7,13.2z"/>
    <path fill="#A1ADB8" d="M9,13.6V14c0.1-0.1,0.3-0.2,0.5-0.4C9.3,13.6,9.1,13.6,9,13.6z"/>
    <path fill="#A1ADB8" d="M9,15.3V16c0.1-0.1,0.3-0.2,0.5-0.4C9.3,15.5,9.2,15.4,9,15.3z"/>
    <path fill="#A1ADB8" d="M20.1,25.3c0.1,0,0.1,0,0.2-0.1C20.3,25.3,20.2,25.3,20.1,25.3z"/>
    <path fill="#A1ADB8" d="M16.3,19.3C16.3,19.3,16.3,19.3,16.3,19.3C16.3,19.3,16.3,19.3,16.3,19.3z"/>
    <path fill="#A1ADB8" d="M14.6,19.7C14.6,19.7,14.6,19.7,14.6,19.7C14.6,19.7,14.6,19.7,14.6,19.7z"/>
    <path fill="#A1ADB8" d="M21.7,26.3c0.1,0,0.2,0,0.2,0C21.8,26.2,21.8,26.3,21.7,26.3z"/>
    <path fill="#A1ADB8" d="M9.6,30.3c1.5,1.3,2.1,2.9,3.6,4c1.4,1,2.7,0.6,3.9,2c0.7,0.2,0.9,0.3,1.4,0.2c-0.9-0.9-1.6-1.5-2.7-2.1
	c0.2-0.4,0.4-0.9,0.5-1.3c-4.1,3.5-1.2-6.5,1.5-1c0-1.5,0.5-2.8,0.9-3.7c0.7-0.5,1.7-2.1,2.9-2.1c0.1,0,0.2-0.1,0.2,0
	c-0.1,0-0.2,0-0.2,0c-0.2,0.1-0.3,0.3-0.4,0.4c0.6-0.1,1-0.5,1.4-1c-0.3-0.2-0.8-0.6-1-0.7c-0.6,0.3-1.1,0.5-1.7,0.9
	c0,0,0.5-0.7,0.3-0.7c-0.1,0-0.1,0-0.2,0.1c0.1,0,0.1-0.1,0.2-0.1c1.3-0.4,2.7-0.7,3.5-1.6c-0.2,0-0.9,0-1.1,0
	c0.1-0.1,0.7-0.5,0.8-0.4c-0.7-0.9-0.9-0.9-1.7-2c-1.8,1.9-1.3-2.2-3.3-0.7c0,0-0.2,3.4-0.5,4c-0.7-1.9-4.8-2.1-2.4-4.3
	c0.1,0-0.6-0.4-0.8-0.4c0,0,0,0,0,0c0,0,0,0,0,0c0.9-0.1,1-0.2,1.6-0.4c-0.2,0-0.8-0.2-0.9-0.3c0.9,0,0.8,0,1.2-0.3
	c0.1,0.2-0.3,1-0.3,1c0.5,0.2,0.9,0,1.6,0.2c-0.1-0.1-0.9-0.6-1.1-0.8c0.8-1.3,0.5-0.5,0.3-1.9c0.2,0.1,0.4,0.1,0.3-0.1
	c1.5-0.3,3.3,1.4,1,2.4c1.1,0.3,1.8,0.6,2.9,1c0.1-0.1-0.5-0.6-0.7-0.8c0.2-0.1,0.8,0.7,1,0.6c-0.2-0.3-0.5-0.9-0.8-1.5
	c0.1-0.1,0.2-0.1,0.2-0.2c1.1,0.3,0.6,0,1.5,0c-0.4-0.2-1.2-0.6-1.7-0.9c0.1-1-1.4-1.8-3.1-1.6c-0.6-0.2-0.9-1.3-1,0.3
	c-0.3-0.7-0.4-0.5,0-1.1c-1.4,0.8-0.8,0.3-0.6,1.3c-0.1,0-0.3,0-0.4,0c0.3,0.2,0.7,0.3,1.1,0.4c-0.1,0.3-0.4,0.7-0.6,1.2
	c-0.8-1.5-2.4-2.6-2-0.6c0.2,0,0.3-0.1,0.5-0.2c-0.1,0-0.5,0.4-0.4,0.8c-0.1-0.6-0.4-0.7-0.7-1.1c0,0.2-0.1,0.3-0.3,0.3
	c0.2-0.1-1.7,1-2,1.1c-0.8-0.4-1.6-0.8-2.4-1.1v11.9c0.5,1.2,1.1,2.3,1.9,3.2C10.5,32,10.1,31,9.6,30.3z"/>
    <path fill="#A1ADB8" d="M19.1,18.2C19.1,18.2,19.1,18.2,19.1,18.2L19.1,18.2z"/>
    <path fill="#A1ADB8" d="M19.1,18.2c-0.1,0-0.2,0-0.5,0C18.8,18.2,19,18.2,19.1,18.2z"/>
    <path fill="#A1ADB8" d="M18.3,20.6C18.3,20.3,17.6,20.5,18.3,20.6L18.3,20.6z"/>
    <path fill="#A1ADB8" d="M17.5,20.3C17.2,20.4,17.1,20.7,17.5,20.3L17.5,20.3z"/>
    <path fill="#A1ADB8" d="M24.3,25.8c0-0.4,0-0.9-0.6-0.9c0.4,0-0.7-1-0.7,0.6C23.3,25.6,24.3,25.7,24.3,25.8z"/>
    <path fill="#A1ADB8" d="M22.3,25C21.3,24.4,22.3,25.4,22.3,25L22.3,25z"/>
    <path fill="#A1ADB8" d="M21.5,33.8c-0.1-0.1-1.4-0.3-1.8-0.3C20,34,21.4,33.7,21.5,33.8z"/>
    <path fill="#A1ADB8" d="M18,32.8c-0.2-0.1-1.2-0.4-1.2,0c0-0.1,1.6,0.6,1.7,0.6C18.6,33.4,19.4,33.1,18,32.8z"/>
    <path fill="#A1ADB8" d="M18.9,34C18.8,33.1,18.3,34.6,18.9,34L18.9,34z"/>
    <path fill="#A1ADB8" d="M25.4,38.9c0.1-0.9-0.2,0-0.5-0.3c0.4-2.1-4.8-3.7-4.8-2.4c-0.4,0,0-0.9,0.1-1C19,35.8,17.7,39,18,39
	c-0.5,2.1,1.9,3.1,2.3,5.1c0,2.1-1.1,4.2-1.1,5.9c0,0,0.1,0.1,0.2,0.1c0.3,0.1,0-0.3,0.4-0.5c-0.2,0.3-0.2,0.7-0.2,1.1
	c-0.2,0-0.2-0.2-0.2-0.3c0,0.1,0,0.1-0.1,0.1c0,0.1,0.2,0.3,0.2,0.5c0,0-0.4-0.4-0.4,0.1c0,0.1,0.4,0.4,0.5,0.5c0,0,0,0.1,0,0.1
	c-1.1,0,0.5,2.2,2,2.2c0-1.1-0.7-0.8-0.1-2.5c-1.1,0,0.3-1.3,0.5-1.6c0,0.1-0.4,0-0.3-0.4c1-0.1,1.9-0.6,1.6-1.9
	c1.5-0.1,5.7-4.5,5.7-7.1C28.8,39.1,25.8,38.9,25.4,38.9z"/>
    <path fill="#A1ADB8" d="M32.6,14.2c0,0,0.1,0.1,0.1,0.1C32.7,14.3,32.6,14.3,32.6,14.2z"/>
    <path fill="#A1ADB8" d="M20.1,13.8c0,0.1,0.3,0,0.5-0.1C20.4,13.6,20.1,13.6,20.1,13.8z"/>
    <path fill="#A1ADB8" d="M32.6,14.2c-0.1-0.1,0-0.2-0.1-0.2C32.5,14,32.5,14.1,32.6,14.2z"/>
    <path fill="#A1ADB8" d="M26.2,10.7c0,0-0.4-0.3-0.4-0.1c0,0,0,0.1,0,0.1c0.2,0,0.6,0.2,0.6,0.4c0-0.1-1.4-0.4-1.5-0.4
	c0,0,0.5,0.5,0.4,0.5c-0.3-0.2-0.5-0.3-0.9-0.4c0.1,0.1-0.1,0.5-0.1,0.5c0,0-0.6-1.1-1.4-0.4c0.1,0,0.5,0.2,0.6,0.4
	c-0.4-0.1-1.5-0.1-2.1,0.2c-0.1,0-0.1,0.1-0.2,0.1c-0.2,0.1-0.3,0.2-0.3,0.4c0,0.2,0.6,0.1,0.6,0.1c0,0,0,0.1,0,0.2c0,0,0,0.2,0,0.3
	c0,0.1-2,0.4-1.8,0.6c0.1,0.1,0.1,0.1,0.1,0.2c0.3,0.3,1,0.1,1.4,0.1c0,0-0.3,0.1-0.5,0.2c1.3,0.5,4.2,2.8,3.1,2.8
	c0.5,0.2,0.7,0.2,1.2,0.5c-0.4,0-0.5-0.2-0.9-0.1c0.3,0.4-0.1,0.1-0.1,0.4c0,0,0.5,0.3,0.4,0.3c0.1,0,0.2-0.2,0.3-0.2
	c0-0.1-0.1-0.3-0.3-0.3c0,0,0.7,0,0.7,0.1c0,0-0.1,0.1-0.1,0.2c0.1,0.5-1,3.9,1.9,3.6c0-1.9,2.3-3.2,4.3-3.6
	c0.2-0.4,0.6-0.2-0.4-0.6c0.7,0,0.6,0,1.2,0c0-0.4-0.3-0.6-0.5-0.8c0.1-0.1,0.3,0.1,0.4,0.1c0-0.1,0-0.3,0-0.4
	c-0.2-0.3-0.3,0.2-0.5,0c0.1-0.3,0.2,0,0-0.2c0.1,0,0.7,0.2,0.9,0c0,0,0.1-0.1,0.1-0.1c0-0.3-0.5,0-0.5-0.3c0,0,0.7-0.1,0.8-0.1
	c0.1-0.1-0.4-0.9-0.6-1.1c0,0,0-0.2,0-0.2c0,0,0.1-0.1,0.1-0.1c0.3,0,0.3,0,0.4,0.1c0.1-0.1,0.3-0.1,0.3-0.2c-0.2,0-0.3-0.1-0.5-0.1
	c0-0.3,0.1-0.1,0.3-0.2c0-0.3-0.7,0-0.7,0c0-0.5,0.8-1.5,1.3-1.5c0.2-0.2-0.6,0-0.6-0.1c0.3,0,1.4-0.2,1.4-0.5
	c0-0.6-2.6,0.5-2.8,0.5c0.2-0.2,0.5-0.5,0.5-0.7c0,0-0.1-0.1-0.1-0.1c-0.3-0.2-0.7,0.4-1.1,0.4c0-0.3,0.3-0.2,0.4-0.3
	c-0.5,0-1.4,0.2-1.8,0.1c0.5-0.5,2-0.5,2.7-0.5c-0.8-0.1-1.6-0.3-2.7-0.3c0.5-0.1,1.2-0.1,1.8-0.1c0-0.1-0.2-0.2-0.6-0.3h-1.3
	c-1.3,0.1-2.8,0.3-3.2,0.4C26.1,10.5,26.2,10.5,26.2,10.7z"/>
    <path fill="#A1ADB8" d="M24.4,10.8C24.4,10.8,24.4,10.8,24.4,10.8C24.4,10.8,24.4,10.8,24.4,10.8z"/>
    <path fill="#A1ADB8" d="M21.3,11.6c0.1,0,0.1-0.1,0.2-0.1C21.4,11.6,21.3,11.6,21.3,11.6z"/>
    <path fill="#A1ADB8" d="M31.3,19.2c0.3,0,0.4-0.1,0.5,0.2c-0.3,0-0.5-0.1-0.5,0.2c0.3-0.1,0.8,0.4,1.3,0.4c0.4,0,0.7-0.5,1.2-0.5
	C33.7,19.4,31.3,18.1,31.3,19.2z"/>
    <path fill="#A1ADB8" d="M49.2,42.5C46.4,39.6,49.2,49.4,49.2,42.5L49.2,42.5z"/>
    <path fill="#A1ADB8" d="M45,31.1c-0.4-0.4-6-2.2-5.2-2.2c-1.5-3.1-6.4,3.6-6.9,4.5c0.4,0.1,0.5,3.4,2,3.7c1.6,0.4,3.1-0.2,4.7,0.3
	c-0.3,1.9,0.7,4,0.7,6.1c0,1.4,3.4,6.2,3.8,3.5c1-1.9,2.1-3.2,2.9-5.1c0-2.8,2.4-3.9,2.4-6.2C46.3,36.2,46.7,33,45,31.1z"/>
    <path fill="#A1ADB8" d="M40.9,28.4c-0.3,0-0.5,0.1-0.8,0.1c0.1,0,0.2,0.2,0.2,0.3c0.9,0.2,0.8-0.8,1.3-0.8c-0.1-0.1-0.1-0.2-0.1-0.3
	c-0.3-0.2-0.6-0.4-0.8-0.6C40.9,27.4,41,27.7,40.9,28.4z"/>
    <path fill="#A1ADB8" d="M40.6,27c0,0,0.1,0.1,0.1,0.1C40.7,27.1,40.6,27,40.6,27z"/>
    <path fill="#A1ADB8" d="M54.5,16c-1.7,0-1.3,1-0.9,1.9c-0.1,0-0.1,0.1-0.1,0.1c-0.8,0-1.7-1.2-2.5-1c-0.2,0.2,0.6,0.5,0.5,0.8
	c-0.2,0-0.1,0.1-0.3,0.2c-0.2-0.1-1-0.3-1.1-0.3c-0.7,0-1.3,0-1.3,0.1c0,0,0,0.1,0,0.1c0,0,0,0,0-0.1c-1,0-0.8,0.1-1.3,0.1
	c0,0.3,0.2,0.7,0.2,1.1c-0.8,0.1-0.8-0.1-1,0.6c0,0.1-0.9-0.3-0.8-0.3c0,0.1,0,0.1-0.1,0.1c-0.2,0.2,0.4,0.4,0.4,0.4
	c0-0.1-0.3,0.1-0.3,0.1c-0.3,0-1-1.2-1.1-1.4c4.6,0-1.3-1.5-1.3-1.4c-0.1,0-0.2-0.1-0.3-0.1c0,0.1-0.1,0.1,0,0
	c-0.5-0.1-0.4-0.1-0.6,0.3c-0.8,0.1-1.3-0.1-1.3,0.6c-0.2,0-0.9-0.3-1.1,0.4c0.1,0,0.9-0.4,0.9-0.2c-1.4,1.6-4.3,3.5-1.4,3.5
	c0.3,0.2,0.4,1.2,0.6,1.5c0.3-0.1,0.8-0.5,1-0.4c0-0.9,0.1-2.4,1.1-3.3c0.3-0.3-0.7,2.3,1.9,2c-0.2,0.3-2,0.6-2,0.6
	c0,0,0.7,0.2,0.8,0.3c-0.1,0-0.2,0.1-0.2,0.3c-0.2,0.1-0.3-0.2-0.3-0.3c-0.3,0.8-2.8,1.6-2.8,1.3c0-0.2,0-0.1-0.2-0.1
	c0,0,0-0.1,0-0.1c0-0.2,0.4,0,0.6,0c0,0,0.1-0.4,0.1-0.4c0-0.3-0.4,0-0.5,0c0,0,0-0.7-0.1-0.7c-0.7,0-0.3,1-0.3,1.5
	c-0.7,0.3-3.3,1.7-3.3,1.7c0,0.1,0.1,0.1,0.1,0.1c1.2,0-2.8,4.9,0.4,3.3c-0.3,0,3-2.6,4.2-1.7c-0.2-0.2-0.3-0.3-0.5-0.5
	c0.2,0,0.1-0.2,0.1-0.3c2.1-0.4,1.3,3.9,3,2.1c0-0.1-0.5-0.2-0.7-0.5c0-1,1.2,1.1,1.2,1.3c0.1,0,0,0.1,0.1,0.1
	c0.2,0,1.5-0.2,1.9-0.3c0,1-0.1,1.5-1.2,1.5c0.4,1.1,2.8,2.3,2.8,4.1c2.2,1.4,2.4-1.1,4.2-1.4c0-0.3-1.2-1.1-1.2-1.2
	c0,0-1.3,0.9-1.3,0.4c0,0,0-0.1,0-0.1c0-0.1,0.8,0,0.7-0.1c-0.3-0.1-1.5-1.3-1.1-1.3c1.1-0.2,4,1.9,5.2,2c0.2,0,0.7,1.7,1.2,2.8
	V18.4c-0.6,0.1-1.1,0.3-1.3,0.3C54.7,17.8,54.7,17.6,54.5,16z"/>
    <path fill="#A1ADB8" d="M55,17.3V16C54.8,16.5,54.8,17,55,17.3z"/>
    <path fill="#A1ADB8" d="M43.3,16.9C43.3,16.9,43.2,16.9,43.3,16.9C43.2,17,43.2,17,43.3,16.9C43.3,16.9,43.3,16.9,43.3,16.9z"/>
    <path fill="#A1ADB8" d="M43.2,17C43.2,17,43.2,17,43.2,17C43.2,17.1,43.2,17,43.2,17z"/>
</svg>
