<svg width="48" height="48" viewBox="0 0 48 48" fill="none" xmlns="http://www.w3.org/2000/svg">
<g clip-path="url(#clip0)">
<path opacity="0.15" d="M47.4593 38.6678C48.9975 41.3339 47.0667 44.6667 43.9945 44.6667H4.00404C0.925952 44.6667 -0.995881 41.3288 0.539286 38.6678L20.5348 3.99875C22.0737 1.33133 25.9281 1.33617 27.4643 3.99875L47.4593 38.6678Z" fill="#072833"/>
<path d="M20.1665 35.3334C20.1665 33.2163 21.8828 31.5001 23.9998 31.5001C26.1169 31.5001 27.8332 33.2163 27.8332 35.3334C27.8332 37.4505 26.1169 39.1667 23.9998 39.1667C21.8828 39.1667 20.1665 37.4505 20.1665 35.3334Z" fill="#072833"/>
<path d="M20.9786 29.0546L20.3604 17.7212C20.3292 17.1484 20.7852 16.6667 21.3588 16.6667H26.6408C27.2144 16.6667 27.6705 17.1484 27.6393 17.7212L27.0211 29.0546C26.9922 29.5849 26.5537 30.0001 26.0226 30.0001H21.9771C21.446 30.0001 21.0075 29.5849 20.9786 29.0546Z" fill="#072833"/>
</g>
<defs>
<clipPath id="clip0">
<rect width="48" height="48" fill="white"/>
</clipPath>
</defs>
</svg>
